<svg width="85" height="85" viewBox="0 0 85 85" fill="none" xmlns="http://www.w3.org/2000/svg">
<path d="M5.53906 21.28L21.2891 5.53003C18.4891 7.13003 15.8991 9.04002 13.5491 11.21L11.2191 13.54C9.04906 15.88 7.13906 18.48 5.53906 21.28Z" fill="#7FD2D8"/>
<path d="M0.839844 33.8001L33.8099 0.830078C32.8999 1.01008 31.9999 1.23008 31.1099 1.47008L1.47986 31.1001C1.22986 31.9901 1.01984 32.8901 0.839844 33.8001Z" fill="#7FD2D8"/>
<path d="M0 42.18C0 42.27 0 42.36 0 42.45L42.45 0C42.36 0 42.27 0 42.18 0C41.57 0 40.96 0.0199933 40.35 0.0399933L0.039978 40.35C0.019978 40.96 0 41.56 0 42.18Z" fill="#7FD2D8"/>
<path d="M0.660645 49.6101L49.6306 0.640106C49.0406 0.540106 48.4406 0.440107 47.8506 0.360107L0.390625 47.8201C0.460625 48.4301 0.550645 49.0201 0.660645 49.6101Z" fill="#7FD2D8"/>
<path d="M2.25952 55.83L55.8395 2.25C55.3195 2.07 54.7995 1.91 54.2795 1.75L1.76953 54.26C1.91953 54.79 2.07952 55.31 2.25952 55.83Z" fill="#7FD2D8"/>
<path d="M4.59015 61.3199L61.3401 4.5699C60.8801 4.3399 60.4201 4.1099 59.9501 3.8999L3.91016 59.9299C4.13016 60.3999 4.35015 60.8599 4.59015 61.3199Z" fill="#7FD2D8"/>
<path d="M7.51135 66.2099L66.2214 7.49992C65.8114 7.21992 65.4014 6.93992 64.9914 6.66992L6.69141 64.9699C6.96141 65.3899 7.23135 65.7999 7.51135 66.2099Z" fill="#7FD2D8"/>
<path d="M10.9818 70.56L70.5717 10.97C70.2117 10.64 69.8417 10.32 69.4717 10.01L10.0117 69.47C10.3317 69.84 10.6518 70.2 10.9818 70.56Z" fill="#7FD2D8"/>
<path d="M14.9594 74.4001L74.4094 14.9501C74.0994 14.5801 73.7793 14.2101 73.4493 13.8501L13.8594 73.4401C14.2194 73.7701 14.5894 74.0901 14.9594 74.4001Z" fill="#7FD2D8"/>
<path d="M19.4587 77.7199L77.7388 19.4399C77.4688 19.0199 77.1988 18.61 76.9088 18.21L18.2188 76.8999C18.6287 77.1799 19.0387 77.4599 19.4587 77.7199Z" fill="#7FD2D8"/>
<path d="M24.511 80.4901L80.5011 24.5001C80.2811 24.0301 80.0611 23.5701 79.8311 23.1101L23.1211 79.8201C23.5811 80.0501 24.041 80.2701 24.511 80.4901Z" fill="#7FD2D8"/>
<path d="M30.189 82.6299L82.6489 30.1799C82.4889 29.6499 82.3289 29.1299 82.1589 28.6199L28.6289 82.1499C29.1389 82.3099 29.659 82.4699 30.189 82.6299Z" fill="#7FD2D8"/>
<path d="M36.6315 84.0001L84.0115 36.6201C83.9315 36.0201 83.8416 35.4301 83.7416 34.8301L34.8516 83.7201C35.4416 83.8301 36.0315 83.9201 36.6315 84.0001Z" fill="#7FD2D8"/>
<path d="M42.1891 84.37C42.8391 84.37 43.489 84.35 44.129 84.32L84.329 44.12C84.359 43.48 84.379 42.83 84.379 42.18C84.379 42.13 84.379 42.07 84.379 42.02L42.0391 84.36C42.0791 84.36 42.1391 84.37 42.1891 84.37Z" fill="#7FD2D8"/>
<path d="M53.4193 82.8499L82.8593 53.4099C83.1093 52.5199 83.3292 51.61 83.5092 50.7L50.6992 83.5099C51.6192 83.32 52.5293 83.0999 53.4193 82.8499Z" fill="#7FD2D8"/>
<path d="M78.6916 63.3401L63.3516 78.6801C69.7016 74.9901 75.0016 69.6901 78.6916 63.3401Z" fill="#7FD2D8"/>
</svg>
