<svg width="39" height="40" viewBox="0 0 39 40" fill="none" xmlns="http://www.w3.org/2000/svg">
<rect width="39" height="40" rx="10" fill="#C0F2EF"/>
<path d="M25.0857 14.5082C25.0335 14.5082 24.9823 14.4931 24.9378 14.4646C24.8933 14.4361 24.8571 14.3953 24.8333 14.3466C24.8095 14.298 24.7989 14.2434 24.8028 14.1889C24.8067 14.1344 24.8248 14.082 24.8552 14.0376C25.0279 13.7849 25.1201 13.4815 25.1186 13.1707C25.1181 12.8109 24.9952 12.4631 24.772 12.1896C24.5488 11.9162 24.2399 11.7349 23.9007 11.6785C23.5616 11.622 23.2143 11.6941 22.9212 11.8816C22.6281 12.0691 22.4084 12.3599 22.3015 12.7019C22.2768 12.7752 22.2258 12.8355 22.1592 12.8698C22.0926 12.9042 22.0159 12.9099 21.9454 12.8856C21.8749 12.8614 21.8162 12.8092 21.782 12.7403C21.7478 12.6713 21.7407 12.591 21.7623 12.5166C21.9112 12.0402 22.2173 11.635 22.6257 11.3737C23.0341 11.1124 23.518 11.0121 23.9905 11.0909C24.4631 11.1696 24.8934 11.4223 25.2042 11.8035C25.5151 12.1846 25.686 12.6694 25.6864 13.1707C25.6884 13.6058 25.5593 14.0305 25.3175 14.3843C25.2911 14.4228 25.2563 14.4542 25.216 14.4757C25.1756 14.4973 25.1309 14.5084 25.0857 14.5082Z" fill="#115B76"/>
<path d="M27.2996 17.9454C27.2529 17.9454 27.207 17.9333 27.1659 17.9103C27.1247 17.8872 27.0896 17.8539 27.0637 17.8133C27.0378 17.7727 27.0218 17.726 27.0172 17.6774C27.0126 17.6287 27.0195 17.5797 27.0374 17.5345C27.1366 17.279 27.1867 17.0055 27.1849 16.7297C27.1882 16.436 27.1358 16.1446 27.0307 15.8722C26.9257 15.5999 26.7701 15.3521 26.573 15.1432C26.3759 14.9343 26.1412 14.7685 25.8824 14.6553C25.6237 14.5421 25.3461 14.4838 25.0658 14.4838C24.7854 14.4838 24.5078 14.5421 24.2491 14.6553C23.9904 14.7685 23.7557 14.9343 23.5586 15.1432C23.3615 15.3521 23.2059 15.5999 23.1008 15.8722C22.9958 16.1446 22.9434 16.436 22.9466 16.7297C22.9466 16.8086 22.9167 16.8842 22.8635 16.9399C22.8103 16.9957 22.7381 17.027 22.6628 17.027C22.5876 17.027 22.5154 16.9957 22.4622 16.9399C22.4089 16.8842 22.379 16.8086 22.379 16.7297C22.3754 16.3577 22.4422 15.9885 22.5756 15.6437C22.709 15.2988 22.9063 14.9851 23.1561 14.7207C23.406 14.4562 23.7034 14.2463 24.0312 14.103C24.359 13.9598 24.7106 13.886 25.0658 13.886C25.4209 13.886 25.7726 13.9598 26.1004 14.103C26.4281 14.2463 26.7256 14.4562 26.9754 14.7207C27.2253 14.9851 27.4226 15.2988 27.556 15.6437C27.6893 15.9885 27.7561 16.3577 27.7525 16.7297C27.7545 17.0839 27.6898 17.4349 27.5621 17.7628C27.5404 17.817 27.5039 17.8633 27.4572 17.8958C27.4105 17.9283 27.3556 17.9455 27.2996 17.9454Z" fill="#115B76"/>
<path d="M25.8454 22.4639C25.7532 22.4639 25.6618 22.4588 25.5718 22.4496C25.5347 22.4457 25.4988 22.4342 25.4659 22.4157C25.4331 22.3972 25.404 22.3722 25.3805 22.3419C25.3569 22.3117 25.3392 22.2769 25.3285 22.2395C25.3177 22.2021 25.3141 22.1629 25.3178 22.1241C25.3216 22.0852 25.3325 22.0475 25.3502 22.0131C25.3678 21.9787 25.3917 21.9483 25.4206 21.9236C25.4495 21.8989 25.4827 21.8804 25.5184 21.8691C25.554 21.8579 25.5915 21.8541 25.6286 21.858C25.6995 21.8653 25.7715 21.8691 25.8445 21.8693C26.2879 21.8698 26.7203 21.7244 27.0806 21.4537C27.4409 21.183 27.711 20.8006 27.8527 20.3604C27.9945 19.9203 28.0007 19.4447 27.8706 19.0006C27.7405 18.5565 27.4806 18.1665 27.1275 17.8855C27.0673 17.8382 27.0275 17.7677 27.0169 17.6897C27.0062 17.6116 27.0256 17.5323 27.0708 17.4693C27.1159 17.4062 27.1831 17.3645 27.2577 17.3533C27.3322 17.3422 27.4078 17.3625 27.4681 17.4098C27.9154 17.7663 28.2447 18.2607 28.4097 18.8236C28.5746 19.3865 28.5669 19.9894 28.3876 20.5474C28.2084 21.1054 27.8665 21.5905 27.4102 21.9343C26.954 22.2781 26.4063 22.4633 25.8442 22.4639H25.8454Z" fill="#115B76"/>
<path d="M24.8034 28.6977C24.7321 28.6977 24.6634 28.6696 24.611 28.619C24.5585 28.5683 24.5262 28.4989 24.5205 28.4244C24.5147 28.3499 24.5359 28.2759 24.5799 28.2171C24.6238 28.1583 24.6873 28.119 24.7577 28.107C25.2529 28.023 25.7032 27.7567 26.0275 27.3559C26.3519 26.9551 26.5291 26.4461 26.5271 25.9206C26.5271 25.7029 26.4971 25.4863 26.438 25.2776C26.4274 25.2401 26.424 25.2009 26.4279 25.1621C26.4318 25.1232 26.443 25.0856 26.4608 25.0513C26.4786 25.017 26.5027 24.9867 26.5317 24.9622C26.5606 24.9376 26.5939 24.9193 26.6297 24.9082C26.6654 24.8971 26.7029 24.8935 26.74 24.8976C26.777 24.9017 26.8129 24.9135 26.8457 24.9321C26.8784 24.9508 26.9073 24.976 26.9308 25.0063C26.9542 25.0367 26.9717 25.0716 26.9823 25.109C27.0572 25.3724 27.0954 25.6458 27.0958 25.9206C27.0982 26.5873 26.8734 27.2329 26.4618 27.7413C26.0502 28.2497 25.479 28.5875 24.8508 28.6938C24.8351 28.6963 24.8193 28.6976 24.8034 28.6977Z" fill="#115B76"/>
<path d="M26.7098 25.4904C26.6449 25.4904 26.5819 25.4672 26.5313 25.4244C26.4808 25.3817 26.4458 25.3221 26.4321 25.2556C26.4185 25.1891 26.427 25.1196 26.4563 25.0589C26.4856 24.9982 26.5339 24.9499 26.5932 24.922C26.9634 24.7465 27.2776 24.4629 27.4981 24.1052C27.7185 23.7475 27.8359 23.3309 27.8361 22.9051C27.838 22.4099 27.6793 21.9286 27.386 21.5402C27.3414 21.4781 27.3217 21.4001 27.3312 21.323C27.3408 21.2459 27.3788 21.1758 27.4371 21.1277C27.4954 21.0796 27.5694 21.0573 27.6432 21.0657C27.717 21.0741 27.7847 21.1124 27.8319 21.1724C28.0829 21.5073 28.2578 21.8977 28.3435 22.3139C28.4292 22.7301 28.4234 23.1612 28.3265 23.5747C28.2296 23.9882 28.0441 24.3732 27.7842 24.7005C27.5242 25.0278 27.1966 25.2889 26.8261 25.4639C26.7896 25.4813 26.7499 25.4903 26.7098 25.4904Z" fill="#115B76"/>
<path d="M22.2766 30.4055C21.4654 30.4045 20.6877 30.0666 20.1142 29.4657C19.5406 28.8648 19.218 28.0501 19.2171 27.2003V11.4786C19.2044 11.2127 19.2456 10.9469 19.3379 10.6988C19.4302 10.4506 19.5715 10.2257 19.7526 10.0388C19.9522 9.85179 20.1917 9.71747 20.4509 9.64709C20.7102 9.5767 20.9818 9.57229 21.243 9.63421C22.4996 9.94602 23.6783 10.5345 24.7009 11.3606C24.7596 11.4101 24.7972 11.482 24.8053 11.5605C24.8134 11.6389 24.7914 11.7176 24.7442 11.7791C24.697 11.8406 24.6284 11.8799 24.5534 11.8884C24.4785 11.8969 24.4035 11.8739 24.3448 11.8244C23.391 11.0609 22.2962 10.5135 21.1298 10.2169C20.9575 10.174 20.778 10.1747 20.6061 10.2191C20.4342 10.2634 20.2749 10.3501 20.1414 10.472C20.0179 10.6043 19.9224 10.7622 19.861 10.9356C19.7995 11.109 19.7735 11.294 19.7846 11.4786V27.2003C19.7849 27.7969 19.9801 28.3754 20.3378 28.8395C20.6955 29.3037 21.1941 29.6256 21.7507 29.7515C22.3073 29.8775 22.8883 29.8001 23.397 29.532C23.9057 29.264 24.3115 28.8216 24.5468 28.2783C24.5779 28.2065 24.635 28.1506 24.7055 28.1228C24.776 28.0951 24.8541 28.0978 24.9227 28.1304C24.9913 28.163 25.0447 28.2228 25.0711 28.2967C25.0976 28.3705 25.095 28.4524 25.0639 28.5242C24.8201 29.0846 24.4278 29.5598 23.9337 29.8933C23.4396 30.2268 22.8644 30.4046 22.2766 30.4055Z" fill="#115B76"/>
<path d="M13.9122 14.5082C13.8671 14.5083 13.8226 14.497 13.7825 14.4755C13.7424 14.4539 13.7077 14.4226 13.6814 14.3843C13.4396 14.0305 13.3105 13.6058 13.3125 13.1707C13.3129 12.6694 13.4839 12.1846 13.7947 11.8035C14.1055 11.4223 14.5358 11.1696 15.0084 11.0909C15.481 11.0121 15.9649 11.1124 16.3733 11.3737C16.7817 11.635 17.0878 12.0402 17.2367 12.5166C17.2492 12.554 17.2545 12.5936 17.2523 12.6331C17.25 12.6726 17.2403 12.7112 17.2236 12.7467C17.2069 12.7822 17.1836 12.8139 17.1551 12.8398C17.1265 12.8658 17.0933 12.8855 17.0574 12.8979C17.0215 12.9102 16.9836 12.9149 16.946 12.9117C16.9083 12.9085 16.8716 12.8974 16.8381 12.8791C16.8046 12.8609 16.7749 12.8358 16.7507 12.8054C16.7266 12.7749 16.7085 12.7397 16.6975 12.7019C16.5909 12.3595 16.3712 12.0682 16.078 11.8803C15.7848 11.6924 15.4372 11.6202 15.0977 11.6767C14.7582 11.7332 14.4491 11.9146 14.2258 12.1885C14.0026 12.4623 13.8799 12.8106 13.8798 13.1707C13.8783 13.4815 13.9705 13.7849 14.1432 14.0376C14.1736 14.082 14.1917 14.1344 14.1956 14.1889C14.1995 14.2434 14.1889 14.298 14.1651 14.3466C14.1413 14.3953 14.1051 14.4361 14.0606 14.4646C14.0161 14.4931 13.9649 14.5082 13.9127 14.5082H13.9122Z" fill="#115B76"/>
<path d="M11.7031 17.9454C11.6469 17.9454 11.5919 17.928 11.5452 17.8953C11.4984 17.8626 11.462 17.8161 11.4406 17.7616C11.313 17.4341 11.2483 17.0835 11.2501 16.7297C11.2465 16.3577 11.3133 15.9885 11.4467 15.6437C11.5801 15.2988 11.7774 14.9851 12.0272 14.7207C12.2771 14.4562 12.5745 14.2463 12.9023 14.103C13.2301 13.9598 13.5817 13.886 13.9369 13.886C14.292 13.886 14.6437 13.9598 14.9715 14.103C15.2992 14.2463 15.5967 14.4562 15.8465 14.7207C16.0964 14.9851 16.2937 15.2988 16.4271 15.6437C16.5604 15.9885 16.6272 16.3577 16.6236 16.7297C16.6236 16.8086 16.5937 16.8842 16.5405 16.9399C16.4873 16.9957 16.4151 17.027 16.3398 17.027C16.2645 17.027 16.1924 16.9957 16.1391 16.9399C16.0859 16.8842 16.056 16.8086 16.056 16.7297C16.0593 16.436 16.0068 16.1446 15.9018 15.8722C15.7968 15.5999 15.6412 15.3521 15.4441 15.1432C15.247 14.9343 15.0123 14.7685 14.7535 14.6553C14.4948 14.5421 14.2172 14.4838 13.9369 14.4838C13.6565 14.4838 13.3789 14.5421 13.1202 14.6553C12.8615 14.7685 12.6268 14.9343 12.4297 15.1432C12.2325 15.3521 12.077 15.5999 11.9719 15.8722C11.8669 16.1446 11.8145 16.436 11.8177 16.7297C11.8158 17.0059 11.8659 17.2798 11.9653 17.5357C11.9937 17.6084 11.9934 17.6899 11.9646 17.7625C11.9358 17.835 11.8807 17.8926 11.8115 17.9228C11.7771 17.9376 11.7403 17.9453 11.7031 17.9454Z" fill="#115B76"/>
<path d="M13.1525 22.4639C12.5899 22.4646 12.0413 22.2801 11.5842 21.9365C11.1271 21.5928 10.7846 21.1074 10.6051 20.5488C10.4256 19.9902 10.4182 19.3866 10.5839 18.8233C10.7497 18.2601 11.0802 17.7656 11.5287 17.4098C11.5889 17.3625 11.6646 17.3422 11.7391 17.3533C11.8136 17.3645 11.8808 17.4062 11.926 17.4693C11.9712 17.5323 11.9906 17.6116 11.9799 17.6897C11.9693 17.7677 11.9295 17.8382 11.8692 17.8855C11.5172 18.1671 11.2583 18.5571 11.1288 19.0008C10.9994 19.4445 11.0059 19.9196 11.1475 20.3592C11.2891 20.7988 11.5586 21.1809 11.9182 21.4518C12.2778 21.7227 12.7093 21.8686 13.1522 21.8693C13.2253 21.8693 13.2972 21.8655 13.3682 21.858C13.4053 21.8541 13.4427 21.8578 13.4784 21.8691C13.5141 21.8804 13.5473 21.8989 13.5762 21.9236C13.605 21.9483 13.6289 21.9787 13.6466 22.0131C13.6642 22.0475 13.6752 22.0852 13.6789 22.124C13.6827 22.1629 13.679 22.2021 13.6683 22.2395C13.6576 22.2769 13.6399 22.3117 13.6163 22.3419C13.5927 22.3722 13.5637 22.3972 13.5308 22.4157C13.498 22.4342 13.462 22.4457 13.4249 22.4496C13.3361 22.4588 13.2447 22.4639 13.1525 22.4639Z" fill="#115B76"/>
<path d="M14.1975 28.6977C14.182 28.6976 14.1666 28.6963 14.1513 28.6938C13.5231 28.5875 12.9518 28.2497 12.5403 27.7413C12.1287 27.2329 11.9039 26.5873 11.9063 25.9206C11.9067 25.6458 11.9449 25.3724 12.0198 25.109C12.0303 25.0716 12.0478 25.0367 12.0713 25.0063C12.0947 24.976 12.1236 24.9508 12.1564 24.9321C12.1891 24.9135 12.2251 24.9017 12.2621 24.8976C12.2992 24.8935 12.3366 24.8971 12.3724 24.9082C12.4081 24.9193 12.4414 24.9376 12.4704 24.9622C12.4994 24.9867 12.5235 25.017 12.5413 25.0513C12.5591 25.0856 12.5702 25.1232 12.5742 25.1621C12.5781 25.2009 12.5746 25.2401 12.5641 25.2776C12.505 25.4863 12.4749 25.7029 12.475 25.9206C12.473 26.4461 12.6501 26.9551 12.9745 27.3559C13.2989 27.7567 13.7492 28.023 14.2444 28.107C14.3147 28.119 14.3782 28.1583 14.4222 28.2171C14.4662 28.2759 14.4874 28.3499 14.4816 28.4244C14.4758 28.4989 14.4435 28.5683 14.3911 28.619C14.3387 28.6696 14.27 28.6977 14.1987 28.6977H14.1975Z" fill="#115B76"/>
<path d="M12.2924 25.4905C12.2523 25.4904 12.2126 25.4814 12.1761 25.464C11.8055 25.2891 11.4778 25.0282 11.2177 24.7009C10.9577 24.3736 10.7721 23.9887 10.6751 23.5752C10.5781 23.1617 10.5721 22.7304 10.6578 22.3142C10.7434 21.8979 10.9183 21.5075 11.1692 21.1726C11.192 21.141 11.2205 21.1144 11.2531 21.0945C11.2858 21.0746 11.3219 21.0618 11.3593 21.0567C11.3968 21.0516 11.4349 21.0544 11.4713 21.0649C11.5077 21.0754 11.5417 21.0934 11.5714 21.1179C11.6011 21.1424 11.6258 21.1728 11.6441 21.2075C11.6624 21.2421 11.6739 21.2802 11.678 21.3195C11.682 21.3588 11.6786 21.3986 11.6678 21.4366C11.657 21.4745 11.639 21.5098 11.615 21.5403C11.3218 21.9287 11.1631 22.41 11.165 22.9052C11.1652 23.331 11.2826 23.7476 11.503 24.1053C11.7235 24.463 12.0376 24.7466 12.4079 24.9221C12.4672 24.95 12.5155 24.9983 12.5448 25.059C12.5741 25.1198 12.5826 25.1892 12.569 25.2557C12.5553 25.3222 12.5203 25.3818 12.4698 25.4245C12.4192 25.4673 12.3562 25.4906 12.2913 25.4905H12.2924Z" fill="#115B76"/>
<path d="M16.7259 30.4055C16.1383 30.4044 15.5632 30.2265 15.0693 29.893C14.5753 29.5595 14.1831 29.0844 13.9394 28.5242C13.9083 28.4523 13.9057 28.3705 13.9322 28.2966C13.9587 28.2228 14.0121 28.163 14.0806 28.1304C14.1492 28.0978 14.2273 28.0951 14.2978 28.1228C14.3683 28.1505 14.4254 28.2065 14.4565 28.2783C14.6921 28.821 15.0979 29.2629 15.6064 29.5306C16.115 29.7982 16.6956 29.8755 17.2519 29.7495C17.8081 29.6236 18.3065 29.302 18.6641 28.8383C19.0218 28.3745 19.2172 27.7965 19.2178 27.2003V11.4786C19.229 11.294 19.203 11.109 19.1415 10.9356C19.0801 10.7622 18.9845 10.6042 18.8611 10.472C18.7277 10.3501 18.5684 10.2634 18.3966 10.219C18.2247 10.1746 18.0452 10.1739 17.873 10.2169C16.7064 10.5121 15.6113 11.0589 14.6577 11.8223C14.5988 11.8665 14.5261 11.8855 14.4543 11.8753C14.3825 11.8652 14.3171 11.8266 14.2716 11.7676C14.226 11.7086 14.2038 11.6335 14.2094 11.5578C14.2149 11.4822 14.2479 11.4116 14.3016 11.3606C15.3242 10.5345 16.5031 9.94595 17.7598 9.63418C18.0209 9.57228 18.2925 9.57671 18.5517 9.6471C18.8109 9.71748 19.0503 9.85179 19.2499 10.0388C19.431 10.2257 19.5723 10.4506 19.6646 10.6987C19.7569 10.9469 19.7981 11.2126 19.7854 11.4786V27.2003C19.7845 28.0501 19.4619 28.8648 18.8883 29.4656C18.3147 30.0665 17.5371 30.4045 16.7259 30.4055Z" fill="#115B76"/>
<path d="M19.4985 15.8273C19.4725 15.8273 19.4466 15.8235 19.4216 15.816C19.3857 15.8054 19.3522 15.7875 19.3229 15.7634C19.2937 15.7392 19.2692 15.7092 19.251 15.6751C19.2328 15.6411 19.2212 15.6036 19.2168 15.5648C19.2124 15.526 19.2154 15.4867 19.2255 15.4492C19.3748 14.8938 19.944 13.8735 21.0187 13.9859C21.0936 13.9937 21.1625 14.0325 21.2101 14.0935C21.2577 14.1546 21.2803 14.2329 21.2727 14.3114C21.2652 14.3899 21.2282 14.462 21.17 14.5119C21.1117 14.5618 21.0369 14.5854 20.962 14.5775C20.0868 14.4883 19.7743 15.5993 19.7701 15.6106C19.7534 15.6727 19.7179 15.7274 19.6689 15.7665C19.6199 15.8056 19.5601 15.827 19.4985 15.8273Z" fill="#115B76"/>
<path d="M19.4996 17.3029C19.4379 17.3029 19.3779 17.2818 19.3287 17.2428C19.2795 17.2039 19.2437 17.1492 19.2269 17.0871C19.2141 17.041 18.9019 15.9594 18.035 16.0531C17.96 16.061 17.8852 16.0373 17.8269 15.9874C17.7686 15.9375 17.7316 15.8653 17.7241 15.7869C17.7166 15.7084 17.7391 15.6299 17.7868 15.5689C17.8344 15.5078 17.9033 15.469 17.9782 15.4612C19.0566 15.3491 19.6222 16.3694 19.7714 16.9248C19.7815 16.9623 19.7845 17.0016 19.7801 17.0404C19.7757 17.0792 19.7641 17.1167 19.7459 17.1507C19.7277 17.1848 19.7033 17.2148 19.674 17.239C19.6447 17.2631 19.6112 17.281 19.5753 17.2916C19.5507 17.299 19.5252 17.3028 19.4996 17.3029Z" fill="#115B76"/>
<path d="M23.3902 19.3131C22.9973 19.3135 22.6091 19.2231 22.2534 19.0484C21.8976 18.8736 21.583 18.6189 21.3319 18.3023C21.307 18.2724 21.288 18.2377 21.2761 18.2001C21.2642 18.1624 21.2596 18.1227 21.2626 18.0832C21.2656 18.0436 21.2761 18.0051 21.2934 17.9699C21.3108 17.9347 21.3348 17.9035 21.3638 17.8781C21.3929 17.8528 21.4265 17.8337 21.4627 17.8222C21.4989 17.8106 21.5369 17.8067 21.5746 17.8108C21.6122 17.8149 21.6487 17.8268 21.6819 17.8458C21.7151 17.8649 21.7443 17.8907 21.7678 17.9217C22.0454 18.2711 22.419 18.5224 22.8378 18.6414C23.2566 18.7604 23.7002 18.7412 24.1083 18.5866C24.5163 18.4319 24.8689 18.1493 25.1181 17.7772C25.3674 17.405 25.501 16.9615 25.501 16.5069C25.501 16.4501 25.499 16.3936 25.495 16.3377C25.4915 16.2984 25.4956 16.2588 25.5069 16.2212C25.5181 16.1835 25.5365 16.1486 25.5608 16.1184C25.5851 16.0883 25.6149 16.0635 25.6484 16.0455C25.682 16.0276 25.7186 16.0168 25.7562 16.0138C25.7937 16.0108 25.8315 16.0157 25.8672 16.0282C25.903 16.0406 25.936 16.0604 25.9644 16.0864C25.9927 16.1124 26.0159 16.144 26.0324 16.1795C26.049 16.2149 26.0587 16.2534 26.0609 16.2928C26.066 16.3636 26.0686 16.435 26.0686 16.5069C26.0679 17.2509 25.7855 17.9642 25.2834 18.4903C24.7812 19.0164 24.1004 19.3123 23.3902 19.3131Z" fill="#115B76"/>
<path d="M25.0673 21.0406H25.0616C23.6807 21.0123 23.032 19.7405 22.8819 19.0719C22.8655 18.9955 22.8786 18.9155 22.9182 18.8492C22.9577 18.7828 23.0207 18.7355 23.0934 18.7175C23.166 18.6994 23.2426 18.7121 23.3064 18.7528C23.3701 18.7935 23.4161 18.8589 23.4341 18.9348C23.4483 18.9943 23.7908 20.4198 25.0727 20.446C25.148 20.4467 25.2199 20.4788 25.2726 20.5351C25.3253 20.5913 25.3545 20.6673 25.3538 20.7461C25.3531 20.8249 25.3225 20.9003 25.2688 20.9555C25.215 21.0107 25.1426 21.0413 25.0673 21.0406Z" fill="#115B76"/>
<path d="M23.3349 25.0305H23.3113C23.2363 25.0239 23.1669 24.9865 23.1182 24.9263C23.0696 24.8662 23.0458 24.7882 23.052 24.7097C23.093 24.4 23.0734 24.0848 22.9946 23.7833C22.9158 23.4818 22.7793 23.2002 22.5934 22.9556C22.1448 22.4691 21.5464 22.1645 20.904 22.0958C20.8289 22.0902 20.7591 22.0535 20.7098 21.9938C20.6606 21.9342 20.6359 21.8565 20.6414 21.7779C20.6468 21.6992 20.6818 21.626 20.7387 21.5744C20.7956 21.5228 20.8698 21.497 20.9449 21.5027C21.7384 21.583 22.4772 21.9618 23.0247 22.5688C23.2602 22.8722 23.4342 23.2228 23.5362 23.599C23.6381 23.9752 23.6658 24.3692 23.6175 24.7569C23.6118 24.8314 23.5796 24.9009 23.5272 24.9515C23.4749 25.0022 23.4062 25.0304 23.3349 25.0305Z" fill="#115B76"/>
<path d="M21.5224 27.6047H21.509C21.4718 27.6029 21.4353 27.5934 21.4015 27.5768C21.3678 27.5602 21.3375 27.5368 21.3124 27.508C21.2873 27.4791 21.2678 27.4454 21.2552 27.4087C21.2425 27.372 21.2369 27.333 21.2386 27.294C21.2848 26.2469 21.9367 24.2936 24.0659 24.3724C24.1032 24.3739 24.1398 24.383 24.1737 24.3993C24.2076 24.4155 24.2381 24.4387 24.2635 24.4673C24.2889 24.4959 24.3086 24.5295 24.3216 24.5661C24.3346 24.6027 24.3406 24.6417 24.3392 24.6807C24.3378 24.7198 24.3291 24.7581 24.3136 24.7937C24.298 24.8292 24.276 24.8611 24.2487 24.8877C24.2213 24.9143 24.1893 24.935 24.1543 24.9486C24.1194 24.9622 24.0822 24.9685 24.0449 24.967C21.9432 24.8876 21.8101 27.222 21.8056 27.3216C21.8021 27.3979 21.7707 27.4698 21.718 27.5225C21.6653 27.5752 21.5952 27.6046 21.5224 27.6047Z" fill="#115B76"/>
<path d="M16.3036 19.6687C15.5935 19.668 14.9127 19.3721 14.4106 18.8462C13.9084 18.3202 13.6259 17.6071 13.625 16.8632C13.625 16.7909 13.6276 16.7193 13.6327 16.6488C13.6349 16.6094 13.6445 16.5709 13.6611 16.5354C13.6777 16.5 13.7008 16.4683 13.7292 16.4424C13.7576 16.4164 13.7906 16.3966 13.8263 16.3841C13.8621 16.3717 13.8998 16.3668 13.9374 16.3697C13.975 16.3727 14.0116 16.3835 14.0451 16.4015C14.0787 16.4194 14.1085 16.4442 14.1328 16.4744C14.1571 16.5045 14.1754 16.5395 14.1867 16.5771C14.198 16.6148 14.202 16.6544 14.1985 16.6937C14.1946 16.7496 14.1926 16.8061 14.1926 16.8632C14.1926 17.3176 14.3264 17.7611 14.5756 18.1331C14.8248 18.5051 15.1774 18.7876 15.5854 18.9422C15.9933 19.0968 16.4369 19.1159 16.8556 18.997C17.2743 18.8781 17.6479 18.627 17.9255 18.2777C17.9493 18.2477 17.9786 18.2229 18.0116 18.2047C18.0446 18.1866 18.0806 18.1754 18.1178 18.1719C18.1549 18.1683 18.1923 18.1725 18.2279 18.1841C18.2635 18.1957 18.2965 18.2145 18.3252 18.2395C18.3538 18.2645 18.3775 18.2951 18.3948 18.3297C18.4121 18.3643 18.4228 18.4021 18.4262 18.441C18.4296 18.4798 18.4256 18.519 18.4145 18.5563C18.4035 18.5936 18.3855 18.6282 18.3616 18.6582C18.1106 18.9748 17.796 19.2294 17.4403 19.4041C17.0846 19.5787 16.6965 19.6691 16.3036 19.6687Z" fill="#115B76"/>
<path d="M14.6263 21.397C14.5511 21.3978 14.4786 21.3672 14.4249 21.3119C14.3712 21.2567 14.3406 21.1814 14.3399 21.1025C14.3391 21.0237 14.3684 20.9478 14.4211 20.8915C14.4738 20.8352 14.5457 20.8032 14.6209 20.8024C15.9025 20.7763 16.2453 19.3519 16.2595 19.2913C16.2776 19.2153 16.3235 19.15 16.3873 19.1093C16.4511 19.0686 16.5276 19.0559 16.6003 19.0739C16.6729 19.092 16.7359 19.1393 16.7755 19.2056C16.8151 19.272 16.8281 19.352 16.8118 19.4283C16.6631 20.0954 16.0126 21.3673 14.632 21.397H14.6263Z" fill="#115B76"/>
<path d="M14.6822 25.7842C14.6109 25.7845 14.542 25.7566 14.4894 25.7061C14.4369 25.6555 14.4044 25.5861 14.3984 25.5116C14.3497 25.1234 14.3771 24.7288 14.4791 24.352C14.581 23.9753 14.7553 23.6243 14.9913 23.3205C15.5386 22.7134 16.2774 22.3347 17.0708 22.2544C17.1457 22.2498 17.2194 22.276 17.2761 22.3274C17.3328 22.3788 17.3681 22.4514 17.3745 22.5297C17.3772 22.5687 17.3725 22.6078 17.3608 22.6449C17.3491 22.6819 17.3305 22.7162 17.3061 22.7457C17.2818 22.7753 17.2521 22.7995 17.2187 22.817C17.1854 22.8345 17.1492 22.845 17.112 22.8478C16.4687 22.9182 15.8696 23.2234 15.4195 23.71C15.2346 23.9547 15.0989 24.236 15.0206 24.5372C14.9423 24.8383 14.9231 25.1529 14.964 25.462C14.9702 25.5405 14.9464 25.6185 14.8977 25.6786C14.8491 25.7388 14.7796 25.7762 14.7046 25.7828L14.6822 25.7842Z" fill="#115B76"/>
<path d="M16.4934 28.3581C16.4204 28.3581 16.3502 28.3288 16.2974 28.2761C16.2445 28.2234 16.2131 28.1514 16.2096 28.075C16.2048 27.9754 16.0677 25.6345 13.9703 25.7198C13.895 25.7228 13.8217 25.6942 13.7665 25.6405C13.7113 25.5869 13.6788 25.5124 13.676 25.4335C13.6732 25.3547 13.7004 25.2779 13.7517 25.2201C13.8029 25.1623 13.874 25.1282 13.9493 25.1253C16.0757 25.0441 16.7303 26.9997 16.7766 28.0468C16.7783 28.0858 16.7727 28.1248 16.76 28.1615C16.7474 28.1982 16.7279 28.232 16.7028 28.2608C16.6777 28.2897 16.6474 28.313 16.6137 28.3296C16.5799 28.3462 16.5434 28.3557 16.5062 28.3575L16.4934 28.3581Z" fill="#115B76"/>
<path d="M19.5022 27.4975H19.5005C19.4632 27.4973 19.4263 27.4894 19.392 27.4742C19.3576 27.459 19.3264 27.4369 19.3002 27.4091C19.274 27.3813 19.2533 27.3483 19.2393 27.3121C19.2252 27.276 19.2182 27.2372 19.2184 27.1981C19.2371 26.6151 19.0583 26.0439 18.7137 25.5857C18.3691 25.1274 17.8809 24.8116 17.3355 24.694C17.2616 24.6791 17.1964 24.634 17.1542 24.5687C17.112 24.5034 17.0963 24.4232 17.1106 24.3457C17.1249 24.2683 17.1679 24.2 17.2303 24.1558C17.2926 24.1116 17.3692 24.0952 17.4431 24.1101C17.4666 24.1149 19.8016 24.6155 19.786 27.202C19.7855 27.2806 19.7554 27.3557 19.7023 27.4111C19.6491 27.4664 19.5772 27.4975 19.5022 27.4975Z" fill="#115B76"/>
</svg>
