<svg width="39" height="40" viewBox="0 0 39 40" fill="none" xmlns="http://www.w3.org/2000/svg">
<rect width="39" height="40" rx="10" fill="#E7F0EF"/>
<g clip-path="url(#clip0)">
<path d="M19.8963 29.2924C20.4042 29.2924 20.816 28.8715 20.816 28.3523C20.816 27.833 20.4042 27.4121 19.8963 27.4121C19.3883 27.4121 18.9766 27.833 18.9766 28.3523C18.9766 28.8715 19.3883 29.2924 19.8963 29.2924Z" fill="#115B76"/>
<path d="M18.3823 19.0885L16.5429 17.2082C16.3631 17.0244 16.0725 17.0244 15.8927 17.2082C15.7129 17.392 15.7129 17.689 15.8927 17.8728L17.4069 19.4208L15.8927 20.9688C15.7129 21.1526 15.7129 21.4496 15.8927 21.6334C15.9823 21.7251 16.1001 21.7712 16.2178 21.7712C16.3355 21.7712 16.4532 21.7251 16.5429 21.6334L18.3823 19.7531C18.5621 19.5693 18.5621 19.2723 18.3823 19.0885Z" fill="#115B76"/>
<path d="M23.5761 20.8308H19.8973C19.6435 20.8308 19.4375 21.0414 19.4375 21.3009C19.4375 21.5604 19.6435 21.771 19.8973 21.771H23.5761C23.83 21.771 24.036 21.5604 24.036 21.3009C24.036 21.0414 23.83 20.8308 23.5761 20.8308Z" fill="#115B76"/>
<path d="M23.5744 18.0105H20.8153C20.5615 18.0105 20.3555 18.2211 20.3555 18.4806C20.3555 18.74 20.5615 18.9506 20.8153 18.9506H23.5744C23.8282 18.9506 24.0343 18.74 24.0343 18.4806C24.0343 18.2211 23.8282 18.0105 23.5744 18.0105Z" fill="#115B76"/>
<path d="M23.5752 23.6514H16.2177C15.9638 23.6514 15.7578 23.862 15.7578 24.1214C15.7578 24.3809 15.9638 24.5915 16.2177 24.5915H23.5752C23.8291 24.5915 24.0351 24.3809 24.0351 24.1214C24.0351 23.862 23.8291 23.6514 23.5752 23.6514Z" fill="#115B76"/>
<path d="M24.4944 10.4893C24.4093 10.4893 15.2992 10.4893 15.2992 10.4893C15.2992 10.4893 15.2992 10.4893 15.2988 10.4893C14.6849 10.4893 14.1078 10.7337 13.6737 11.1774C13.2396 11.6212 13 12.2121 13 12.8396V13.7788C13 13.7793 13 13.7793 13 13.7798C13 13.7802 13 13.7802 13 13.7807V29.7623C13 31.0583 14.0314 32.1127 15.2992 32.1127H24.4962C25.764 32.1127 26.7955 31.0583 26.7955 29.7623V12.8396C26.7955 11.5436 25.764 10.4893 24.4944 10.4893ZM13.9197 12.8396C13.9197 12.4631 14.0632 12.1087 14.3239 11.8426C14.5842 11.5765 14.9304 11.4294 15.2988 11.4294H19.8973C22.9571 11.4294 24.0621 11.4294 24.4958 11.3932V11.4294C25.2563 11.4294 25.8753 12.0621 25.8753 12.8396V13.3097H13.9197V12.8396ZM25.8758 29.7623C25.8758 30.5398 25.2568 31.1725 24.4962 31.1725H15.2992C14.5387 31.1725 13.9197 30.5398 13.9197 29.7623V14.2499H25.8758V29.7623Z" fill="#115B76"/>
</g>
<defs>
<clipPath id="clip0">
<rect width="21.153" height="21.6234" fill="white" transform="translate(9.32031 10.4893)"/>
</clipPath>
</defs>
</svg>
