<svg width="39" height="40" viewBox="0 0 39 40" fill="none" xmlns="http://www.w3.org/2000/svg">
<rect width="39" height="40" rx="10" fill="#FAF3D7"/>
<g clip-path="url(#clip0)">
<path d="M12.0625 13.6599C11.3376 13.6599 10.75 14.2755 10.75 15.0349V18.7016H11.625V15.0349C11.625 14.7818 11.8209 14.5766 12.0625 14.5766H22.5625V13.6599H12.0625Z" fill="#766C11"/>
<path d="M12.0625 27.4099C11.8209 27.4099 11.625 27.2047 11.625 26.9515V22.3682H10.75V26.9515C10.75 27.7109 11.3376 28.3265 12.0625 28.3265H16.4375V27.4099H12.0625Z" fill="#766C11"/>
<path d="M22.8718 28.592L12.2466 17.4609C12.0758 17.2819 11.7988 17.2819 11.628 17.4609L9.12809 20.0798C8.9573 20.2588 8.9573 20.5489 9.12809 20.7279L19.7533 31.859C19.8353 31.945 19.9466 31.9933 20.0626 31.9933C20.1786 31.9932 20.2898 31.9449 20.3719 31.859L22.8717 29.2401C23.0426 29.0611 23.0426 28.771 22.8718 28.592ZM20.0626 30.8869L10.056 20.4038L11.9373 18.433L21.9438 28.9161L20.0626 30.8869Z" fill="#766C11"/>
<path d="M28.25 27.4099H21.6875V28.3266H26.5V30.6182C26.5 30.8714 26.6959 31.0766 26.9375 31.0766H28.25C29.2165 31.0766 30 30.2558 30 29.2432C30 28.2307 29.2165 27.4099 28.25 27.4099ZM28.25 30.1599H27.375V28.3266H28.25C28.7333 28.3266 29.125 28.737 29.125 29.2432C29.125 29.7495 28.7333 30.1599 28.25 30.1599Z" fill="#766C11"/>
<path d="M28.25 13.6599H26.0625V14.5766H28.25C28.7332 14.5766 29.125 14.987 29.125 15.4932V29.2433H30V15.4932C30 14.4807 29.2165 13.6599 28.25 13.6599Z" fill="#766C11"/>
<path d="M17.004 22.9608L15.6914 24.3359L16.3101 24.9841L17.6227 23.609L17.004 22.9608Z" fill="#766C11"/>
<path d="M15.254 21.1278L13.9414 22.5029L14.5601 23.1511L15.8727 21.776L15.254 21.1278Z" fill="#766C11"/>
<path d="M18.754 24.7941L17.4414 26.1692L18.0601 26.8174L19.3727 25.4422L18.754 24.7941Z" fill="#766C11"/>
<path d="M20.504 26.6285L19.1914 28.0037L19.8101 28.6518L21.1227 27.2767L20.504 26.6285Z" fill="#766C11"/>
<path d="M13.504 19.2941L12.1914 20.6692L12.8101 21.3174L14.1227 19.9422L13.504 19.2941Z" fill="#766C11"/>
<path d="M27.8699 11.0232L27.2653 10.3898C26.7537 9.8782 25.9486 9.8782 25.437 10.3898L18.7843 17.3593C18.6136 17.5382 18.6136 17.8283 18.7843 18.0074L20.5987 19.9081C20.6805 19.9944 20.7919 20.0427 20.908 20.0424C21.024 20.0423 21.1352 19.994 21.2173 19.9081L27.8699 12.9386C27.8701 12.9384 27.8703 12.9382 27.8706 12.938C28.3751 12.4091 28.3748 11.5518 27.8699 11.0232ZM27.2517 12.2901L20.908 18.9359L19.7123 17.6833L26.0561 11.0379C26.2213 10.8725 26.4815 10.8725 26.6467 11.0379L27.2517 11.6709C27.2518 11.6709 27.2519 11.671 27.252 11.6711C27.415 11.842 27.415 12.1192 27.2517 12.2901Z" fill="#766C11"/>
<path d="M20.7689 19.1499L18.8806 19.8103L19.5111 17.8289L18.6798 17.5388L17.7724 20.3901C17.7576 20.4369 17.75 20.4858 17.75 20.535C17.75 20.7882 17.946 20.9933 18.1876 20.9933C18.2339 20.9934 18.28 20.986 18.3241 20.9713L21.0458 20.0207L20.7689 19.1499Z" fill="#766C11"/>
<path d="M24.8453 11.6573L24.2266 12.3054L26.0409 14.2062L26.6597 13.558L24.8453 11.6573Z" fill="#766C11"/>
<path d="M24.75 20.0764H18.1875V20.9931H24.75V20.0764Z" fill="#766C11"/>
<path d="M26.5 20.0764H25.625V20.9931H26.5V20.0764Z" fill="#766C11"/>
<path d="M28.25 20.0764H27.375V20.9931H28.25V20.0764Z" fill="#766C11"/>
</g>
<defs>
<clipPath id="clip0">
<rect width="21" height="22" fill="white" transform="translate(9 10)"/>
</clipPath>
</defs>
</svg>
