<svg width="85" height="86" viewBox="0 0 85 86" fill="none" xmlns="http://www.w3.org/2000/svg">
<rect y="0.647949" width="85" height="85" rx="42.5" fill="url(#paint0_linear)"/>
<path d="M42.502 30.5015C39.5197 30.5015 36.6237 31.5601 34.3475 33.4824C31.1885 36.5171 32.7832 35.4804 32.9658 35.6968C33.1485 35.9131 31.9062 37.5083 35.009 34.2658C37.1005 32.4995 39.7616 31.5269 42.502 31.5269C48.9098 31.5269 54.123 36.7401 54.123 43.1479C54.123 49.5558 48.9098 54.769 42.502 54.769C36.0941 54.769 30.8809 49.5558 30.8809 43.1479C30.8809 40.4076 31.8535 37.7465 33.6198 35.655C33.8025 35.4387 33.7752 35.1152 33.5588 34.9325C33.3425 34.7498 33.019 34.7771 32.8363 34.9934C30.9141 37.2697 29.8555 40.1658 29.8555 43.1479C29.8555 50.1212 35.5286 55.7944 42.502 55.7944C49.4753 55.7944 55.1484 50.1212 55.1484 43.1479C55.1484 36.1747 49.4753 30.5015 42.502 30.5015Z" fill="#16113D"/>
<path d="M58.617 44.9194C59.4313 44.7158 60 43.9873 60 43.1479C60 42.3086 59.4313 41.5801 58.617 41.3765L57.0381 40.9818C56.9685 40.5128 56.8759 40.0454 56.7613 39.5851L58.068 38.6169C58.7424 38.1171 58.9892 37.2265 58.6679 36.451C58.3467 35.6754 57.5423 35.22 56.7121 35.3436L55.1026 35.5831C54.8583 35.1771 54.5934 34.7812 54.3111 34.4005L55.149 33.0041C55.5808 32.2843 55.4679 31.367 54.8743 30.7735C54.2809 30.18 53.3636 30.067 52.6437 30.4989L51.2473 31.3368C50.8665 31.0545 50.4707 30.7895 50.0648 30.5453L50.3042 28.9358C50.4279 28.1055 49.9725 27.3013 49.197 26.9801C48.4216 26.6589 47.5308 26.9056 47.031 27.58L46.0629 28.8866C45.6024 28.772 45.1349 28.6793 44.6662 28.6099L44.2715 27.0311C44.068 26.2167 43.3395 25.6479 42.5 25.6479C41.6605 25.6479 40.932 26.2167 40.7285 27.0311L40.3338 28.61C39.8652 28.6794 39.3977 28.772 38.9371 28.8867L37.969 27.5801C37.4693 26.9056 36.5788 26.6588 35.803 26.9801C35.0274 27.3014 34.5721 28.1056 34.6958 28.9358L34.9352 30.5454C34.5293 30.7895 34.1335 31.0545 33.7527 31.3369L32.3562 30.499C31.6363 30.0672 30.7192 30.1801 30.1256 30.7737C29.532 31.3672 29.4191 32.2845 29.8509 33.0043L30.6888 34.4007C30.4065 34.7815 30.1415 35.1774 29.8973 35.5832L28.2879 35.3438C27.4572 35.2201 26.6532 35.6756 26.3321 36.4511C26.0108 37.2265 26.2575 38.1172 26.932 38.617L28.2386 39.5851C28.124 40.0456 28.0313 40.5131 27.9619 40.9818L26.383 41.3766C25.5688 41.5801 25 42.3086 25 43.1479C25 43.9873 25.5688 44.7158 26.383 44.9194L27.9619 45.3141C28.0314 45.7828 28.124 46.2504 28.2387 46.7108L26.932 47.6789C26.2576 48.1787 26.0108 49.0694 26.3321 49.8448C26.6533 50.6204 27.4578 51.0759 28.2879 50.9522L29.8974 50.7127C30.1417 51.1187 30.4065 51.5145 30.6889 51.8952L29.851 53.2917C29.4192 54.0114 29.5321 54.9287 30.1257 55.5222C30.7193 56.1158 31.6366 56.2287 32.3563 55.7968L33.7527 54.959C34.1336 55.2414 34.5294 55.5063 34.9353 55.7505L34.6958 57.36C34.5722 58.1903 35.0276 58.9945 35.8031 59.3158C36.5786 59.6369 37.4693 59.3903 37.9691 58.7158L38.9372 57.4092C39.3976 57.5239 39.8652 57.6165 40.3339 57.6859L40.7286 59.2648C40.932 60.0792 41.6605 60.6479 42.5 60.6479C43.3395 60.6479 44.068 60.0792 44.2715 59.2648L44.6662 57.6859C45.1348 57.6165 45.6024 57.5239 46.0629 57.4092L47.031 58.7158C47.5308 59.3903 48.4217 59.637 49.197 59.3158C49.9726 58.9945 50.4279 58.1903 50.3042 57.3601L50.0648 55.7505C50.4707 55.5063 50.8665 55.2414 51.2473 54.959L52.6438 55.7968C53.3635 56.2287 54.2808 56.1159 54.8744 55.5222C55.468 54.9287 55.5809 54.0114 55.1491 53.2916L54.3111 51.8952C54.5935 51.5145 54.8583 51.1187 55.1026 50.7127L56.7121 50.9522C57.5429 51.0756 58.3467 50.6204 58.6678 49.8449C58.9891 49.0694 58.7424 48.1787 58.068 47.6789L56.7613 46.7108C56.876 46.2505 56.9685 45.7831 57.0381 45.3141L58.617 44.9194ZM55.8723 47.3283L57.4575 48.5028C57.7532 48.722 57.8614 49.1124 57.7205 49.4525C57.5797 49.7925 57.2278 49.9924 56.863 49.938L54.9107 49.6475C54.7013 49.6166 54.4944 49.7171 54.3897 49.901C54.064 50.4731 53.6935 51.0266 53.2885 51.5461C53.1583 51.7132 53.1442 51.9434 53.2532 52.1251L54.2696 53.8192C54.4591 54.1348 54.4095 54.537 54.1492 54.7972C53.8889 55.0575 53.4869 55.107 53.1712 54.9176L51.4771 53.9012C51.2955 53.7921 51.0654 53.8062 50.8981 53.9364C50.3783 54.3416 49.8248 54.7121 49.253 55.0376C49.0691 55.1424 48.9684 55.3493 48.9995 55.5587L49.29 57.511C49.3441 57.875 49.1445 58.2276 48.8044 58.3684C48.4644 58.5093 48.0739 58.4011 47.8548 58.1054L46.6802 56.5202C46.5542 56.3501 46.3369 56.2751 46.1323 56.3311C45.4965 56.5058 44.843 56.6353 44.1901 56.7158C43.9797 56.7418 43.807 56.8945 43.7555 57.1003L43.2765 59.0161C43.1874 59.3732 42.868 59.6226 42.5 59.6226C42.132 59.6226 41.8126 59.3732 41.7234 59.0161L41.2444 57.1003C41.1929 56.8946 41.0202 56.7418 40.8097 56.7158C40.1567 56.6353 39.5033 56.5058 38.8675 56.3311C38.8225 56.3188 38.7768 56.3127 38.7316 56.3127C38.5719 56.3127 38.4179 56.3877 38.3197 56.5203L37.1451 58.1055C36.926 58.4012 36.5354 58.5093 36.1955 58.3685C35.8554 58.2277 35.6558 57.8751 35.7099 57.511L36.0004 55.5587C36.0316 55.3494 35.9309 55.1424 35.7469 55.0377C35.1751 54.7122 34.6215 54.3417 34.1018 53.9365C33.9347 53.8062 33.7045 53.7922 33.5228 53.9012L31.8288 54.9177C31.5133 55.1071 31.1111 55.0575 30.8507 54.7973C30.5904 54.537 30.5409 54.1349 30.7303 53.8193L31.7467 52.1252C31.8558 51.9434 31.8417 51.7133 31.7114 51.5462C31.3064 51.0266 30.9358 50.4731 30.6102 49.901C30.5055 49.7171 30.2982 49.6165 30.0892 49.6476L28.1369 49.9381C27.7733 49.9922 27.4203 49.7927 27.2794 49.4525C27.1385 49.1125 27.2467 48.722 27.5424 48.5029L29.1276 47.3283C29.2977 47.2023 29.3729 46.9846 29.3168 46.7805C29.142 46.1448 29.0126 45.4913 28.932 44.8383C28.9061 44.6279 28.7533 44.4551 28.5476 44.4037L26.6318 43.9248C26.2747 43.8354 26.0254 43.516 26.0254 43.1479C26.0254 42.7799 26.2747 42.4605 26.6318 42.3713L28.5476 41.8923C28.7533 41.8409 28.9061 41.6681 28.932 41.4577C29.0126 40.8047 29.142 40.1513 29.3168 39.5155C29.3729 39.3113 29.2978 39.0937 29.1276 38.9676L27.5424 37.7931C27.2468 37.5739 27.1386 37.1835 27.2794 36.8434C27.4203 36.5033 27.7725 36.3037 28.1369 36.3579L30.0892 36.6484C30.2988 36.6795 30.5055 36.5788 30.6102 36.3949C30.9358 35.823 31.3063 35.2695 31.7114 34.7497C31.8417 34.5826 31.8557 34.3525 31.7467 34.1707L30.7303 32.4767C30.5409 32.1611 30.5904 31.7589 30.8507 31.4987C31.111 31.2384 31.5131 31.189 31.8288 31.3782L33.5228 32.3947C33.7045 32.5038 33.9346 32.4898 34.1018 32.3594C34.6216 31.9542 35.1751 31.5837 35.747 31.2581C35.9309 31.1535 36.0316 30.9465 36.0004 30.7372L35.7099 28.7849C35.6558 28.4209 35.8554 28.0683 36.1955 27.9275C36.5356 27.7866 36.926 27.8947 37.1451 28.1905L38.3197 29.7757C38.4457 29.9458 38.6633 30.0208 38.8675 29.9648C39.5035 29.79 40.157 29.6606 40.8098 29.5802C41.0202 29.5542 41.193 29.4014 41.2444 29.1957L41.7234 27.2798C41.8126 26.9227 42.132 26.6733 42.5 26.6733C42.868 26.6733 43.1874 26.9227 43.2766 27.2798L43.7556 29.1956C43.8071 29.4013 43.9798 29.5541 44.1903 29.5801C44.8431 29.6606 45.4965 29.79 46.1325 29.9648C46.3367 30.0208 46.5543 29.9458 46.6804 29.7756L47.8549 28.1904C48.074 27.8948 48.4646 27.7866 48.8046 27.9274C49.1447 28.0682 49.3443 28.4208 49.2901 28.7849L48.9997 30.7372C48.9685 30.9465 49.0692 31.1535 49.2531 31.2581C49.825 31.5837 50.3786 31.9542 50.8982 32.3594C51.0653 32.4897 51.2954 32.5037 51.4772 32.3947L53.1713 31.3782C53.4869 31.189 53.8891 31.2384 54.1493 31.4987C54.4096 31.7589 54.4591 32.1611 54.2698 32.4767L53.2533 34.1708C53.1443 34.3526 53.1583 34.5827 53.2887 34.7498C53.6936 35.2693 54.0642 35.8228 54.3899 36.395C54.4945 36.5789 54.7018 36.6794 54.9109 36.6485L56.8632 36.3579C57.2265 36.3035 57.5798 36.5033 57.7207 36.8435C57.8616 37.1835 57.7534 37.574 57.4576 37.7931L55.8725 38.9676C55.7024 39.0937 55.6272 39.3113 55.6833 39.5155C55.858 40.1509 55.9874 40.8044 56.068 41.4578C56.094 41.6682 56.2468 41.841 56.4525 41.8924L58.3683 42.3713C58.7253 42.4605 58.9746 42.7799 58.9746 43.1479C58.9746 43.516 58.7253 43.8354 58.3682 43.9246L56.4524 44.4036C56.2467 44.455 56.0939 44.6277 56.068 44.8381C55.9873 45.4916 55.8579 46.145 55.6832 46.7804C55.6271 46.9846 55.7022 47.2023 55.8723 47.3283Z" fill="#16113D"/>
<path d="M39.9375 43.1479C39.9375 44.5615 41.0874 45.7114 42.501 45.7114C43.9145 45.7114 45.0645 44.5615 45.0645 43.1479C45.0645 41.7344 43.9145 40.5845 42.501 40.5845C41.0874 40.5845 39.9375 41.7344 39.9375 43.1479ZM44.0391 43.1479C44.0391 43.9961 43.349 44.686 42.501 44.686C41.6529 44.686 40.9629 43.9961 40.9629 43.1479C40.9629 42.2998 41.6529 41.6099 42.501 41.6099C43.349 41.6099 44.0391 42.2998 44.0391 43.1479Z" fill="#16113D"/>
<path d="M41.3644 35.2064C40.972 34.9155 40.4801 34.8296 40.015 34.9709C37.2819 35.801 35.1545 37.9283 34.3244 40.6614C34.1831 41.1266 34.2689 41.6184 34.5598 42.0109C34.8541 42.4078 35.3059 42.6355 35.7994 42.6355H38.5294C38.7633 42.6355 38.9675 42.4772 39.0259 42.2506C39.3515 40.9858 40.3394 39.9979 41.6041 39.6724C41.8306 39.6141 41.989 39.4098 41.989 39.1759V36.446C41.989 35.9525 41.7613 35.5006 41.3644 35.2064ZM40.9636 38.7965C39.6491 39.26 38.6135 40.2955 38.15 41.6101H35.7994C35.634 41.6101 35.4824 41.5336 35.3835 41.4002C35.288 41.2714 35.2596 41.1107 35.3055 40.9595C36.036 38.5544 37.9079 36.6825 40.3129 35.9521C40.3604 35.9376 40.4087 35.9306 40.4568 35.9306C40.5618 35.9306 40.6653 35.9646 40.7537 36.0301C40.887 36.129 40.9635 36.2806 40.9635 36.446V38.7965H40.9636Z" fill="#16113D"/>
<path d="M50.6763 40.6615C49.8461 37.9283 47.7188 35.801 44.9857 34.9709C44.5204 34.8296 44.0287 34.9154 43.6362 35.2064C43.2394 35.5006 43.0117 35.9525 43.0117 36.4459V39.1758C43.0117 39.4097 43.17 39.614 43.3967 39.6723C44.6614 39.9978 45.6493 40.9858 45.9748 42.2505C46.0332 42.4771 46.2375 42.6354 46.4714 42.6354H49.2013C49.6949 42.6354 50.1467 42.4078 50.4409 42.0108C50.7318 41.6185 50.8175 41.1266 50.6763 40.6615ZM49.6171 41.4002C49.5183 41.5336 49.3667 41.6101 49.2013 41.6101H46.8507C46.3872 40.2955 45.3516 39.26 44.0371 38.7965V36.4459C44.0371 36.2805 44.1136 36.129 44.2469 36.0301C44.3758 35.9345 44.5364 35.9062 44.6877 35.952C47.0927 36.6825 48.9646 38.5544 49.6951 40.9595C49.7411 41.1107 49.7126 41.2714 49.6171 41.4002Z" fill="#16113D"/>
<path d="M34.3244 45.6347C35.1546 48.3678 37.2819 50.4951 40.015 51.3252C40.1619 51.3699 40.3115 51.3918 40.4598 51.3918C40.781 51.3918 41.0961 51.2888 41.3644 51.0897C41.7613 50.7955 41.989 50.3437 41.989 49.8502V47.1202C41.989 46.8863 41.8307 46.6821 41.604 46.6238C40.3393 46.2982 39.3514 45.3103 39.0259 44.0455C38.9675 43.819 38.7632 43.6606 38.5293 43.6606H35.7994C35.3058 43.6606 34.854 43.8883 34.5598 44.2852C34.2689 44.6776 34.1832 45.1695 34.3244 45.6347ZM35.3836 44.8959C35.4824 44.7625 35.634 44.686 35.7995 44.686H38.15C38.6135 46.0006 39.6491 47.036 40.9636 47.4996V49.8502C40.9636 50.0156 40.8871 50.1672 40.7538 50.266C40.6249 50.3616 40.4642 50.3899 40.313 50.3441C37.908 49.6136 36.0361 47.7417 35.3056 45.3366C35.2596 45.1854 35.2881 45.0248 35.3836 44.8959Z" fill="#16113D"/>
<path d="M49.2052 43.6606H46.4753C46.2414 43.6606 46.0371 43.819 45.9787 44.0455C45.6532 45.3103 44.6653 46.2982 43.4006 46.6238C43.174 46.6821 43.0156 46.8863 43.0156 47.1202V49.8502C43.0156 50.3437 43.2433 50.7955 43.6402 51.0897C43.9087 51.2888 44.2236 51.3918 44.5448 51.3918C44.693 51.3918 44.8427 51.3699 44.9896 51.3252C47.7227 50.4951 49.8501 48.3678 50.6802 45.6347C50.8215 45.1695 50.7358 44.6777 50.4448 44.2852C50.1506 43.8883 49.6988 43.6606 49.2052 43.6606ZM49.6991 45.3367C48.9687 47.7417 47.0968 49.6137 44.6917 50.3441C44.5405 50.39 44.3798 50.3616 44.251 50.266C44.1177 50.1672 44.0412 50.0155 44.0412 49.8502V47.4996C45.3556 47.0361 46.3912 46.0006 46.8548 44.686H49.2053C49.3707 44.686 49.5224 44.7625 49.6212 44.8959C49.7166 45.0248 49.7451 45.1854 49.6991 45.3367Z" fill="#16113D"/>
<defs>
<linearGradient id="paint0_linear" x1="107" y1="90.6479" x2="13" y2="-4.85205" gradientUnits="userSpaceOnUse">
<stop offset="0.0677083" stop-color="#F7CDFC"/>
<stop offset="1" stop-color="#C285EF"/>
</linearGradient>
</defs>
</svg>
