<svg width="85" height="86" viewBox="0 0 85 86" fill="none" xmlns="http://www.w3.org/2000/svg">
<rect y="0.524902" width="85" height="85" rx="42.5" fill="url(#paint0_linear)"/>
<g clip-path="url(#clip0)">
<path d="M45.6465 56.4624H39.3574C39.2305 56.4625 39.1089 56.5129 39.0191 56.6026C38.9294 56.6924 38.879 56.814 38.8789 56.9409V58.8583C38.8788 58.9212 38.8912 58.9835 38.9152 59.0416C38.9392 59.0997 38.9744 59.1526 39.0189 59.1971C39.0633 59.2416 39.1161 59.2769 39.1742 59.301C39.2322 59.3251 39.2945 59.3376 39.3574 59.3376H45.6465C45.7734 59.3376 45.8951 59.2872 45.9849 59.1974C46.0746 59.1077 46.125 58.986 46.125 58.8591V56.9417C46.1251 56.8788 46.1128 56.8165 46.0888 56.7584C46.0648 56.7002 46.0296 56.6474 45.9852 56.6028C45.9407 56.5583 45.8879 56.523 45.8298 56.4989C45.7717 56.4748 45.7094 56.4624 45.6465 56.4624ZM45.168 58.3806H39.8359V57.4203H45.168V58.3806Z" fill="#FF9147"/>
<path d="M51.8652 28.7124H33.1348C33.008 28.7125 32.8865 28.7628 32.7968 28.8523C32.7071 28.9419 32.6565 29.0634 32.6562 29.1901V54.7532C32.6563 54.8801 32.7068 55.0018 32.7965 55.0915C32.8862 55.1812 33.0079 55.2317 33.1348 55.2317H51.8652C51.9921 55.2317 52.1139 55.1813 52.2036 55.0916C52.2933 55.0018 52.3438 54.8801 52.3438 54.7532V29.1901C52.3435 29.0633 52.293 28.9418 52.2033 28.8523C52.1136 28.7627 51.992 28.7124 51.8652 28.7124ZM47.4492 29.6694L46.9611 31.0716H38.2776L37.6271 29.6694H47.4492ZM51.3867 54.2755H33.6133V29.6694H36.5719L37.5379 31.7517C37.5764 31.8344 37.6377 31.9044 37.7146 31.9535C37.7916 32.0026 37.8809 32.0287 37.9721 32.0287H47.3016C47.4009 32.0287 47.4979 31.9978 47.5789 31.9402C47.6599 31.8826 47.7209 31.8012 47.7536 31.7074L48.4626 29.6694H51.3867V54.2755Z" fill="#FF9147"/>
<path d="M52.4121 26.5249H32.5879C32.0262 26.5256 31.4877 26.7489 31.0904 27.146C30.6932 27.5431 30.4696 28.0815 30.4688 28.6432V59.4049C30.4692 59.9669 30.6926 60.5058 31.0899 60.9032C31.4872 61.3007 32.0259 61.5243 32.5879 61.5249H52.4121C52.9739 61.5243 53.5126 61.3008 53.9098 60.9035C54.3071 60.5062 54.5306 59.9676 54.5312 59.4058V28.6432C54.5304 28.0815 54.3068 27.5431 53.9096 27.146C53.5123 26.7489 52.9738 26.5256 52.4121 26.5249V26.5249ZM53.5742 59.4058C53.5739 59.7139 53.4513 60.0092 53.2334 60.2271C53.0156 60.445 52.7202 60.5675 52.4121 60.5679H32.5879C32.2798 60.5675 31.9844 60.445 31.7666 60.2271C31.5487 60.0092 31.4261 59.7139 31.4258 59.4058V28.6432C31.4264 28.3353 31.549 28.0401 31.7668 27.8224C31.9847 27.6047 32.2799 27.4823 32.5879 27.4819H52.4121C52.7202 27.4823 53.0156 27.6048 53.2334 27.8227C53.4513 28.0406 53.5739 28.3359 53.5742 28.644V59.4058Z" fill="#FF9147"/>
<path d="M47.3485 39.4779H46.8957V37.7006C46.8956 37.6298 46.8799 37.5599 46.8496 37.496C46.8193 37.432 46.7752 37.3756 46.7204 37.3307C46.6657 37.2858 46.6017 37.2536 46.5331 37.2365C46.4644 37.2193 46.3928 37.2176 46.3234 37.2314L36.6163 39.1681C36.5078 39.1898 36.4101 39.2485 36.3399 39.3341C36.2697 39.4197 36.2313 39.5269 36.2313 39.6376V43.5568C36.2316 43.6674 36.2701 43.7744 36.3403 43.8598C36.4106 43.9452 36.5082 44.0036 36.6166 44.0252L37.8031 44.262L36.1548 46.805C36.1081 46.8772 36.0817 46.9607 36.0785 47.0466C36.0752 47.1326 36.0952 47.2179 36.1363 47.2934C36.1774 47.369 36.2381 47.4321 36.3121 47.476C36.386 47.52 36.4704 47.5432 36.5565 47.5432H39.0343C39.1151 47.5432 39.1945 47.5228 39.2652 47.4839C39.3359 47.4449 39.3956 47.3886 39.4388 47.3204L40.9727 44.8942L46.3234 45.9606C46.3927 45.9739 46.4641 45.9717 46.5326 45.9543C46.601 45.9369 46.6648 45.9047 46.7194 45.8599C46.774 45.8152 46.8181 45.759 46.8485 45.6953C46.879 45.6316 46.8951 45.562 46.8957 45.4914V43.714H47.3485C47.7653 43.7136 48.165 43.5478 48.4598 43.253C48.7545 42.9583 48.9203 42.5586 48.9207 42.1418V41.048C48.9197 40.6316 48.7536 40.2325 48.4589 39.9382C48.1642 39.644 47.7649 39.4785 47.3485 39.4779ZM37.1886 40.03L42.589 38.9524V44.2418L37.1886 43.1641V40.03ZM38.7707 46.5873H37.4366L38.8129 44.4643L39.9676 44.6946L38.7707 46.5873ZM45.9386 44.91L43.5461 44.4326V38.7615L45.9386 38.283V44.91ZM47.9637 42.144C47.9636 42.3071 47.8987 42.4635 47.7834 42.5788C47.668 42.6942 47.5116 42.759 47.3485 42.7592H46.8957V40.435H47.3485C47.5116 40.4351 47.668 40.5 47.7834 40.6153C47.8987 40.7307 47.9636 40.8871 47.9637 41.0502V42.144Z" fill="#FF9147"/>
</g>
<defs>
<linearGradient id="paint0_linear" x1="4.15735e-07" y1="-4.88232" x2="92" y2="108.118" gradientUnits="userSpaceOnUse">
<stop stop-color="#FFC58B"/>
<stop offset="1" stop-color="#FFC58B" stop-opacity="0"/>
</linearGradient>
<clipPath id="clip0">
<rect width="35" height="35" fill="white" transform="translate(25 26.5249)"/>
</clipPath>
</defs>
</svg>
