<svg width="85" height="86" viewBox="0 0 85 86" fill="none" xmlns="http://www.w3.org/2000/svg">
<rect y="0.524902" width="85" height="85" rx="42.5" fill="url(#paint0_linear)"/>
<path d="M52.8094 35.2127C52.7225 35.2127 52.6372 35.1887 52.563 35.1433C52.4888 35.0979 52.4285 35.033 52.3888 34.9556C52.3491 34.8782 52.3315 34.7914 52.338 34.7047C52.3444 34.6179 52.3747 34.5347 52.4254 34.464C52.7132 34.0619 52.8668 33.5793 52.8643 33.0848C52.8634 32.5124 52.6586 31.9591 52.2867 31.524C51.9147 31.089 51.3999 30.8007 50.8346 30.7109C50.2693 30.6211 49.6905 30.7356 49.202 31.034C48.7135 31.3323 48.3473 31.795 48.1691 32.3389C48.128 32.4556 48.0429 32.5515 47.932 32.6062C47.8211 32.6608 47.6931 32.6698 47.5756 32.6313C47.4581 32.5928 47.3603 32.5098 47.3033 32.4C47.2463 32.2903 47.2345 32.1626 47.2705 32.0443C47.5186 31.2863 48.0288 30.6416 48.7095 30.2259C49.3901 29.8102 50.1966 29.6507 50.9842 29.776C51.7719 29.9013 52.4891 30.3033 53.0071 30.9097C53.5251 31.5161 53.81 32.2873 53.8107 33.0848C53.814 33.777 53.5989 34.4527 53.1959 35.0155C53.1518 35.0768 53.0938 35.1267 53.0266 35.161C52.9594 35.1953 52.8849 35.2131 52.8094 35.2127Z" fill="#115B76"/>
<path d="M56.498 40.6808C56.4202 40.6808 56.3437 40.6616 56.2751 40.6249C56.2066 40.5883 56.1481 40.5353 56.1049 40.4707C56.0617 40.4061 56.0351 40.3318 56.0274 40.2544C56.0197 40.177 56.0313 40.099 56.061 40.0271C56.2263 39.6207 56.3099 39.1856 56.3069 38.7468C56.3123 38.2795 56.225 37.8158 56.0499 37.3826C55.8748 36.9493 55.6155 36.5551 55.287 36.2228C54.9585 35.8905 54.5673 35.6266 54.1361 35.4465C53.7049 35.2665 53.2423 35.1738 52.775 35.1738C52.3077 35.1738 51.845 35.2665 51.4138 35.4465C50.9826 35.6266 50.5915 35.8905 50.263 36.2228C49.9345 36.5551 49.6752 36.9493 49.5001 37.3826C49.325 37.8158 49.2376 38.2795 49.2431 38.7468C49.2431 38.8722 49.1932 38.9925 49.1045 39.0812C49.0158 39.1699 48.8955 39.2198 48.7701 39.2198C48.6446 39.2198 48.5243 39.1699 48.4356 39.0812C48.3469 38.9925 48.2971 38.8722 48.2971 38.7468C48.291 38.1549 48.4024 37.5676 48.6247 37.019C48.847 36.4704 49.1758 35.9713 49.5923 35.5506C50.0087 35.1299 50.5044 34.7959 51.0507 34.5679C51.597 34.34 52.183 34.2227 52.775 34.2227C53.3669 34.2227 53.953 34.34 54.4993 34.5679C55.0456 34.7959 55.5413 35.1299 55.9577 35.5506C56.3741 35.9713 56.703 36.4704 56.9253 37.019C57.1476 37.5676 57.2589 38.1549 57.2529 38.7468C57.2562 39.3102 57.1483 39.8687 56.9355 40.3904C56.8994 40.4766 56.8386 40.5502 56.7607 40.6019C56.6829 40.6535 56.5914 40.681 56.498 40.6808Z" fill="#115B76"/>
<path d="M54.0769 47.8695C53.9232 47.8695 53.7709 47.8615 53.621 47.8468C53.5592 47.8406 53.4992 47.8223 53.4445 47.7929C53.3898 47.7635 53.3414 47.7236 53.3021 47.6755C53.2628 47.6274 53.2333 47.5721 53.2154 47.5126C53.1975 47.4531 53.1915 47.3907 53.1977 47.3289C53.2039 47.2671 53.2222 47.2071 53.2516 47.1524C53.281 47.0977 53.3209 47.0493 53.369 47.01C53.4171 46.9707 53.4724 46.9412 53.5319 46.9233C53.5914 46.9054 53.6538 46.8994 53.7156 46.9056C53.8338 46.9173 53.9538 46.9233 54.0755 46.9236C54.8145 46.9244 55.5351 46.6931 56.1356 46.2624C56.7361 45.8317 57.1862 45.2234 57.4225 44.5232C57.6587 43.8229 57.6692 43.0662 57.4523 42.3598C57.2354 41.6533 56.8022 41.0328 56.2138 40.5857C56.1135 40.5105 56.0471 40.3984 56.0294 40.2742C56.0117 40.1501 56.044 40.0239 56.1192 39.9236C56.1945 39.8232 56.3065 39.7569 56.4307 39.7391C56.5549 39.7214 56.681 39.7537 56.7814 39.829C57.5269 40.3961 58.0758 41.1828 58.3508 42.0782C58.6257 42.9737 58.6129 43.9328 58.314 44.8206C58.0152 45.7084 57.4455 46.4801 56.685 47.027C55.9246 47.574 55.0118 47.8686 54.075 47.8695H54.0769Z" fill="#115B76"/>
<path d="M52.3403 57.7869C52.2214 57.787 52.1069 57.7423 52.0196 57.6617C51.9322 57.5811 51.8783 57.4706 51.8687 57.3522C51.8591 57.2337 51.8945 57.116 51.9678 57.0224C52.041 56.9288 52.1468 56.8662 52.2641 56.8471C53.0894 56.7136 53.8399 56.2899 54.3806 55.6522C54.9212 55.0146 55.2164 54.2049 55.2131 53.3689C55.2132 53.0225 55.1632 52.6779 55.0646 52.3458C55.047 52.2863 55.0413 52.2238 55.0478 52.1621C55.0544 52.1003 55.073 52.0404 55.1027 51.9858C55.1323 51.9313 55.1725 51.8831 55.2207 51.844C55.269 51.805 55.3245 51.7758 55.3841 51.7582C55.4437 51.7406 55.5061 51.7349 55.5679 51.7414C55.6297 51.7479 55.6895 51.7665 55.7441 51.7962C55.7987 51.8259 55.8469 51.866 55.8859 51.9143C55.925 51.9626 55.9542 52.0181 55.9718 52.0777C56.0966 52.4967 56.1603 52.9316 56.161 53.3689C56.165 54.4294 55.7903 55.4565 55.1043 56.2654C54.4184 57.0742 53.4662 57.6116 52.4193 57.7808C52.3931 57.7848 52.3667 57.7868 52.3403 57.7869Z" fill="#115B76"/>
<path d="M55.5163 52.6846C55.4081 52.6847 55.3031 52.6477 55.2189 52.5797C55.1346 52.5117 55.0763 52.4169 55.0535 52.311C55.0308 52.2052 55.045 52.0948 55.0939 51.9982C55.1427 51.9016 55.2232 51.8247 55.3219 51.7803C55.9391 51.5011 56.4627 51.05 56.8301 50.4809C57.1975 49.9119 57.3931 49.249 57.3935 48.5716C57.3967 47.7838 57.1322 47.0182 56.6434 46.4002C56.569 46.3014 56.5362 46.1774 56.5521 46.0547C56.568 45.932 56.6313 45.8205 56.7285 45.7439C56.8257 45.6674 56.949 45.632 57.072 45.6453C57.195 45.6586 57.3079 45.7196 57.3865 45.8152C57.8048 46.3479 58.0964 46.9689 58.2392 47.6311C58.382 48.2932 58.3723 48.9792 58.2108 49.637C58.0493 50.2948 57.7402 50.9073 57.307 51.428C56.8737 51.9487 56.3277 52.3641 55.7102 52.6425C55.6493 52.6701 55.5832 52.6845 55.5163 52.6846Z" fill="#115B76"/>
<path d="M48.1263 60.5039C46.7744 60.5024 45.4783 59.9647 44.5223 59.0087C43.5664 58.0528 43.0287 56.7567 43.0272 55.4048V30.393C43.0061 29.9699 43.0747 29.547 43.2285 29.1523C43.3823 28.7575 43.6178 28.3997 43.9197 28.1024C44.2524 27.8048 44.6515 27.5911 45.0836 27.4792C45.5157 27.3672 45.9683 27.3602 46.4037 27.4587C48.498 27.9547 50.4626 28.891 52.1669 30.2052C52.2647 30.2839 52.3273 30.3983 52.3408 30.5232C52.3544 30.648 52.3177 30.7731 52.239 30.8709C52.1603 30.9688 52.0459 31.0314 51.9211 31.0449C51.7963 31.0584 51.6712 31.0218 51.5733 30.9431C49.9838 29.7285 48.159 28.8576 46.215 28.3857C45.9279 28.3174 45.6287 28.3185 45.3422 28.3891C45.0557 28.4597 44.7901 28.5977 44.5676 28.7915C44.3619 29.002 44.2027 29.2532 44.1003 29.5291C43.9979 29.805 43.9546 30.0993 43.9731 30.393V55.4048C43.9735 56.3538 44.2988 57.2741 44.895 58.0126C45.4912 58.751 46.3222 59.2631 47.2499 59.4635C48.1775 59.664 49.1458 59.5407 49.9937 59.1143C50.8416 58.6879 51.5179 57.984 51.9101 57.1198C51.9619 57.0055 52.0571 56.9165 52.1746 56.8724C52.292 56.8282 52.4222 56.8326 52.5365 56.8845C52.6508 56.9363 52.7398 57.0315 52.7839 57.1489C52.828 57.2664 52.8237 57.3966 52.7718 57.5109C52.3656 58.4024 51.7118 59.1584 50.8882 59.689C50.0646 60.2196 49.106 60.5025 48.1263 60.5039Z" fill="#115B76"/>
<path d="M34.1869 35.2127C34.1118 35.2128 34.0377 35.1949 33.9708 35.1606C33.904 35.1263 33.8462 35.0766 33.8024 35.0155C33.3994 34.4527 33.1842 33.777 33.1875 33.0848C33.1882 32.2873 33.4732 31.5161 33.9912 30.9097C34.5092 30.3033 35.2264 29.9013 36.014 29.776C36.8017 29.6507 37.6082 29.8102 38.2888 30.2259C38.9695 30.6416 39.4796 31.2863 39.7278 32.0443C39.7487 32.1037 39.7576 32.1667 39.7538 32.2295C39.7501 32.2924 39.7338 32.3539 39.706 32.4103C39.6781 32.4668 39.6393 32.5172 39.5918 32.5585C39.5442 32.5998 39.4889 32.6311 39.429 32.6508C39.3692 32.6704 39.3061 32.6779 39.2433 32.6727C39.1805 32.6676 39.1194 32.65 39.0635 32.621C39.0077 32.5919 38.9582 32.552 38.9179 32.5036C38.8777 32.4552 38.8475 32.3992 38.8292 32.3389C38.6515 31.7943 38.2854 31.3309 37.7967 31.0319C37.3079 30.733 36.7286 30.6181 36.1628 30.708C35.597 30.7978 35.0818 31.0865 34.7097 31.5222C34.3377 31.9579 34.1332 32.5119 34.133 33.0848C34.1305 33.5793 34.2841 34.0619 34.5719 34.464C34.6226 34.5347 34.6529 34.6179 34.6593 34.7047C34.6658 34.7914 34.6482 34.8782 34.6085 34.9556C34.5688 35.033 34.5085 35.0979 34.4343 35.1433C34.3601 35.1887 34.2748 35.2127 34.1879 35.2127H34.1869Z" fill="#115B76"/>
<path d="M30.5051 40.6808C30.4114 40.6809 30.3198 40.6531 30.242 40.6011C30.1641 40.549 30.1034 40.475 30.0676 40.3885C29.855 39.8674 29.7472 39.3095 29.7502 38.7468C29.7442 38.1549 29.8555 37.5676 30.0778 37.019C30.3001 36.4704 30.629 35.9713 31.0454 35.5506C31.4618 35.1299 31.9575 34.7959 32.5038 34.5679C33.0501 34.34 33.6362 34.2227 34.2281 34.2227C34.8201 34.2227 35.4061 34.34 35.9524 34.5679C36.4987 34.7959 36.9944 35.1299 37.4108 35.5506C37.8273 35.9713 38.1561 36.4704 38.3784 37.019C38.6007 37.5676 38.7121 38.1549 38.706 38.7468C38.706 38.8722 38.6561 38.9925 38.5675 39.0812C38.4788 39.1699 38.3584 39.2198 38.233 39.2198C38.1076 39.2198 37.9873 39.1699 37.8986 39.0812C37.8099 38.9925 37.76 38.8722 37.76 38.7468C37.7654 38.2795 37.6781 37.8158 37.503 37.3826C37.3279 36.9493 37.0686 36.5551 36.7401 36.2228C36.4116 35.8905 36.0204 35.6266 35.5892 35.4465C35.158 35.2665 34.6954 35.1738 34.2281 35.1738C33.7608 35.1738 33.2982 35.2665 32.867 35.4465C32.4358 35.6266 32.0446 35.8905 31.7161 36.2228C31.3876 36.5551 31.1283 36.9493 30.9532 37.3826C30.7781 37.8158 30.6908 38.2795 30.6962 38.7468C30.693 39.1862 30.7765 39.622 30.9421 40.029C30.9894 40.1447 30.989 40.2744 30.941 40.3898C30.893 40.5052 30.8012 40.5969 30.6858 40.6448C30.6284 40.6684 30.5671 40.6806 30.5051 40.6808Z" fill="#115B76"/>
<path d="M32.9209 47.8695C31.9832 47.8707 31.0688 47.5772 30.3069 47.0305C29.5451 46.4838 28.9743 45.7115 28.6751 44.8228C28.376 43.9341 28.3637 42.9739 28.6399 42.0778C28.9161 41.1817 29.4669 40.395 30.2145 39.829C30.3149 39.7537 30.441 39.7214 30.5652 39.7391C30.6894 39.7569 30.8014 39.8232 30.8767 39.9236C30.9519 40.0239 30.9843 40.1501 30.9665 40.2742C30.9488 40.3984 30.8824 40.5105 30.7821 40.5857C30.1954 41.0337 29.7638 41.6542 29.5481 42.3601C29.3323 43.066 29.3432 43.8218 29.5791 44.5212C29.8151 45.2206 30.2643 45.8285 30.8636 46.2594C31.463 46.6903 32.1822 46.9226 32.9204 46.9236C33.0421 46.9236 33.1621 46.9176 33.2803 46.9056C33.3421 46.8994 33.4045 46.9054 33.464 46.9233C33.5235 46.9412 33.5788 46.9707 33.6269 47.01C33.675 47.0493 33.7149 47.0977 33.7443 47.1524C33.7737 47.2071 33.792 47.2671 33.7982 47.3289C33.8044 47.3907 33.7984 47.4531 33.7805 47.5126C33.7626 47.5721 33.7331 47.6274 33.6938 47.6755C33.6545 47.7236 33.6061 47.7635 33.5514 47.7929C33.4967 47.8223 33.4367 47.8406 33.3749 47.8468C33.2269 47.8615 33.0746 47.8695 32.9209 47.8695Z" fill="#115B76"/>
<path d="M34.6626 57.7869C34.6368 57.7867 34.611 57.7847 34.5855 57.7808C33.5385 57.6116 32.5864 57.0742 31.9004 56.2654C31.2145 55.4565 30.8398 54.4294 30.8438 53.3689C30.8444 52.9316 30.9082 52.4967 31.033 52.0777C31.0506 52.0181 31.0797 51.9626 31.1188 51.9143C31.1579 51.866 31.2061 51.8259 31.2606 51.7962C31.3152 51.7665 31.3751 51.7479 31.4369 51.7414C31.4986 51.7349 31.5611 51.7406 31.6206 51.7582C31.6802 51.7758 31.7357 51.805 31.784 51.844C31.8323 51.8831 31.8724 51.9313 31.9021 51.9858C31.9318 52.0404 31.9504 52.1003 31.9569 52.1621C31.9634 52.2238 31.9577 52.2863 31.9401 52.3458C31.8416 52.6779 31.7916 53.0225 31.7916 53.3689C31.7883 54.2049 32.0836 55.0146 32.6242 55.6522C33.1648 56.2899 33.9153 56.7136 34.7406 56.8471C34.8579 56.8662 34.9637 56.9288 35.037 57.0224C35.1103 57.116 35.1456 57.2337 35.136 57.3522C35.1264 57.4706 35.0726 57.5811 34.9852 57.6617C34.8978 57.7423 34.7833 57.787 34.6645 57.7869H34.6626Z" fill="#115B76"/>
<path d="M31.4848 52.6847C31.4179 52.6846 31.3518 52.6702 31.2909 52.6426C30.6732 52.3643 30.127 51.9491 29.6936 51.4285C29.2602 50.9079 28.9509 50.2954 28.7892 49.6376C28.6275 48.9797 28.6176 48.2937 28.7603 47.6315C28.903 46.9692 29.1945 46.3482 29.6128 45.8153C29.6506 45.765 29.6982 45.7228 29.7526 45.6911C29.807 45.6595 29.8672 45.639 29.9296 45.6309C29.9921 45.6228 30.0555 45.6272 30.1162 45.644C30.1769 45.6607 30.2336 45.6894 30.2831 45.7283C30.3325 45.7673 30.3737 45.8157 30.4042 45.8708C30.4347 45.9258 30.4539 45.9864 30.4607 46.049C30.4675 46.1116 30.4617 46.1749 30.4437 46.2353C30.4257 46.2956 30.3958 46.3517 30.3558 46.4003C29.867 47.0183 29.6026 47.7839 29.6057 48.5717C29.6061 49.2491 29.8017 49.912 30.1691 50.481C30.5365 51.0501 31.0601 51.5012 31.6773 51.7804C31.776 51.8248 31.8565 51.9017 31.9053 51.9983C31.9542 52.0949 31.9684 52.2053 31.9457 52.3111C31.9229 52.417 31.8646 52.5118 31.7804 52.5798C31.6961 52.6478 31.5911 52.6848 31.4829 52.6847H31.4848Z" fill="#115B76"/>
<path d="M38.8778 60.5038C37.8984 60.5021 36.94 60.2192 36.1167 59.6886C35.2934 59.158 34.6399 58.4021 34.2337 57.5109C34.1818 57.3966 34.1775 57.2664 34.2216 57.1489C34.2658 57.0314 34.3547 56.9363 34.469 56.8844C34.5833 56.8325 34.7135 56.8282 34.831 56.8723C34.9485 56.9165 35.0436 57.0054 35.0955 57.1197C35.4881 57.9831 36.1645 58.6862 37.012 59.112C37.8596 59.5378 38.8273 59.6607 39.7544 59.4603C40.6815 59.26 41.5121 58.7484 42.1082 58.0106C42.7043 57.2728 43.0299 56.3532 43.031 55.4047V30.393C43.0496 30.0993 43.0063 29.805 42.9038 29.5291C42.8014 29.2532 42.6422 29.0019 42.4365 28.7915C42.2141 28.5976 41.9487 28.4596 41.6622 28.389C41.3758 28.3184 41.0766 28.3173 40.7896 28.3857C38.8453 28.8554 37.0202 29.7252 35.4308 30.9397C35.3327 31.0101 35.2114 31.0403 35.0917 31.0241C34.9721 31.0079 34.8631 30.9466 34.7873 30.8527C34.7114 30.7588 34.6743 30.6394 34.6836 30.519C34.6928 30.3986 34.7478 30.2863 34.8372 30.2052C36.5417 28.8909 38.5065 27.9546 40.6009 27.4586C41.0362 27.3602 41.4887 27.3672 41.9208 27.4792C42.3528 27.5912 42.7518 27.8048 43.0845 28.1024C43.3863 28.3997 43.6218 28.7575 43.7757 29.1522C43.9295 29.547 43.9981 29.9698 43.977 30.393V55.4047C43.9755 56.7566 43.4378 58.0527 42.4818 59.0087C41.5259 59.9646 40.2298 60.5023 38.8778 60.5038Z" fill="#115B76"/>
<path d="M43.4962 37.3114C43.4529 37.3114 43.4097 37.3054 43.368 37.2934C43.3082 37.2766 43.2524 37.2481 43.2036 37.2096C43.1548 37.1712 43.1141 37.1235 43.0837 37.0693C43.0534 37.0151 43.034 36.9554 43.0267 36.8938C43.0194 36.8321 43.0243 36.7696 43.0412 36.7098C43.29 35.8263 44.2388 34.203 46.0299 34.3818C46.1547 34.3943 46.2695 34.456 46.3488 34.5531C46.4282 34.6502 46.4658 34.7749 46.4532 34.8997C46.4407 35.0245 46.3791 35.1392 46.282 35.2186C46.1848 35.298 46.0601 35.3356 45.9353 35.323C44.4767 35.1811 43.9559 36.9486 43.9488 36.9666C43.921 37.0654 43.8618 37.1525 43.7802 37.2147C43.6985 37.2769 43.5989 37.3108 43.4962 37.3114Z" fill="#115B76"/>
<path d="M43.5006 39.659C43.3978 39.6589 43.2978 39.6253 43.2158 39.5634C43.1338 39.5014 43.0742 39.4144 43.0461 39.3156C43.0248 39.2423 42.5045 37.5216 41.0596 37.6706C40.9347 37.6831 40.81 37.6456 40.7128 37.5661C40.6156 37.4867 40.554 37.3719 40.5414 37.247C40.5289 37.1222 40.5665 36.9974 40.6459 36.9002C40.7253 36.8031 40.8401 36.7414 40.965 36.7289C42.7623 36.5506 43.7049 38.1738 43.9537 39.0573C43.9706 39.1171 43.9755 39.1796 43.9682 39.2413C43.9609 39.303 43.9415 39.3627 43.9112 39.4169C43.8808 39.4711 43.8401 39.5187 43.7913 39.5572C43.7425 39.5957 43.6866 39.6241 43.6269 39.641C43.5858 39.6528 43.5433 39.6588 43.5006 39.659Z" fill="#115B76"/>
<path d="M49.985 42.8567C49.3301 42.8573 48.6832 42.7135 48.0902 42.4355C47.4973 42.1576 46.9729 41.7523 46.5545 41.2486C46.513 41.2011 46.4814 41.1458 46.4615 41.086C46.4417 41.0261 46.434 40.9629 46.439 40.9C46.4439 40.8371 46.4614 40.7759 46.4904 40.7199C46.5193 40.6638 46.5592 40.6142 46.6077 40.5738C46.6561 40.5334 46.7122 40.5032 46.7725 40.4848C46.8328 40.4664 46.8962 40.4602 46.9589 40.4667C47.0217 40.4731 47.0825 40.4921 47.1378 40.5224C47.1931 40.5527 47.2418 40.5938 47.281 40.6432C47.7436 41.199 48.3663 41.5988 49.0643 41.7881C49.7623 41.9773 50.5017 41.9469 51.1817 41.7009C51.8618 41.4548 52.4495 41.0052 52.8649 40.4132C53.2802 39.8211 53.503 39.1155 53.503 38.3923C53.503 38.302 53.4996 38.2121 53.493 38.1232C53.4872 38.0606 53.4939 37.9976 53.5127 37.9377C53.5315 37.8778 53.5621 37.8222 53.6026 37.7743C53.6431 37.7263 53.6928 37.6869 53.7487 37.6583C53.8046 37.6297 53.8656 37.6125 53.9282 37.6078C53.9909 37.6031 54.0538 37.6108 54.1134 37.6307C54.1729 37.6505 54.228 37.682 54.2752 37.7233C54.3225 37.7646 54.3611 37.815 54.3887 37.8714C54.4163 37.9277 54.4325 37.9891 54.4361 38.0518C54.4446 38.1643 54.4489 38.2778 54.4489 38.3923C54.4478 39.5759 53.9771 40.7107 53.1402 41.5477C52.3033 42.3847 51.1686 42.8554 49.985 42.8567Z" fill="#115B76"/>
<path d="M52.7789 45.6051H52.7694C50.4679 45.5601 49.3867 43.5367 49.1365 42.473C49.1092 42.3516 49.1309 42.2243 49.1969 42.1187C49.2629 42.0132 49.3678 41.9379 49.4889 41.9092C49.6101 41.8805 49.7376 41.9007 49.8439 41.9655C49.9502 42.0302 50.0268 42.1342 50.0569 42.255C50.0805 42.3496 50.6514 44.6175 52.7878 44.6591C52.9133 44.6603 53.0331 44.7113 53.121 44.8008C53.2088 44.8904 53.2575 45.0111 53.2563 45.1366C53.2551 45.262 53.2042 45.3818 53.1146 45.4697C53.0251 45.5576 52.9043 45.6062 52.7789 45.6051Z" fill="#115B76"/>
<path d="M49.8928 51.9524H49.8535C49.7285 51.942 49.6128 51.8825 49.5317 51.7868C49.4506 51.691 49.4109 51.5671 49.4212 51.4421C49.4896 50.9494 49.457 50.448 49.3257 49.9683C49.1943 49.4886 48.9667 49.0406 48.6569 48.6515C47.9093 47.8775 46.9119 47.3929 45.8413 47.2837C45.7162 47.2746 45.5998 47.2163 45.5177 47.1214C45.4356 47.0265 45.3945 46.903 45.4036 46.7778C45.4126 46.6527 45.471 46.5363 45.5658 46.4542C45.6607 46.3721 45.7843 46.3311 45.9094 46.3401C47.2319 46.4679 48.4634 47.0704 49.3758 48.0362C49.7683 48.5189 50.0584 49.0765 50.2282 49.675C50.3981 50.2735 50.4443 50.9003 50.3639 51.5173C50.3544 51.6357 50.3006 51.7462 50.2133 51.8269C50.1261 51.9075 50.0116 51.9523 49.8928 51.9524Z" fill="#115B76"/>
<path d="M46.8719 56.0482H46.8497C46.7876 56.0453 46.7268 56.0303 46.6705 56.0039C46.6143 55.9775 46.5638 55.9403 46.5219 55.8944C46.4801 55.8485 46.4477 55.7948 46.4266 55.7364C46.4055 55.678 46.3961 55.616 46.3989 55.5539C46.476 53.8881 47.5625 50.7807 51.1112 50.906C51.1733 50.9083 51.2343 50.9228 51.2908 50.9487C51.3473 50.9746 51.3982 51.0114 51.4405 51.0569C51.4828 51.1025 51.5157 51.1559 51.5373 51.2142C51.559 51.2724 51.5689 51.3344 51.5666 51.3965C51.5643 51.4586 51.5498 51.5197 51.5239 51.5762C51.498 51.6327 51.4613 51.6835 51.4157 51.7258C51.3702 51.7681 51.3168 51.801 51.2585 51.8227C51.2002 51.8443 51.1383 51.8543 51.0762 51.852C47.5733 51.7257 47.3515 55.4395 47.3439 55.5979C47.3381 55.7192 47.2858 55.8336 47.198 55.9175C47.1101 56.0013 46.9934 56.0481 46.8719 56.0482Z" fill="#115B76"/>
<path d="M38.1714 43.4226C36.9879 43.4214 35.8533 42.9507 35.0163 42.114C34.1794 41.2772 33.7085 40.1427 33.707 38.9592C33.707 38.8442 33.7113 38.7303 33.7198 38.6182C33.7235 38.5555 33.7396 38.4941 33.7672 38.4378C33.7948 38.3814 33.8334 38.331 33.8807 38.2897C33.928 38.2484 33.983 38.2169 34.0426 38.1971C34.1021 38.1772 34.1651 38.1695 34.2277 38.1742C34.2903 38.1789 34.3513 38.1961 34.4072 38.2247C34.4631 38.2533 34.5128 38.2927 34.5533 38.3407C34.5938 38.3886 34.6244 38.4442 34.6432 38.5041C34.662 38.564 34.6687 38.6271 34.6629 38.6896C34.6563 38.7785 34.653 38.8684 34.653 38.9592C34.6531 39.6822 34.876 40.3877 35.2914 40.9795C35.7068 41.5713 36.2944 42.0208 36.9743 42.2667C37.6543 42.5127 38.3935 42.5432 39.0913 42.354C39.7892 42.1648 40.4118 41.7652 40.8745 41.2096C40.9142 41.1618 40.963 41.1224 41.018 41.0935C41.073 41.0646 41.1331 41.0469 41.195 41.0412C41.2568 41.0356 41.3192 41.0422 41.3785 41.0606C41.4378 41.0791 41.4929 41.109 41.5406 41.1488C41.5884 41.1885 41.6278 41.2373 41.6567 41.2923C41.6856 41.3473 41.7034 41.4074 41.709 41.4693C41.7146 41.5312 41.708 41.5935 41.6896 41.6528C41.6711 41.7122 41.6412 41.7672 41.6014 41.815C41.183 42.3186 40.6587 42.7237 40.0658 43.0016C39.473 43.2794 38.8262 43.4232 38.1714 43.4226Z" fill="#115B76"/>
<path d="M35.3759 46.1724C35.2505 46.1736 35.1297 46.1249 35.0402 46.0371C34.9506 45.9492 34.8997 45.8294 34.8985 45.704C34.8973 45.5785 34.946 45.4577 35.0338 45.3682C35.1217 45.2787 35.2415 45.2277 35.3669 45.2265C37.5029 45.1849 38.0742 42.9188 38.0979 42.8224C38.128 42.7016 38.2045 42.5976 38.3108 42.5328C38.4172 42.4681 38.5447 42.4479 38.6658 42.4766C38.7869 42.5053 38.8919 42.5806 38.9578 42.6861C39.0238 42.7917 39.0455 42.919 39.0183 43.0404C38.7705 44.1018 37.6864 46.1251 35.3854 46.1724H35.3759Z" fill="#115B76"/>
<path d="M35.4691 53.1521C35.3501 53.1525 35.2354 53.1081 35.1478 53.0277C35.0601 52.9473 35.006 52.8369 34.9961 52.7184C34.9149 52.1007 34.9606 51.4729 35.1305 50.8735C35.3004 50.2741 35.5909 49.7158 35.9841 49.2326C36.8964 48.2667 38.1277 47.6641 39.4501 47.5365C39.5749 47.5291 39.6976 47.5708 39.7921 47.6526C39.8867 47.7344 39.9455 47.8499 39.9562 47.9744C39.9607 48.0364 39.9529 48.0986 39.9334 48.1576C39.9138 48.2166 39.8829 48.2711 39.8422 48.3181C39.8016 48.3651 39.7521 48.4036 39.6966 48.4315C39.6411 48.4594 39.5806 48.476 39.5187 48.4805C38.4465 48.5925 37.448 49.078 36.6978 49.8522C36.3897 50.2414 36.1635 50.6891 36.0331 51.1681C35.9026 51.6471 35.8705 52.1476 35.9387 52.6394C35.9491 52.7644 35.9093 52.8884 35.8283 52.9841C35.7472 53.0798 35.6314 53.1394 35.5064 53.1497L35.4691 53.1521Z" fill="#115B76"/>
<path d="M38.489 57.2466C38.3674 57.2468 38.2504 57.2001 38.1623 57.1162C38.0742 57.0324 38.0218 56.9178 38.016 56.7963C38.008 56.6379 37.7795 52.9137 34.2838 53.0495C34.1583 53.0541 34.0362 53.0087 33.9442 52.9233C33.8522 52.8379 33.7979 52.7194 33.7933 52.594C33.7887 52.4685 33.834 52.3464 33.9194 52.2544C34.0049 52.1624 34.1233 52.1081 34.2488 52.1035C37.7928 51.9744 38.8839 55.0856 38.961 56.7514C38.9639 56.8135 38.9545 56.8755 38.9334 56.9339C38.9123 56.9923 38.8799 57.046 38.838 57.0919C38.7962 57.1378 38.7457 57.175 38.6894 57.2014C38.6332 57.2278 38.5723 57.2428 38.5103 57.2457L38.489 57.2466Z" fill="#115B76"/>
<path d="M43.5024 55.8776H43.4995C43.4374 55.8772 43.3759 55.8646 43.3186 55.8405C43.2614 55.8163 43.2094 55.7811 43.1657 55.7369C43.1221 55.6927 43.0876 55.6403 43.0642 55.5827C43.0408 55.5251 43.029 55.4635 43.0294 55.4013C43.0605 54.4737 42.7625 53.5651 42.1882 52.836C41.6139 52.1069 40.8003 51.6045 39.8912 51.4175C39.768 51.3937 39.6593 51.322 39.589 51.2181C39.5187 51.1141 39.4926 50.9866 39.5164 50.8634C39.5402 50.7402 39.6119 50.6315 39.7158 50.5612C39.8197 50.4909 39.9473 50.4648 40.0705 50.4886C40.1097 50.4961 44.0014 51.2926 43.9753 55.4075C43.9746 55.5324 43.9244 55.652 43.8358 55.7401C43.7472 55.8282 43.6273 55.8776 43.5024 55.8776Z" fill="#115B76"/>
<defs>
<linearGradient id="paint0_linear" x1="-8" y1="-2.9751" x2="61" y2="85.5249" gradientUnits="userSpaceOnUse">
<stop stop-color="#639996"/>
<stop offset="0.398401" stop-color="#0A98FF" stop-opacity="0.56"/>
<stop offset="1" stop-color="#00B7AC" stop-opacity="0.12"/>
</linearGradient>
</defs>
</svg>
