<svg width="85" height="86" viewBox="0 0 85 86" fill="none" xmlns="http://www.w3.org/2000/svg">
<rect y="0.524902" width="85" height="85" rx="42.5" fill="url(#paint0_linear)"/>
<g clip-path="url(#clip0)">
<path d="M42.4983 55.96C43.3387 55.96 44.02 55.2787 44.02 54.4382C44.02 53.5978 43.3387 52.9165 42.4983 52.9165C41.6579 52.9165 40.9766 53.5978 40.9766 54.4382C40.9766 55.2787 41.6579 55.96 42.4983 55.96Z" fill="#115B76"/>
<path d="M39.9948 39.4434L36.9513 36.3999C36.6538 36.1024 36.173 36.1024 35.8755 36.3999C35.578 36.6974 35.578 37.1783 35.8755 37.4758L38.381 39.9813L35.8755 42.4868C35.578 42.7843 35.578 43.2652 35.8755 43.5627C36.0238 43.7111 36.2186 43.7856 36.4134 43.7856C36.6082 43.7856 36.803 43.7111 36.9513 43.5627L39.9948 40.5192C40.2923 40.2217 40.2923 39.7409 39.9948 39.4434Z" fill="#115B76"/>
<path d="M48.5861 42.2642H42.4992C42.0792 42.2642 41.7383 42.605 41.7383 43.025C41.7383 43.445 42.0792 43.7859 42.4992 43.7859H48.5861C49.0061 43.7859 49.347 43.445 49.347 43.025C49.347 42.605 49.0061 42.2642 48.5861 42.2642Z" fill="#115B76"/>
<path d="M48.5839 37.6987H44.0187C43.5987 37.6987 43.2578 38.0396 43.2578 38.4596C43.2578 38.8796 43.5987 39.2205 44.0187 39.2205H48.5839C49.0039 39.2205 49.3448 38.8796 49.3448 38.4596C49.3448 38.0396 49.0039 37.6987 48.5839 37.6987Z" fill="#115B76"/>
<path d="M48.5871 46.8296H36.4132C35.9932 46.8296 35.6523 47.1704 35.6523 47.5904C35.6523 48.0104 35.9932 48.3513 36.4132 48.3513H48.5871C49.0071 48.3513 49.348 48.0104 49.348 47.5904C49.348 47.1704 49.0071 46.8296 48.5871 46.8296Z" fill="#115B76"/>
<path d="M50.1085 25.5249C49.9678 25.5249 34.8942 25.5249 34.8942 25.5249C34.8942 25.5249 34.8942 25.5249 34.8934 25.5249C33.8777 25.5249 32.9228 25.9206 32.2045 26.6388C31.4863 27.3571 31.0898 28.3135 31.0898 29.3293V30.8495C31.0898 30.8502 31.0898 30.8502 31.0898 30.851C31.0898 30.8518 31.0898 30.8517 31.0898 30.8525V56.7206C31.0898 58.8183 32.7965 60.5249 34.8942 60.5249H50.1116C52.2093 60.5249 53.9159 58.8183 53.9159 56.7206V29.3293C53.9159 27.2315 52.2093 25.5249 50.1085 25.5249ZM32.6116 29.3293C32.6116 28.7198 32.849 28.1461 33.2804 27.7154C33.711 27.2848 34.284 27.0466 34.8934 27.0466H42.5021C47.5649 27.0466 49.3933 27.0466 50.1108 26.9881V27.0466C51.3693 27.0466 52.3934 28.0708 52.3934 29.3293V30.0901H32.6116V29.3293ZM52.3942 56.7206C52.3942 57.979 51.3701 59.0032 50.1116 59.0032H34.8942C33.6357 59.0032 32.6116 57.979 32.6116 56.7206V31.6119H52.3942V56.7206Z" fill="#115B76"/>
</g>
<defs>
<linearGradient id="paint0_linear" x1="91.5" y1="85.5249" x2="-3" y2="-12.9751" gradientUnits="userSpaceOnUse">
<stop offset="0.114583" stop-color="#AEF7EE"/>
<stop offset="0.525794" stop-color="#78FFEF"/>
<stop offset="1" stop-color="#03CEB6"/>
</linearGradient>
<clipPath id="clip0">
<rect x="25" y="25.5249" width="35" height="35" fill="white"/>
</clipPath>
</defs>
</svg>
