<svg width="85" height="86" viewBox="0 0 85 86" fill="none" xmlns="http://www.w3.org/2000/svg">
<rect y="0.647949" width="85" height="85" rx="42.5" fill="url(#paint0_linear)"/>
<path d="M31.1055 31.46C29.8974 31.46 28.918 32.4393 28.918 33.6475V39.4808H30.3763V33.6475C30.3763 33.2448 30.7028 32.9183 31.1055 32.9183H48.6055V31.46H31.1055Z" fill="#E86A63"/>
<path d="M31.1055 53.3354C30.7028 53.3354 30.3763 53.0089 30.3763 52.6062V45.3145H28.918V52.6062C28.918 53.8143 29.8974 54.7937 31.1055 54.7937H38.3972V53.3354H31.1055Z" fill="#E86A63"/>
<path d="M49.1196 55.2161L31.411 37.5074C31.1263 37.2228 30.6647 37.2228 30.3799 37.5074L26.2135 41.674C25.9288 41.9587 25.9288 42.4202 26.2135 42.705L43.9221 60.4136C44.0588 60.5504 44.2443 60.6272 44.4376 60.6272C44.631 60.6271 44.8164 60.5503 44.9531 60.4136L49.1196 56.2471C49.4043 55.9623 49.4043 55.5008 49.1196 55.2161ZM44.4376 58.867L27.7601 42.1895L30.8955 39.054L47.5731 55.7316L44.4376 58.867Z" fill="#E86A63"/>
<path d="M58.0821 53.335H47.1445V54.7933H55.1654V58.4391C55.1654 58.8418 55.4919 59.1683 55.8946 59.1683H58.0821C59.6929 59.1683 60.9988 57.8625 60.9988 56.2516C60.9988 54.6408 59.6929 53.335 58.0821 53.335ZM58.0821 57.71H56.6238V54.7933H58.0821C58.8875 54.7933 59.5404 55.4462 59.5404 56.2516C59.5404 57.0571 58.8875 57.71 58.0821 57.71Z" fill="#E86A63"/>
<path d="M58.0833 31.46H54.4375V32.9183H58.0833C58.8887 32.9183 59.5416 33.5712 59.5416 34.3766V56.2517H61V34.3766C61 32.7658 59.6942 31.46 58.0833 31.46Z" fill="#E86A63"/>
<path d="M39.34 46.2571L37.1523 48.4448L38.1835 49.476L40.3712 47.2883L39.34 46.2571Z" fill="#E86A63"/>
<path d="M36.4221 43.3406L34.2344 45.5283L35.2655 46.5595L37.4532 44.3718L36.4221 43.3406Z" fill="#E86A63"/>
<path d="M42.258 49.1736L40.0703 51.3613L41.1015 52.3925L43.2892 50.2048L42.258 49.1736Z" fill="#E86A63"/>
<path d="M45.1721 52.0921L42.9844 54.2798L44.0156 55.311L46.2033 53.1233L45.1721 52.0921Z" fill="#E86A63"/>
<path d="M33.508 40.4236L31.3203 42.6113L32.3515 43.6425L34.5392 41.4548L33.508 40.4236Z" fill="#E86A63"/>
<path d="M57.4499 27.2661L56.4421 26.2584C55.5895 25.4445 54.2476 25.4445 53.395 26.2584L42.3072 37.3461C42.0226 37.6309 42.0226 38.0924 42.3072 38.3772L45.3311 41.4011C45.4675 41.5384 45.6532 41.6153 45.8466 41.6147C46.04 41.6147 46.2254 41.5378 46.3621 41.4011L57.4499 30.3133C57.4502 30.313 57.4506 30.3126 57.4509 30.3123C58.2918 29.4708 58.2913 28.107 57.4499 27.2661ZM56.4196 29.2816L45.8466 39.8545L43.8538 37.8616L54.4268 27.2894C54.7021 27.0263 55.1358 27.0263 55.4111 27.2894L56.4196 28.2964C56.4197 28.2966 56.4198 28.2966 56.4199 28.2968C56.6917 28.5688 56.6916 29.0097 56.4196 29.2816Z" fill="#E86A63"/>
<path d="M45.6135 40.1944L42.4664 41.2451L43.5172 38.0929L42.1317 37.6313L40.6194 42.1675C40.5947 42.2419 40.582 42.3197 40.582 42.3981C40.5821 42.8008 40.9087 43.1272 41.3114 43.1271C41.3885 43.1273 41.4653 43.1155 41.5389 43.0921L46.075 41.5797L45.6135 40.1944Z" fill="#E86A63"/>
<path d="M52.4101 28.274L51.3789 29.3052L54.4029 32.3291L55.4341 31.298L52.4101 28.274Z" fill="#E86A63"/>
<defs>
<linearGradient id="paint0_linear" x1="4" y1="8.64795" x2="103.5" y2="92.648" gradientUnits="userSpaceOnUse">
<stop stop-color="#FFA39B"/>
<stop offset="0.385332" stop-color="#FF8B84" stop-opacity="0.418108"/>
<stop offset="1" stop-color="#FAF3D7" stop-opacity="0.12"/>
</linearGradient>
</defs>
</svg>
