<svg width="86" height="86" viewBox="0 0 86 86" fill="none" xmlns="http://www.w3.org/2000/svg">
<rect y="0.72998" width="85" height="85" rx="42.5" transform="rotate(-0.138201 0 0.72998)" fill="url(#paint0_linear)"/>
<g clip-path="url(#clip0)">
<path d="M57.4481 30.4188L55.653 30.4232C55.3698 30.4238 55.1408 30.6539 55.1415 30.9371C55.1422 31.2203 55.3722 31.4492 55.6554 31.4485L57.4506 31.4442C58.2987 31.4422 58.9904 32.1305 58.9924 32.9786L58.9981 35.337L26.049 35.4165L26.0433 33.0581C26.0412 32.21 26.7295 31.5183 27.5777 31.5163L56.553 31.4464C56.8362 31.4457 59.0009 31.0987 56.2189 30.9345C60.0943 30.9251 56.8338 30.4203 56.5506 30.421L27.5752 30.4909C26.1617 30.4943 25.0145 31.647 25.0179 33.0605L25.0375 41.1953C25.0382 41.4785 25.3354 41.1946 25.6186 41.1939C26.1661 41.466 26.0629 41.1928 26.0569 38.7101L26.0515 36.4418L59.0006 36.3624L59.0324 49.5807C59.0331 49.8639 59.2632 50.0928 59.5464 50.0922C59.8296 50.0915 60.0585 49.8614 60.0578 49.5782L60.0178 32.9761C60.0144 31.5626 58.8617 30.4154 57.4481 30.4188Z" fill="#FF007C"/>
<path d="M59.5487 51.2287C59.5428 48.8023 59.0294 48.5204 59.0301 48.8036L59.0404 53.076C59.0425 53.9241 58.3541 54.6158 57.5061 54.6178L27.6331 54.6899C26.785 54.6919 26.0934 54.0036 26.0913 53.1555L26.0618 40.9101C26.0611 40.6269 25.831 40.398 25.5478 40.3987C25.2647 40.3993 25.0357 40.6294 25.0364 40.9126L25.0659 53.158C25.0693 54.5715 26.2221 55.7187 27.6356 55.7153L57.5085 55.6432C58.9221 55.6398 60.0692 54.4871 60.0658 53.0736L60.0571 49.4505C60.0564 49.1674 59.3014 47.9142 59.5487 51.2287Z" fill="#FF007C"/>
<path d="M32.4526 41.6191C32.2519 41.4194 31.9273 41.4202 31.7276 41.6208L28.6541 44.7092C28.5581 44.8056 28.5044 44.9361 28.5048 45.0722C28.5051 45.2082 28.5594 45.3383 28.6558 45.4344L31.7034 48.4672C31.8037 48.5671 31.9351 48.6168 32.0662 48.6165C32.1974 48.6162 32.3285 48.5658 32.4284 48.4655C32.6281 48.2647 32.6273 47.9401 32.4266 47.7404L29.7425 45.0692L32.4544 42.3442C32.6542 42.1435 32.6534 41.8189 32.4526 41.6191Z" fill="#FF007C"/>
<path d="M39.364 48.4481C39.4644 48.5479 39.5957 48.5977 39.7269 48.5973C39.8581 48.597 39.9892 48.5467 40.0891 48.4464L43.122 45.3988C43.2179 45.3024 43.2716 45.1719 43.2712 45.0359C43.2709 44.8998 43.2166 44.7697 43.1202 44.6737L40.0318 41.6002C39.8311 41.4005 39.5065 41.4013 39.3068 41.6019C39.107 41.8027 39.1078 42.1272 39.3085 42.327L42.0336 45.0389L39.3624 47.7229C39.1625 47.9238 39.1633 48.2484 39.364 48.4481Z" fill="#FF007C"/>
<path d="M34.0852 50.3501C34.292 50.3496 34.4866 50.223 34.5638 50.018L38.1838 40.4117C38.2836 40.1467 38.1498 39.8509 37.8848 39.7511C37.6199 39.6512 37.3241 39.7851 37.2243 40.0501L33.6043 49.6565C33.5045 49.9214 33.6384 50.2171 33.9033 50.317C33.9632 50.3396 34.0247 50.3502 34.0852 50.3501Z" fill="#FF007C"/>
<path d="M27.2771 33.4897C27.2792 34.3378 27.9708 35.0262 28.8189 35.0241C29.6671 35.0221 30.3554 34.3304 30.3533 33.4823C30.3513 32.6343 29.6596 31.9459 28.8115 31.948C27.9634 31.95 27.2751 32.6417 27.2771 33.4897ZM29.3279 33.4848C29.3286 33.7675 29.0992 33.998 28.8165 33.9987C28.5337 33.9994 28.3032 33.77 28.3025 33.4873C28.3019 33.2045 28.5313 32.974 28.814 32.9733C29.0967 32.9727 29.3272 33.2021 29.3279 33.4848Z" fill="#FF007C"/>
<path d="M31.2498 33.4805C31.2518 34.3285 31.9435 35.0169 32.7916 35.0148C33.6397 35.0128 34.328 34.3211 34.326 33.473C34.3239 32.625 33.6323 31.9366 32.7842 31.9387C31.936 31.9407 31.2478 32.6324 31.2498 33.4805ZM33.3006 33.4755C33.3013 33.7583 33.0719 33.9888 32.7891 33.9894C32.5064 33.9901 32.2759 33.7607 32.2752 33.478C32.2745 33.1953 32.5039 32.9647 32.7866 32.9641C33.0694 32.9634 33.2999 33.1928 33.3006 33.4755Z" fill="#FF007C"/>
<path d="M35.2264 33.4707C35.2284 34.3188 35.92 35.0071 36.7682 35.0051C37.6163 35.003 38.3046 34.3113 38.3025 33.4633C38.3005 32.6152 37.6089 31.9269 36.7607 31.9289C35.9126 31.931 35.2243 32.6226 35.2264 33.4707ZM37.2771 33.4658C37.2778 33.7485 37.0484 33.979 36.7657 33.9797C36.483 33.9804 36.2524 33.751 36.2518 33.4682C36.2511 33.1855 36.4805 32.955 36.7632 32.9543C37.0459 32.9536 37.2765 33.183 37.2771 33.4658Z" fill="#FF007C"/>
<path d="M47.9674 42.1223L51.1803 42.1145C52.0283 42.1125 52.7167 41.4208 52.7146 40.5727C52.7126 39.7247 52.0209 39.0363 51.1728 39.0383L47.96 39.0461C47.1119 39.0481 46.4235 39.7398 46.4256 40.5879C46.4276 41.436 47.1193 42.1243 47.9674 42.1223ZM47.9624 40.0715L51.1753 40.0637C51.458 40.0631 51.6886 40.2925 51.6892 40.5752C51.6899 40.8579 51.4605 41.0884 51.1778 41.0891L47.9649 41.0969C47.6822 41.0976 47.4517 40.8681 47.451 40.5854C47.4503 40.3027 47.6797 40.0722 47.9624 40.0715Z" fill="#FF007C"/>
<path d="M47.983 46.2233L56.4595 46.2029C57.3076 46.2008 57.996 45.5092 57.9939 44.6611C57.9919 43.813 57.3002 43.1247 56.4521 43.1267L47.9756 43.1472C47.1275 43.1492 46.4392 43.8409 46.4412 44.689C46.4433 45.537 47.1349 46.2254 47.983 46.2233ZM47.9781 44.1726L56.4546 44.1521C56.7373 44.1514 56.9678 44.3808 56.9685 44.6636C56.9692 44.9463 56.7398 45.1768 56.4571 45.1775L47.9805 45.1979C47.6978 45.1986 47.4673 44.9692 47.4666 44.6865C47.4659 44.4038 47.6953 44.1732 47.9781 44.1726Z" fill="#FF007C"/>
<path d="M47.9908 50.3254L53.9493 50.311C54.7974 50.309 55.4858 49.6173 55.4837 48.7692C55.4817 47.9212 54.79 47.2328 53.9419 47.2348L47.9834 47.2492C47.1353 47.2513 46.447 47.9429 46.449 48.791C46.4511 49.6391 47.1427 50.3274 47.9908 50.3254ZM47.9859 48.2746L53.9444 48.2602C54.2271 48.2596 54.4576 48.489 54.4583 48.7717C54.459 49.0544 54.2296 49.2849 53.9469 49.2856L47.9883 49.3C47.7056 49.3007 47.4751 49.0713 47.4744 48.7885C47.4737 48.5058 47.7031 48.2753 47.9859 48.2746Z" fill="#FF007C"/>
</g>
<defs>
<linearGradient id="paint0_linear" x1="19.0002" y1="0.663506" x2="84.8227" y2="74.3225" gradientUnits="userSpaceOnUse">
<stop stop-color="#FF77B8"/>
<stop offset="1" stop-color="#FF77B8" stop-opacity="0.3"/>
</linearGradient>
<clipPath id="clip0">
<rect width="35" height="35" fill="white" transform="translate(25 25.6094) rotate(-0.138201)"/>
</clipPath>
</defs>
</svg>
