<svg width="28" height="26" viewBox="0 0 28 26" fill="none" xmlns="http://www.w3.org/2000/svg">
<path d="M19.7385 2.15527H8.26439C5.0959 2.15527 2.52734 4.56804 2.52734 7.54434V18.3225C2.52734 21.2988 5.0959 23.7116 8.26439 23.7116H19.7385C22.9069 23.7116 25.4755 21.2988 25.4755 18.3225V7.54434C25.4755 4.56804 22.9069 2.15527 19.7385 2.15527Z" stroke="#1DC0AD" stroke-width="1.61672" stroke-linecap="round" stroke-linejoin="round"/>
<path d="M18.5945 12.255C18.7361 13.152 18.573 14.0682 18.1283 14.8731C17.6837 15.678 16.9802 16.3307 16.1179 16.7384C15.2556 17.1461 14.2784 17.288 13.3253 17.1439C12.3722 16.9999 11.4917 16.5772 10.8091 15.936C10.1265 15.2947 9.67651 14.4677 9.52314 13.5724C9.36977 12.6771 9.52084 11.7591 9.95486 10.9491C10.3889 10.1391 11.0838 9.47831 11.9406 9.06066C12.7975 8.64301 13.7728 8.48979 14.7277 8.62281C15.7018 8.75849 16.6035 9.18485 17.2998 9.83891C17.9961 10.493 18.45 11.3401 18.5945 12.255Z" stroke="#1DC0AD" stroke-width="1.61672" stroke-linecap="round" stroke-linejoin="round"/>
<path d="M20.3086 7.00586H20.3202" stroke="#1DC0AD" stroke-width="1.61672" stroke-linecap="round" stroke-linejoin="round"/>
</svg>
