<svg width="35" height="32" viewBox="0 0 35 32" fill="none" xmlns="http://www.w3.org/2000/svg">
<path d="M25.0023 2.66663H10.8081C6.88843 2.66663 3.71094 5.65139 3.71094 9.33329V22.6666C3.71094 26.3485 6.88843 29.3333 10.8081 29.3333H25.0023C28.922 29.3333 32.0995 26.3485 32.0995 22.6666V9.33329C32.0995 5.65139 28.922 2.66663 25.0023 2.66663Z" stroke="#999999" stroke-width="3" stroke-linecap="round" stroke-linejoin="round"/>
<path d="M23.5831 15.1602C23.7582 16.2698 23.5565 17.4031 23.0064 18.3988C22.4564 19.3946 21.5861 20.202 20.5194 20.7064C19.4527 21.2107 18.2438 21.3863 17.0648 21.2081C15.8857 21.0298 14.7965 20.5069 13.952 19.7137C13.1076 18.9205 12.5509 17.8973 12.3612 16.7898C12.1715 15.6822 12.3583 14.5467 12.8952 13.5447C13.4322 12.5426 14.2918 11.7251 15.3518 11.2085C16.4118 10.6918 17.6183 10.5023 18.7996 10.6668C20.0046 10.8347 21.1202 11.3621 21.9815 12.1712C22.8429 12.9804 23.4044 14.0283 23.5831 15.1602Z" stroke="#999999" stroke-width="3" stroke-linecap="round" stroke-linejoin="round"/>
<path d="M25.7109 8.66663H25.7242" stroke="#999999" stroke-width="3" stroke-linecap="round" stroke-linejoin="round"/>
</svg>
