<svg width="35" height="32" viewBox="0 0 35 32" fill="none" xmlns="http://www.w3.org/2000/svg">
<path d="M22.7158 10.6666C24.9745 10.6666 27.1407 11.5095 28.7379 13.0098C30.3351 14.5101 31.2323 16.5449 31.2323 18.6666V28H25.5546V18.6666C25.5546 17.9594 25.2555 17.2811 24.7231 16.781C24.1908 16.2809 23.4687 16 22.7158 16C21.9629 16 21.2408 16.2809 20.7084 16.781C20.176 17.2811 19.8769 17.9594 19.8769 18.6666V28H14.1992V18.6666C14.1992 16.5449 15.0965 14.5101 16.6937 13.0098C18.2908 11.5095 20.457 10.6666 22.7158 10.6666Z" fill="#999999" stroke="#999999" stroke-width="2" stroke-linecap="round" stroke-linejoin="round"/>
<path d="M8.52146 12H2.84375V28H8.52146V12Z" fill="#999999" stroke="#999999" stroke-width="2" stroke-linecap="round" stroke-linejoin="round"/>
<path d="M5.6826 7.99996C7.25046 7.99996 8.52146 6.80605 8.52146 5.33329C8.52146 3.86053 7.25046 2.66663 5.6826 2.66663C4.11475 2.66663 2.84375 3.86053 2.84375 5.33329C2.84375 6.80605 4.11475 7.99996 5.6826 7.99996Z" fill="#999999" stroke="#999999" stroke-width="2" stroke-linecap="round" stroke-linejoin="round"/>
</svg>
