<svg width="25" height="22" viewBox="0 0 25 22" fill="none" xmlns="http://www.w3.org/2000/svg">
<path d="M6.34354 8.7002H1.75391V21.634H6.34354V8.7002Z" fill="#1DC0AD"/>
<path d="M4.04872 5.46653C5.31611 5.46653 6.34354 4.50142 6.34354 3.3109C6.34354 2.12038 5.31611 1.15527 4.04872 1.15527C2.78133 1.15527 1.75391 2.12038 1.75391 3.3109C1.75391 4.50142 2.78133 5.46653 4.04872 5.46653Z" fill="#1DC0AD" stroke="#1DC0AD" stroke-width="1.61672" stroke-linecap="round" stroke-linejoin="round"/>
<path d="M17.8219 7.56641C19.6478 7.56641 21.3989 8.24786 22.69 9.46086C23.9811 10.6739 24.7064 12.319 24.7064 14.0345V21.5806H20.1168V14.0345C20.1168 13.4627 19.875 12.9143 19.4446 12.5099C19.0143 12.1056 18.4306 11.8785 17.8219 11.8785C17.2133 11.8785 16.6296 12.1056 16.1993 12.5099C15.7689 12.9143 15.5271 13.4627 15.5271 14.0345V21.5806H10.9375V14.0345C10.9375 12.319 11.6628 10.6739 12.9539 9.46086C14.245 8.24786 15.9961 7.56641 17.8219 7.56641Z" fill="#1DC0AD"/>
</svg>
