<svg width="28" height="26" viewBox="0 0 28 26" fill="none" xmlns="http://www.w3.org/2000/svg">
<g clip-path="url(#clip0)">
<path fill-rule="evenodd" clip-rule="evenodd" d="M22.9028 4.31916C20.4875 2.04772 17.2754 0.796254 13.8534 0.794922C6.80206 0.794922 1.06327 6.18549 1.06043 12.8109C1.05949 14.9289 1.64849 16.9964 2.76805 18.8187L0.953125 25.0457L7.73489 23.3746C9.60354 24.3322 11.7073 24.8367 13.8482 24.8373H13.8536C20.9042 24.8373 26.6436 19.4463 26.6463 12.8206C26.6477 9.60952 25.3182 6.59046 22.9028 4.31916ZM13.8534 22.8079H13.849C11.9411 22.8072 10.07 22.3255 8.43719 21.4157L8.04909 21.1991L4.02469 22.1908L5.09886 18.5051L4.84595 18.1272C3.78155 16.5369 3.21949 14.6989 3.22044 12.8117C3.22264 7.30478 7.99268 2.82451 13.8577 2.82451C16.6978 2.82539 19.3675 3.86565 21.375 5.75358C23.3825 7.64151 24.4874 10.151 24.4864 12.8198C24.4839 18.3272 19.7142 22.8079 13.8534 22.8079ZM19.6858 15.3274C19.3663 15.177 17.7946 14.4508 17.5015 14.3505C17.2088 14.2502 16.9954 14.2004 16.7825 14.5008C16.5693 14.8013 15.9569 15.4777 15.7703 15.678C15.5837 15.8784 15.3975 15.9036 15.0778 15.7532C14.7581 15.603 13.7282 15.2858 12.5071 14.2628C11.557 13.4667 10.9155 12.4834 10.7289 12.1829C10.5427 11.8821 10.7273 11.7353 10.8692 11.5701C11.2152 11.1665 11.5617 10.7433 11.6682 10.5431C11.7749 10.3426 11.7215 10.1672 11.6414 10.017C11.5617 9.86677 10.9224 8.38884 10.6561 7.78746C10.3964 7.2022 10.1331 7.28124 9.93681 7.27207C9.75056 7.26333 9.53736 7.26156 9.32417 7.26156C9.11113 7.26156 8.76478 7.3366 8.4717 7.63737C8.17877 7.93799 7.35309 8.6643 7.35309 10.1422C7.35309 11.6202 8.49849 13.0479 8.65826 13.2483C8.81804 13.4487 10.9123 16.4816 14.1188 17.782C14.8814 18.0917 15.4767 18.2763 15.9411 18.4147C16.7069 18.6432 17.4035 18.6109 17.9544 18.5337C18.5686 18.4474 19.8454 17.8072 20.1121 17.1059C20.3784 16.4045 20.3784 15.8034 20.2983 15.678C20.2186 15.5528 20.0054 15.4777 19.6858 15.3274Z" fill="#1DC0AD"/>
</g>
<defs>
<clipPath id="clip0">
<rect width="27.5378" height="25.8675" fill="white"/>
</clipPath>
</defs>
</svg>
