<svg width="35" height="32" viewBox="0 0 35 32" fill="none" xmlns="http://www.w3.org/2000/svg">
<path fill-rule="evenodd" clip-rule="evenodd" d="M28.583 5.34314C25.5952 2.5332 21.6216 0.985046 17.3883 0.983398C8.66524 0.983398 1.56594 7.65192 1.56243 15.8481C1.56126 18.4681 2.28991 21.0258 3.67487 23.2801L1.42969 30.9834L9.81922 28.9161C12.1309 30.1006 14.7334 30.7249 17.3819 30.7256H17.3885C26.1106 30.7256 33.2106 24.0565 33.214 15.86C33.2157 11.8877 31.5711 8.15289 28.583 5.34314ZM17.3883 28.215H17.3828C15.0226 28.2141 12.7079 27.6183 10.688 26.4927L10.2079 26.2249L5.22943 27.4517L6.55826 22.8921L6.2454 22.4247C4.92865 20.4574 4.23334 18.1836 4.23451 15.849C4.23724 9.03656 10.1381 3.49414 17.3936 3.49414C20.9069 3.49524 24.2096 4.7821 26.693 7.11761C29.1764 9.45312 30.5432 12.5575 30.5421 15.8591C30.5389 22.6721 24.6385 28.215 17.3883 28.215ZM24.6034 18.9611C24.2081 18.775 22.2638 17.8767 21.9013 17.7526C21.5391 17.6286 21.2752 17.5669 21.0118 17.9386C20.7481 18.3103 19.9904 19.1471 19.7596 19.3948C19.5288 19.6428 19.2984 19.6739 18.9029 19.4879C18.5074 19.302 17.2333 18.9096 15.7228 17.6442C14.5474 16.6592 13.7538 15.4429 13.5231 15.0712C13.2926 14.6991 13.5211 14.5175 13.6965 14.3131C14.1246 13.8138 14.5533 13.2903 14.685 13.0425C14.817 12.7946 14.7509 12.5776 14.6519 12.3918C14.5533 12.2059 13.7624 10.3776 13.433 9.63367C13.1118 8.90967 12.786 9.00745 12.5431 8.99609C12.3127 8.98529 12.049 8.98309 11.7853 8.98309C11.5217 8.98309 11.0933 9.07593 10.7307 9.448C10.3683 9.81988 9.3469 10.7184 9.3469 12.5467C9.3469 14.375 10.7638 16.1412 10.9615 16.3892C11.1592 16.6371 13.7499 20.3889 17.7166 21.9977C18.66 22.3807 19.3964 22.6091 19.9709 22.7803C20.9183 23.063 21.78 23.0231 22.4615 22.9275C23.2213 22.8207 24.8008 22.0288 25.1307 21.1613C25.4601 20.2935 25.4601 19.5499 25.3611 19.3948C25.2624 19.2399 24.9987 19.1471 24.6034 18.9611Z" fill="#999999"/>
</svg>
