<svg width="859" height="387" viewBox="0 0 859 387" fill="none" xmlns="http://www.w3.org/2000/svg">
<rect x="36" y="3" width="820" height="340" rx="20" fill="#1DC0AD" fill-opacity="0.25"/>
<path d="M38.5137 8C38.5137 8 23.2624 90.1848 67.8929 117.96C92.84 133.486 123.234 100.663 154.66 145.141C186.085 189.62 138.261 290.931 210 349" stroke="white" stroke-width="6" stroke-linecap="round"/>
<path d="M5.51374 43C5.51374 43 -9.73761 125.185 34.8929 152.96C59.84 168.486 90.2341 135.663 121.66 180.141C153.085 224.62 105.261 325.931 177 384" stroke="white" stroke-width="6" stroke-linecap="round"/>
<path d="M4.58915 133C4.58915 133 -5.05251 185.058 23.1622 202.652C38.9333 212.487 58.148 191.696 78.0148 219.87C97.8816 248.043 67.6475 312.217 113 349" stroke="white" stroke-width="6" stroke-linecap="round"/>
<path d="M681 3C681 3 682.622 70.7899 713.237 90.5294C727.111 99.4747 738.535 96.2752 753.661 102.886C842.509 141.72 854 330 854 330" stroke="white" stroke-width="6" stroke-linecap="round"/>
<path d="M723 3C723 3 724.247 51.5102 747.783 65.6357C758.449 72.037 767.232 69.7474 778.861 74.4784C847.166 102.268 856 237 856 237" stroke="white" stroke-width="6" stroke-linecap="round"/>
<path d="M778 3C778 3 778.731 31.4013 792.535 39.6713C798.79 43.4191 803.941 42.0786 810.76 44.8484C850.819 61.1182 856 140 856 140" stroke="white" stroke-width="6" stroke-linecap="round"/>
</svg>
