<svg width="349" height="267" viewBox="0 0 349 267" fill="none" xmlns="http://www.w3.org/2000/svg">
<path d="M376 238.713H0V238.895H376V238.713Z" fill="#E0E0E0"/>
<path d="M284.002 246.434H258.133V246.616H284.002V246.434Z" fill="#E0E0E0"/>
<path d="M83.504 246.521H68.9453V246.704H83.504V246.521Z" fill="#E0E0E0"/>
<path d="M188.751 246.099H159.242V246.281H188.751V246.099Z" fill="#E0E0E0"/>
<path d="M158.491 243.503H145.301V243.685H158.491V243.503Z" fill="#E0E0E0"/>
<path d="M319.266 243.598H279.418V243.78H319.266V243.598Z" fill="#E0E0E0"/>
<path d="M178.224 206.194H33.0208C31.8833 206.192 30.793 205.753 29.9894 204.972C29.1857 204.192 28.7344 203.134 28.7344 202.031V4.1268C28.7443 3.03023 29.2 1.98172 30.0026 1.20903C30.8052 0.436346 31.8897 0.00187849 33.0208 0H178.224C179.363 0 180.455 0.438627 181.261 1.21939C182.066 2.00015 182.518 3.05909 182.518 4.16325V202.031C182.518 203.135 182.066 204.194 181.261 204.975C180.455 205.755 179.363 206.194 178.224 206.194ZM33.0208 0.145824C31.9331 0.147755 30.8907 0.568029 30.1223 1.3144C29.3539 2.06077 28.9224 3.07224 28.9224 4.1268V202.031C28.9224 203.085 29.3539 204.097 30.1223 204.843C30.8907 205.59 31.9331 206.01 33.0208 206.012H178.224C179.313 206.01 180.356 205.59 181.126 204.844C181.895 204.097 182.328 203.086 182.33 202.031V4.1268C182.328 3.07157 181.895 2.06011 181.126 1.31395C180.356 0.567792 179.313 0.147751 178.224 0.145824H33.0208Z" fill="#E0E0E0"/>
<path d="M340.888 206.194H195.677C194.539 206.192 193.448 205.753 192.643 204.973C191.838 204.192 191.385 203.134 191.383 202.031V4.1268C191.395 3.02956 191.852 1.98106 192.656 1.20858C193.46 0.436091 194.545 0.001858 195.677 0H340.888C342.018 0.00379468 343.1 0.43911 343.901 1.21159C344.702 1.98408 345.157 3.03148 345.167 4.1268V202.031C345.167 203.132 344.716 204.189 343.914 204.97C343.112 205.75 342.024 206.19 340.888 206.194ZM195.677 0.145824C194.588 0.147751 193.545 0.567792 192.776 1.31395C192.006 2.06011 191.573 3.07157 191.571 4.1268V202.031C191.573 203.086 192.006 204.097 192.776 204.844C193.545 205.59 194.588 206.01 195.677 206.012H340.888C341.976 206.01 343.019 205.59 343.789 204.844C344.559 204.097 344.992 203.086 344.994 202.031V4.1268C344.992 3.07157 344.559 2.06011 343.789 1.31395C343.019 0.567792 341.976 0.147751 340.888 0.145824H195.677Z" fill="#E0E0E0"/>
<path d="M330.364 147.449C321.114 133.793 329.559 119.116 328.153 103.921C326.746 88.726 311.857 85.4158 314.677 72.5688C317.941 57.6365 309.24 43.3093 299.381 43.3093C289.522 43.3093 280.829 57.6 284.093 72.5469C286.913 85.4158 272.061 88.7333 270.617 103.899C269.173 119.065 277.656 133.793 268.399 147.427C259.142 161.062 261.578 179.166 266.79 188.141C268.176 190.523 269.847 192.737 271.768 194.74C275.3 198.416 279.574 201.347 284.326 203.352C289.077 205.356 294.203 206.391 299.385 206.391C304.567 206.391 309.693 205.356 314.444 203.352C319.196 201.347 323.47 198.416 327.002 194.74C328.918 192.735 330.587 190.521 331.973 188.141C337.192 179.187 339.621 161.135 330.364 147.449Z" fill="#E0E0E0"/>
<path d="M299.381 157.81C299.995 157.81 300.603 157.927 301.171 158.155C301.738 158.383 302.254 158.717 302.688 159.138C303.122 159.559 303.467 160.059 303.702 160.61C303.937 161.16 304.058 161.75 304.058 162.345V238.713H294.703V162.345C294.703 161.75 294.824 161.16 295.059 160.61C295.294 160.059 295.639 159.559 296.073 159.138C296.507 158.717 297.023 158.383 297.591 158.155C298.158 157.927 298.766 157.81 299.381 157.81Z" fill="#F0F0F0"/>
<path d="M240.572 238.712H227.855V162.352C227.859 160.715 228.532 159.147 229.725 157.99C230.919 156.832 232.537 156.18 234.225 156.177C235.913 156.18 237.531 156.832 238.724 157.99C239.918 159.147 240.59 160.715 240.594 162.352L240.572 238.712Z" fill="#E0E0E0"/>
<path d="M234.201 218.115C255.868 218.115 273.432 201.085 273.432 180.077C273.432 159.069 255.868 142.039 234.201 142.039C212.533 142.039 194.969 159.069 194.969 180.077C194.969 201.085 212.533 218.115 234.201 218.115Z" fill="#F0F0F0"/>
<path d="M280.304 168.663C282.362 160.628 277.313 152.496 269.026 150.5C260.739 148.504 252.352 153.4 250.294 161.435C248.235 169.47 253.284 177.601 261.572 179.597C269.859 181.593 278.245 176.698 280.304 168.663Z" fill="#F0F0F0"/>
<path d="M211.498 157.598C212.31 152.761 208.925 148.201 203.936 147.413C198.947 146.626 194.244 149.908 193.432 154.745C192.62 159.582 196.005 164.142 200.994 164.929C205.982 165.717 210.685 162.434 211.498 157.598Z" fill="#F0F0F0"/>
<path d="M212.426 157.81C215.973 157.81 218.848 155.022 218.848 151.583C218.848 148.144 215.973 145.357 212.426 145.357C208.879 145.357 206.004 148.144 206.004 151.583C206.004 155.022 208.879 157.81 212.426 157.81Z" fill="#F0F0F0"/>
<path d="M153.407 193.136C147.307 194.016 141.477 196.173 136.322 199.457C136.277 193.682 135.187 188.207 132.389 183.781C128.133 187.798 124.681 193.004 121.861 198.604C120.831 188.112 117.981 177.904 111.671 171.437C102.219 177.204 97.3459 186.814 95.0297 196.993C91.2033 190.129 85.6494 184.316 78.8843 180.092C73.1014 185.997 71.2515 194.164 71.4094 202.534C64.8369 195.111 57.5425 189.322 50.4286 188.644C48.6764 200.376 52.4063 211.444 57.1515 220.193C60.2322 225.807 64.8345 230.499 70.4624 233.763C76.0904 237.028 82.5306 238.742 89.0889 238.72H119.989C133.156 238.72 145.504 231.91 151.678 220.631C155.581 213.485 157.446 204.291 153.407 193.136Z" fill="#E0E0E0"/>
<path d="M144.577 41.6617C148.39 30.8197 145.329 23.0984 136.027 23.0984C130.177 23.0984 122.92 26.1388 115.851 31.0822C115.054 28.2605 112.805 26.5763 109.188 26.5763C102.819 26.5763 94.0429 31.7967 87.1621 39.1608C85.2249 37.3763 82.6602 36.3728 79.9881 36.3537C73.8893 36.0183 66.5122 39.0223 60.0976 43.9001C59.7762 43.4639 59.3519 43.1086 58.86 42.8638C58.3681 42.619 57.823 42.4918 57.2701 42.4929C53.7583 42.3033 48.9981 45.3364 46.6444 49.2591C46.5015 49.4997 46.3736 49.7403 46.2383 49.9882H146.427C146.728 46.5614 146.104 43.7032 144.577 41.6617Z" fill="#F0F0F0"/>
<path d="M144.887 107.494C146.752 102.2 145.27 98.4307 140.713 98.4307C137.848 98.4307 134.306 99.8889 130.854 102.331C130.668 101.651 130.238 101.057 129.642 100.656C129.045 100.255 128.32 100.074 127.598 100.144C124.492 100.144 120.206 102.696 116.837 106.298C115.893 105.423 114.639 104.933 113.333 104.927C110.325 104.759 106.753 106.225 103.617 108.609C103.465 108.398 103.264 108.225 103.03 108.103C102.796 107.982 102.536 107.915 102.271 107.909C100.556 107.814 98.2325 109.294 97.0819 111.212L96.8789 111.562H145.819C146.024 110.141 145.693 108.697 144.887 107.494Z" fill="#F0F0F0"/>
<path d="M257.765 67.4361C257.379 67.3835 256.99 67.3567 256.6 67.3559C256.961 62.0698 254.878 58.6867 250.418 58.6867C247.207 58.6867 243.259 60.4511 239.244 63.4332C240.394 53.1673 236.709 46.4958 228.362 46.4958C221.639 46.4958 213.119 50.8705 204.704 57.9138C203.952 53.8891 201.486 51.4684 197.32 51.4684C190.003 51.4684 179.603 58.9346 171.263 69.463C170.313 68.249 169.094 67.2567 167.696 66.559C166.299 65.8612 164.758 65.4758 163.186 65.431C156.223 64.9571 147.567 69.2443 139.874 76.2292C139.595 75.6402 139.149 75.1396 138.589 74.785C138.029 74.4303 137.377 74.2359 136.708 74.2241C132.896 73.9617 127.684 77.8187 124.594 82.9735H263.894C267.165 75.1574 264.563 68.3183 257.765 67.4361Z" fill="#F0F0F0"/>
<path d="M188.001 271.639C268.527 271.639 333.806 267.944 333.806 263.386C333.806 258.828 268.527 255.132 188.001 255.132C107.475 255.132 42.1953 258.828 42.1953 263.386C42.1953 267.944 107.475 271.639 188.001 271.639Z" fill="#F5F5F5"/>
<path d="M36.7422 69.675L208.176 93.6046L231.179 116.112L36.7422 69.675Z" fill="#1DC0AD"/>
<path opacity="0.6" d="M36.7422 69.675L208.176 93.6046L231.179 116.112L36.7422 69.675Z" fill="white"/>
<path d="M36.7422 69.675L208.176 93.6046L200.219 126.152L36.7422 69.675Z" fill="#1DC0AD"/>
<path opacity="0.2" d="M36.7422 69.675L208.176 93.6046L200.219 126.152L36.7422 69.675Z" fill="black"/>
<path d="M196.7 31.9939L206.649 77.1992C206.908 78.3796 206.673 79.6114 205.996 80.6242C205.32 81.6371 204.256 82.3483 203.039 82.6019L114.243 100.976C113.026 101.225 111.756 100.996 110.712 100.34C109.668 99.6846 108.934 98.6548 108.671 97.4759L98.7143 52.2707C98.4578 51.0894 98.6943 49.8577 99.3722 48.8451C100.05 47.8326 101.114 47.1216 102.331 46.8679L191.128 28.4942C192.346 28.2455 193.616 28.4748 194.661 29.1321C195.705 29.7894 196.438 30.821 196.7 32.0012V31.9939Z" fill="#1DC0AD"/>
<path opacity="0.4" d="M196.7 31.9939L206.649 77.1992C206.908 78.3796 206.673 79.6114 205.996 80.6242C205.32 81.6371 204.256 82.3483 203.039 82.6019L114.243 100.976C113.026 101.225 111.756 100.996 110.712 100.34C109.668 99.6846 108.934 98.6548 108.671 97.4759L98.7143 52.2707C98.4578 51.0894 98.6943 49.8577 99.3722 48.8451C100.05 47.8326 101.114 47.1216 102.331 46.8679L191.128 28.4942C192.346 28.2455 193.616 28.4748 194.661 29.1321C195.705 29.7894 196.438 30.821 196.7 32.0012V31.9939Z" fill="black"/>
<path d="M194.514 29.0338L164.848 64.345C162.096 67.6188 158.275 69.8839 154.015 70.7656C149.756 71.6473 145.313 71.0927 141.423 69.1936L99.4688 48.7054C100.148 47.76 101.172 47.1005 102.334 46.8607L191.13 28.487C192.289 28.2479 193.498 28.4433 194.514 29.0338Z" fill="#1DC0AD"/>
<path d="M36.7422 69.675L178.141 102.259L200.219 126.152L36.7422 69.675Z" fill="#1DC0AD"/>
<path opacity="0.6" d="M36.7422 69.675L178.141 102.259L200.219 126.152L36.7422 69.675Z" fill="white"/>
<path d="M88.3215 101.082L87.9414 101.711L103.677 110.647L104.057 110.018L88.3215 101.082Z" fill="#1DC0AD"/>
<path d="M111.005 113.958L110.625 114.587L116.283 117.8L116.663 117.171L111.005 113.958Z" fill="#1DC0AD"/>
<path d="M36.7422 69.675L178.141 102.259L150.655 134.377L36.7422 69.675Z" fill="#1DC0AD"/>
<path d="M225.868 146.013C225.678 146.014 225.489 145.979 225.312 145.911L202.286 137.074C201.917 136.93 201.623 136.651 201.466 136.297C201.309 135.943 201.303 135.544 201.449 135.186C201.595 134.828 201.881 134.54 202.245 134.386C202.609 134.231 203.021 134.223 203.391 134.362L226.425 143.199C226.751 143.324 227.021 143.555 227.19 143.853C227.359 144.15 227.415 144.496 227.349 144.83C227.283 145.163 227.099 145.464 226.829 145.68C226.559 145.896 226.219 146.014 225.868 146.013Z" fill="#1DC0AD"/>
<path opacity="0.3" d="M225.868 146.013C225.678 146.014 225.489 145.979 225.312 145.911L202.286 137.074C201.917 136.93 201.623 136.651 201.466 136.297C201.309 135.943 201.303 135.544 201.449 135.186C201.595 134.828 201.881 134.54 202.245 134.386C202.609 134.231 203.021 134.223 203.391 134.362L226.425 143.199C226.751 143.324 227.021 143.555 227.19 143.853C227.359 144.15 227.415 144.496 227.349 144.83C227.283 145.163 227.099 145.464 226.829 145.68C226.559 145.896 226.219 146.014 225.868 146.013Z" fill="black"/>
<path d="M224.513 133.21C224.324 133.209 224.138 133.172 223.964 133.101L211.593 128.325C211.408 128.256 211.239 128.151 211.096 128.018C210.953 127.885 210.838 127.726 210.759 127.55C210.679 127.374 210.637 127.184 210.633 126.992C210.629 126.799 210.665 126.608 210.738 126.429C210.811 126.251 210.92 126.087 211.058 125.949C211.196 125.812 211.361 125.701 211.543 125.625C211.725 125.55 211.921 125.509 212.12 125.507C212.318 125.505 212.515 125.541 212.699 125.613L225.069 130.367C225.44 130.508 225.738 130.786 225.897 131.14C226.056 131.494 226.064 131.895 225.919 132.255C225.813 132.534 225.622 132.775 225.37 132.946C225.119 133.117 224.82 133.209 224.513 133.21Z" fill="#1DC0AD"/>
<path opacity="0.5" d="M224.513 133.21C224.324 133.209 224.138 133.172 223.964 133.101L211.593 128.325C211.408 128.256 211.239 128.151 211.096 128.018C210.953 127.885 210.838 127.726 210.759 127.55C210.679 127.374 210.637 127.184 210.633 126.992C210.629 126.799 210.665 126.608 210.738 126.429C210.811 126.251 210.92 126.087 211.058 125.949C211.196 125.812 211.361 125.701 211.543 125.625C211.725 125.55 211.921 125.509 212.12 125.507C212.318 125.505 212.515 125.541 212.699 125.613L225.069 130.367C225.44 130.508 225.738 130.786 225.897 131.14C226.056 131.494 226.064 131.895 225.919 132.255C225.813 132.534 225.622 132.775 225.37 132.946C225.119 133.117 224.82 133.209 224.513 133.21Z" fill="white"/>
<path d="M198.647 145.824C198.46 145.821 198.274 145.787 198.098 145.722L175.636 137.074C175.451 137.005 175.282 136.9 175.139 136.767C174.996 136.634 174.881 136.475 174.802 136.299C174.722 136.123 174.68 135.933 174.676 135.741C174.672 135.549 174.708 135.358 174.781 135.179C174.854 135 174.963 134.837 175.101 134.699C175.239 134.561 175.404 134.451 175.586 134.375C175.768 134.299 175.964 134.259 176.163 134.256C176.361 134.254 176.558 134.29 176.742 134.362L199.204 142.98C199.53 143.105 199.8 143.336 199.969 143.634C200.138 143.932 200.194 144.277 200.128 144.611C200.062 144.944 199.878 145.245 199.608 145.461C199.338 145.677 198.998 145.795 198.647 145.794V145.824Z" fill="#1DC0AD"/>
<path opacity="0.3" d="M198.647 145.824C198.46 145.821 198.274 145.787 198.098 145.722L175.636 137.074C175.451 137.005 175.282 136.9 175.139 136.767C174.996 136.634 174.881 136.475 174.802 136.299C174.722 136.123 174.68 135.933 174.676 135.741C174.672 135.549 174.708 135.358 174.781 135.179C174.854 135 174.963 134.837 175.101 134.699C175.239 134.561 175.404 134.451 175.586 134.375C175.768 134.299 175.964 134.259 176.163 134.256C176.361 134.254 176.558 134.29 176.742 134.362L199.204 142.98C199.53 143.105 199.8 143.336 199.969 143.634C200.138 143.932 200.194 144.277 200.128 144.611C200.062 144.944 199.878 145.245 199.608 145.461C199.338 145.677 198.998 145.795 198.647 145.794V145.824Z" fill="black"/>
<path d="M279.966 80.071C281.959 83.8406 283.787 87.6174 285.524 91.4817C287.261 95.346 288.878 99.2614 290.291 103.366L290.803 104.919C290.893 105.196 291.021 105.648 291.096 105.969C291.171 106.29 291.239 106.655 291.277 106.961C291.449 108.137 291.537 109.324 291.54 110.512C291.551 112.703 291.446 114.893 291.224 117.074C290.804 121.295 290.121 125.488 289.178 129.629L285.05 129.184C284.997 125.079 284.96 120.931 284.809 116.884C284.742 114.872 284.621 112.852 284.411 110.956C284.315 110.066 284.165 109.182 283.96 108.31C283.922 108.106 283.862 107.952 283.817 107.785C283.772 107.617 283.726 107.559 283.651 107.34L283.08 105.962C281.508 102.273 279.741 98.5542 277.936 94.8502L272.477 83.7385L279.966 80.071Z" fill="#E4897B"/>
<path d="M285.113 127.901L283.188 131.394L289.339 133.056C289.339 133.056 290.512 130.249 289.113 128.032L285.113 127.901Z" fill="#E4897B"/>
<path d="M280.832 136.424L286.487 136.862L289.337 133.056L283.186 131.394L280.832 136.424Z" fill="#E4897B"/>
<path d="M254.075 54.8735C253.992 55.3037 253.684 55.6026 253.398 55.5443C253.113 55.486 252.955 55.0996 253.045 54.6767C253.135 54.2538 253.436 53.9476 253.722 54.0059C254.008 54.0642 254.173 54.4507 254.075 54.8735Z" fill="#263238"/>
<path d="M253.733 55.6023C252.939 56.7951 251.98 57.877 250.883 58.8177C251.139 59.0818 251.451 59.289 251.798 59.4249C252.144 59.5609 252.517 59.6224 252.891 59.6051L253.733 55.6023Z" fill="#DE5753"/>
<path d="M256.167 52.8389C256.096 52.8372 256.028 52.8083 255.979 52.7587C255.763 52.5191 255.492 52.3322 255.187 52.2131C254.883 52.0941 254.554 52.0462 254.227 52.0733C254.164 52.0739 254.104 52.0531 254.056 52.0145C254.008 51.9758 253.976 51.922 253.965 51.8625C253.954 51.803 253.965 51.7417 253.997 51.6895C254.028 51.6373 254.078 51.5977 254.136 51.5775C254.555 51.5261 254.979 51.5758 255.373 51.7221C255.767 51.8684 256.117 52.1068 256.393 52.416C256.441 52.4637 256.468 52.5279 256.468 52.5946C256.468 52.6614 256.441 52.7256 256.393 52.7733C256.362 52.8 256.327 52.8198 256.287 52.8311C256.248 52.8425 256.207 52.8451 256.167 52.8389Z" fill="#263238"/>
<path d="M266.518 60.8298C265.728 64.7525 264.939 71.927 267.766 74.5446C267.766 74.5446 266.661 78.5183 259.148 78.5183C250.876 78.5183 255.208 74.5446 255.208 74.5446C259.72 73.5019 259.592 70.2574 258.81 67.2169L266.518 60.8298Z" fill="#E4897B"/>
<path d="M268.897 77.0167C269.491 75.0991 270.145 72.9044 268.792 72.2118C267.288 71.4827 259.113 70.6806 256.293 72.1024C253.473 73.5242 254.278 77.425 254.278 77.425L268.897 77.0167Z" fill="#263238"/>
<path d="M286.241 258.836C286.007 258.866 285.77 258.851 285.542 258.791C285.315 258.731 285.103 258.627 284.917 258.486C284.852 258.398 284.816 258.292 284.816 258.184C284.816 258.075 284.852 257.969 284.917 257.881C284.96 257.806 285.019 257.74 285.091 257.688C285.162 257.637 285.244 257.601 285.331 257.582C286.143 257.407 287.662 258.413 287.73 258.457C287.749 258.473 287.764 258.493 287.773 258.516C287.783 258.539 287.786 258.564 287.782 258.588C287.778 258.612 287.766 258.634 287.749 258.651C287.731 258.668 287.709 258.679 287.684 258.683C287.21 258.782 286.726 258.834 286.241 258.836ZM285.549 257.815H285.391C285.34 257.826 285.292 257.847 285.25 257.877C285.209 257.907 285.175 257.946 285.15 257.99C285.03 258.195 285.105 258.282 285.15 258.311C285.383 258.617 286.511 258.617 287.339 258.486C286.8 258.141 286.188 257.917 285.549 257.83V257.815Z" fill="#407BFF"/>
<path d="M287.652 258.705H287.592C287.02 258.399 285.915 257.247 286.028 256.635C286.047 256.54 286.099 256.455 286.176 256.394C286.253 256.333 286.349 256.299 286.449 256.299C286.548 256.289 286.648 256.298 286.744 256.325C286.839 256.353 286.928 256.399 287.005 256.46C287.644 256.97 287.757 258.516 287.757 258.581C287.76 258.605 287.756 258.628 287.745 258.649C287.735 258.669 287.718 258.687 287.697 258.698C287.683 258.704 287.667 258.706 287.652 258.705ZM286.539 256.518H286.509C286.336 256.518 286.321 256.62 286.313 256.649C286.246 257.007 286.953 257.889 287.517 258.304C287.479 257.695 287.253 257.111 286.87 256.627C286.819 256.589 286.761 256.561 286.699 256.545C286.637 256.528 286.572 256.524 286.509 256.533L286.539 256.518Z" fill="#407BFF"/>
<path d="M253.07 258.836C252.363 258.836 251.679 258.741 251.446 258.435C251.387 258.354 251.355 258.257 251.355 258.158C251.355 258.059 251.387 257.962 251.446 257.881C251.492 257.806 251.552 257.741 251.625 257.689C251.697 257.638 251.78 257.601 251.867 257.582C252.777 257.341 254.717 258.406 254.8 258.449C254.822 258.463 254.839 258.483 254.85 258.506C254.861 258.53 254.864 258.555 254.86 258.581C254.856 258.606 254.843 258.63 254.824 258.648C254.805 258.666 254.781 258.679 254.755 258.683C254.199 258.784 253.635 258.835 253.07 258.836ZM252.19 257.8C252.108 257.789 252.025 257.789 251.942 257.8C251.889 257.811 251.839 257.831 251.795 257.862C251.751 257.892 251.714 257.931 251.687 257.975C251.589 258.136 251.626 258.209 251.687 258.253C251.935 258.588 253.333 258.61 254.371 258.471C253.695 258.117 252.954 257.894 252.19 257.815V257.8Z" fill="#407BFF"/>
<path d="M254.738 258.705H254.686C254.016 258.421 252.7 257.247 252.798 256.656C252.798 256.51 252.926 256.335 253.287 256.299C253.421 256.279 253.558 256.289 253.688 256.326C253.818 256.364 253.938 256.43 254.039 256.518C254.746 257.072 254.889 258.515 254.896 258.581C254.899 258.603 254.896 258.626 254.887 258.646C254.877 258.667 254.862 258.685 254.844 258.698C254.828 258.706 254.81 258.711 254.792 258.712C254.774 258.714 254.755 258.711 254.738 258.705ZM253.392 256.518H253.309C253.076 256.518 253.061 256.634 253.054 256.663C252.994 257.028 253.896 257.939 254.558 258.333C254.493 257.721 254.23 257.144 253.806 256.685C253.698 256.595 253.564 256.542 253.422 256.532L253.392 256.518Z" fill="#407BFF"/>
<path d="M260.814 258.574H255.287L254.738 246.172H260.265L260.814 258.574Z" fill="#E4897B"/>
<path d="M293.986 258.574H288.458L285.684 246.172H291.203L293.986 258.574Z" fill="#E4897B"/>
<path d="M288.068 257.954H294.272C294.383 257.955 294.49 257.992 294.576 258.06C294.662 258.127 294.722 258.221 294.746 258.326L295.836 263.087C295.861 263.203 295.859 263.323 295.829 263.438C295.8 263.553 295.744 263.66 295.666 263.751C295.588 263.842 295.49 263.915 295.379 263.964C295.267 264.013 295.146 264.037 295.024 264.035C292.858 263.999 291.806 263.875 289.076 263.875C287.399 263.875 283.94 264.05 281.616 264.05C279.292 264.05 278.999 261.862 279.947 261.622C284.203 260.717 285.805 259.471 287.166 258.289C287.413 258.073 287.735 257.953 288.068 257.954Z" fill="#263238"/>
<path d="M255.327 257.954H261.343C261.453 257.955 261.561 257.992 261.647 258.06C261.733 258.127 261.793 258.221 261.816 258.326L262.907 263.087C262.933 263.202 262.932 263.321 262.904 263.435C262.876 263.55 262.821 263.657 262.745 263.748C262.668 263.839 262.571 263.912 262.461 263.962C262.351 264.012 262.231 264.037 262.11 264.035C259.936 263.999 256.793 263.875 254.056 263.875C250.86 263.875 248.092 264.05 244.34 264.05C242.084 264.05 241.445 261.862 242.392 261.622C246.716 260.703 250.243 260.608 253.981 258.377C254.379 258.115 254.846 257.968 255.327 257.954Z" fill="#263238"/>
<path d="M252.674 83.9506C248.054 83.6036 243.458 83.0121 238.905 82.1788C236.649 81.756 234.348 81.282 232.062 80.6842C229.718 80.1027 227.417 79.372 225.173 78.4968C224.594 78.2635 224.008 78.0083 223.429 77.7677C222.777 77.4563 222.149 77.1006 221.549 76.7032C220.466 76.0105 219.533 75.2887 218.608 74.5741C216.766 73.1159 215.059 71.6577 213.344 70.163C209.983 67.1444 206.794 64.0238 203.719 60.7428L206.486 57.7461L217.398 65.3508C219.195 66.6049 221.015 67.8371 222.805 68.9964C223.692 69.5724 224.602 70.1119 225.437 70.5713C225.786 70.7643 226.147 70.9348 226.519 71.0817C226.963 71.2494 227.414 71.4171 227.888 71.5775C231.952 72.7909 236.109 73.6929 240.319 74.2752C244.613 74.9314 249.049 75.471 253.336 75.9084L252.674 83.9506Z" fill="#E4897B"/>
<path d="M277.655 75.7556C282.836 76.9076 288.07 91.5847 288.07 91.5847L277.414 98.9998C277.414 98.9998 274.406 92.1607 271.503 86.182C268.465 79.9189 272.361 74.5817 277.655 75.7556Z" fill="#407BFF"/>
<path opacity="0.4" d="M277.655 75.7556C282.836 76.9076 288.07 91.5847 288.07 91.5847L277.414 98.9998C277.414 98.9998 274.406 92.1607 271.503 86.182C268.465 79.9189 272.361 74.5817 277.655 75.7556Z" fill="black"/>
<path d="M274.668 83.7756L272.555 88.3618C274.743 92.9406 276.743 97.4757 277.277 98.686C277.202 93.2687 276.142 86.5463 274.668 83.7756Z" fill="#407BFF"/>
<path opacity="0.6" d="M274.668 83.7756L272.555 88.3618C274.743 92.9406 276.743 97.4757 277.277 98.686C277.202 93.2687 276.142 86.5463 274.668 83.7756Z" fill="black"/>
<path d="M246.711 76.0321C246.711 76.0321 240.83 82.4702 246.38 122.331H275.926C276.136 117.956 273.286 96.4765 277.655 75.7551C274.389 75.1453 271.086 74.741 267.767 74.5447C263.584 74.3113 259.391 74.3113 255.208 74.5447C252.34 74.8249 249.499 75.3222 246.711 76.0321Z" fill="#407BFF"/>
<path opacity="0.4" d="M246.711 76.0321C246.711 76.0321 240.83 82.4702 246.38 122.331H275.926C276.136 117.956 273.286 96.4765 277.655 75.7551C274.389 75.1453 271.086 74.741 267.767 74.5447C263.584 74.3113 259.391 74.3113 255.208 74.5447C252.34 74.8249 249.499 75.3222 246.711 76.0321Z" fill="#1DC0AD"/>
<path d="M244.518 83.7756C244.322 85.2849 244.172 87.0712 244.074 89.1784C246.992 88.3293 249.764 87.0664 252.301 85.4307L244.518 83.7756Z" fill="#407BFF"/>
<path opacity="0.6" d="M244.518 83.7756C244.322 85.2849 244.172 87.0712 244.074 89.1784C246.992 88.3293 249.764 87.0664 252.301 85.4307L244.518 83.7756Z" fill="black"/>
<path d="M257.185 84.5776C253.229 87.9752 238.129 87.6326 238.129 87.6326L237.633 73.4585C242.732 74.1627 247.876 74.5233 253.026 74.5376C261.441 74.3699 261.501 80.8299 257.185 84.5776Z" fill="#407BFF"/>
<path opacity="0.4" d="M257.185 84.5776C253.229 87.9752 238.129 87.6326 238.129 87.6326L237.633 73.4585C242.732 74.1627 247.876 74.5233 253.026 74.5376C261.441 74.3699 261.501 80.8299 257.185 84.5776Z" fill="black"/>
<path d="M206.626 57.7752L202.866 53.4807L198.812 57.8554C198.812 57.8554 201.309 61.9239 205.272 61.2823L206.626 57.7752Z" fill="#E4897B"/>
<path d="M197.482 48.4717L196.023 54.0786L198.783 57.8263L202.837 53.4807L197.482 48.4717Z" fill="#E4897B"/>
<path d="M254.738 246.178L255.024 252.566H260.551L260.265 246.178H254.738Z" fill="#CE6F64"/>
<path d="M291.211 246.178H285.684L287.112 252.566H292.64L291.211 246.178Z" fill="#CE6F64"/>
<path d="M258.064 49.5798C253.109 47.3925 251.544 37.6734 265.802 40.1013C265.802 40.1013 263.652 42.4053 268.013 43.8636C272.375 45.3218 268.728 54.3264 258.064 49.5798Z" fill="#263238"/>
<path d="M268.832 56.8711C267.411 61.9749 266.854 65.081 263.568 67.2173C258.65 70.4254 252.536 66.7434 252.341 61.2969C252.168 56.4045 254.522 48.829 260.199 47.7936C261.452 47.5554 262.748 47.6324 263.961 48.0174C265.175 48.4024 266.267 49.0824 267.133 49.9927C267.998 50.903 268.609 52.0131 268.907 53.2172C269.204 54.4214 269.179 55.6793 268.832 56.8711Z" fill="#E4897B"/>
<path d="M265.606 42.6534C268.982 44.4761 273.555 45.5698 273.126 48.1655C272.562 51.3371 275.886 49.3539 275.111 54.0713C274.607 57.1555 268.742 66.5027 264.583 66.0507C258.372 65.3216 259.161 56.1639 259.139 51.3371C259.124 48.4863 258.988 39.0588 265.606 42.6534Z" fill="#263238"/>
<path d="M258.394 46.7437C256.89 47.0863 254.897 55.493 260.725 56.2659C267.425 57.1481 258.394 46.7437 258.394 46.7437Z" fill="#263238"/>
<path d="M258.544 49.7257C256.701 49.8861 252.528 47.7352 253.039 44.4979C253.039 44.476 255.679 48.282 258.544 49.7257Z" fill="#263238"/>
<path d="M261.282 56.9363C260.716 58.1384 259.756 59.1254 258.552 59.7434C256.965 60.5454 256.07 59.3788 256.431 57.8331C256.754 56.4478 257.973 54.3552 259.605 54.1875C261.236 54.0198 261.936 55.4781 261.282 56.9363Z" fill="#E4897B"/>
<path d="M269.555 51.0381C270.679 50.5652 271.664 49.8295 272.422 48.8968C273.181 47.964 273.689 46.8635 273.901 45.6936C273.901 45.6936 276.383 52.3797 269.555 51.0381Z" fill="#263238"/>
<path d="M275.825 50.9287C275.302 50.588 274.7 50.3783 274.072 50.3185C273.445 50.2587 272.812 50.3506 272.23 50.586C272.23 50.586 274.547 47.6768 275.825 50.9287Z" fill="#263238"/>
<path d="M256.859 122.331C256.859 122.331 263.131 163.264 266.568 178.597C270.328 195.367 284.541 251.334 284.541 251.334H294.655C294.655 251.334 285.293 196.745 283.142 180.092C280.811 162.046 275.923 122.302 275.923 122.302L256.859 122.331Z" fill="#407BFF"/>
<path opacity="0.5" d="M256.859 122.331C256.859 122.331 263.131 163.264 266.568 178.597C270.328 195.367 284.541 251.334 284.541 251.334H294.655C294.655 251.334 285.293 196.745 283.142 180.092C280.811 162.046 275.923 122.302 275.923 122.302L256.859 122.331Z" fill="white"/>
<path d="M282.927 247.717C282.882 247.717 283.972 251.487 283.972 251.487H295.358L295.147 248.125L282.927 247.717Z" fill="#407BFF"/>
<path opacity="0.1" d="M282.927 247.717C282.882 247.717 283.972 251.487 283.972 251.487H295.358L295.147 248.125L282.927 247.717Z" fill="black"/>
<path d="M260.823 136.913C268.073 138.291 267.305 164.503 266.433 177.984C264.343 168.455 261.282 150.117 259.191 137.103C259.697 136.861 260.273 136.794 260.823 136.913Z" fill="#407BFF"/>
<path opacity="0.4" d="M260.823 136.913C268.073 138.291 267.305 164.503 266.433 177.984C264.343 168.455 261.282 150.117 259.191 137.103C259.697 136.861 260.273 136.794 260.823 136.913Z" fill="white"/>
<path d="M246.379 122.331C246.379 122.331 245.627 162.374 246.221 178.713C246.845 195.702 252.989 251.333 252.989 251.333H262.344C262.344 251.333 262.689 196.693 263.096 180.011C263.554 161.82 265.818 122.331 265.818 122.331H246.379Z" fill="#407BFF"/>
<path opacity="0.5" d="M246.379 122.331C246.379 122.331 245.627 162.374 246.221 178.713C246.845 195.702 252.989 251.333 252.989 251.333H262.344C262.344 251.333 262.689 196.693 263.096 180.011C263.554 161.82 265.818 122.331 265.818 122.331H246.379Z" fill="white"/>
<path d="M254.926 244.815C254.903 244.815 254.882 244.807 254.865 244.792C254.848 244.777 254.838 244.757 254.836 244.735C253.182 229.336 249.294 192.078 248.82 178.713C248.316 165.072 248.775 134.463 248.925 125.408C248.925 125.384 248.935 125.362 248.952 125.346C248.969 125.329 248.992 125.32 249.015 125.32C249.04 125.32 249.064 125.329 249.082 125.345C249.1 125.361 249.111 125.384 249.113 125.408C248.963 134.463 248.504 165.072 249.008 178.706C249.497 192.071 253.385 229.314 255.024 244.713C255.024 244.738 255.015 244.762 254.999 244.78C254.982 244.799 254.959 244.812 254.934 244.815H254.926Z" fill="#407BFF"/>
<path opacity="0.4" d="M254.926 244.815C254.903 244.815 254.882 244.807 254.865 244.792C254.848 244.777 254.838 244.757 254.836 244.735C253.182 229.336 249.294 192.078 248.82 178.713C248.316 165.072 248.775 134.463 248.925 125.408C248.925 125.384 248.935 125.362 248.952 125.346C248.969 125.329 248.992 125.32 249.015 125.32C249.04 125.32 249.064 125.329 249.082 125.345C249.1 125.361 249.111 125.384 249.113 125.408C248.963 134.463 248.504 165.072 249.008 178.706C249.497 192.071 253.385 229.314 255.024 244.713C255.024 244.738 255.015 244.762 254.999 244.78C254.982 244.799 254.959 244.812 254.934 244.815H254.926Z" fill="white"/>
<path d="M251.166 247.717C251.128 247.717 251.7 251.487 251.7 251.487H263.077L263.386 248.125L251.166 247.717Z" fill="#407BFF"/>
<path opacity="0.1" d="M251.166 247.717C251.128 247.717 251.7 251.487 251.7 251.487H263.077L263.386 248.125L251.166 247.717Z" fill="black"/>
</svg>
