<svg width="74" height="74" viewBox="0 0 74 74" fill="none" xmlns="http://www.w3.org/2000/svg">
<g clip-path="url(#clip0)">
<path d="M37.1973 73.2599C57.4172 73.2599 73.8087 56.8684 73.8087 36.6485C73.8087 16.4286 57.4172 0.0371094 37.1973 0.0371094C16.9774 0.0371094 0.585938 16.4286 0.585938 36.6485C0.585938 56.8684 16.9774 73.2599 37.1973 73.2599Z" fill="#7186A0"/>
<path d="M34.2031 41.8435C36.4548 43.171 38.2417 43.171 39.5639 41.8435C42.1627 39.2342 44.4536 34.6556 46.4363 28.1077C47.3224 26.3366 49.4773 25.6188 51.2495 26.5043C51.9438 26.8512 52.5067 27.4138 52.8538 28.1077L62.5406 47.4693" stroke="white" stroke-width="7.67658" stroke-dasharray="3.54 3.54"/>
<path d="M11.8398 47.4693L21.5266 28.1077C22.4127 26.3366 24.5676 25.6188 26.3397 26.5043C27.034 26.8512 27.597 27.4138 27.9441 28.1077C31.4227 35.4911 33.8779 40.615 35.3098 43.4795C36.0205 44.9011 37.6158 44.1989 40.096 41.3728" stroke="white" stroke-width="7.67658"/>
</g>
<defs>
<clipPath id="clip0">
<rect width="73.2228" height="73.2228" fill="white" transform="translate(0.585938 0.0371094)"/>
</clipPath>
</defs>
</svg>
