<svg width="95" height="62" viewBox="0 0 95 62" fill="none" xmlns="http://www.w3.org/2000/svg">
<path d="M12.9667 0.652585C10.3767 0.936403 6.72249 1.48827 4.08554 1.99284C1.17472 2.55259 0.775656 2.67873 0.673934 3.08869C0.611335 3.34886 0.767831 3.72728 1.02605 3.90861C1.1356 3.98745 3.49868 5.27251 6.27648 6.75467C20.2672 14.2443 35.103 22.2701 38.2799 24.0833C40.3221 25.2423 41.8323 26.4879 42.6461 27.6784C42.8652 27.9937 43.2095 28.5929 43.4051 28.995C44.0545 30.3352 44.2345 31.0999 45.1578 36.4373C45.6352 39.1651 46.0655 41.546 46.1125 41.7195C46.3237 42.4921 47.1375 42.8469 47.8261 42.4842C48.2643 42.2477 48.4051 41.8771 48.679 40.261C50.1188 31.8253 50.3848 30.5638 51.0343 29.1132C51.9028 27.1896 53.2956 25.8099 55.9639 24.241C58.1939 22.9323 80.1894 11.0277 90.9015 5.33558C92.2474 4.61815 93.4368 3.93226 93.5854 3.79035C93.7732 3.60114 93.8358 3.46711 93.8358 3.27002C93.8358 2.74968 93.5463 2.61566 91.4493 2.18993C88.3976 1.57499 83.9297 0.881217 81.6292 0.676237C78.0141 0.353 74.1956 1.15715 70.831 2.94678C69.2504 3.79035 67.0125 5.36712 65.8544 6.46297C64.5398 7.69285 60.1423 12.9671 55.7917 18.5252L54.6337 19.9995H47.2627H39.8839L39.524 19.5422C39.3284 19.2978 38.3972 18.1153 37.4583 16.9248C33.4989 11.9028 30.2673 8.06339 28.7649 6.58123C27.1061 4.95716 24.1561 3.0335 21.8478 2.07956C20.4237 1.48827 18.7961 1.03889 17.2312 0.802378C16.4409 0.684121 13.624 0.581631 12.9667 0.652585Z" fill="#7186A0"/>
<path d="M18.7104 49.1618C16.9029 49.5481 15.5101 50.573 14.7354 52.0631C14.1955 53.1195 14.0703 53.7108 14.0703 55.2403C14.0703 56.7224 14.1955 57.3531 14.6885 58.3702C15.9248 60.8851 19.1955 61.9652 22.7558 61.027C23.5148 60.8299 24.1095 60.5776 24.1095 60.4436C24.1095 60.3411 23.5461 57.9681 23.5148 57.9287C23.4992 57.9129 23.2801 58.0075 23.0375 58.1336C22.1142 58.6224 21.5899 58.7486 20.471 58.7486C19.2425 58.7486 18.7887 58.5988 18.1314 57.9917C17.3332 57.2585 17.0203 56.344 17.0829 54.8855C17.1455 53.5295 17.568 52.6859 18.4757 52.0867C19.0782 51.7004 19.5868 51.5743 20.5101 51.5822C21.3552 51.5901 22.0046 51.7399 22.8262 52.1183L23.3818 52.3784L23.82 51.1486C24.2112 50.0685 24.2504 49.9108 24.1486 49.832C23.9295 49.6664 22.5915 49.2564 21.8873 49.1303C20.9639 48.9726 19.5555 48.9884 18.7104 49.1618Z" fill="#7186A0"/>
<path d="M42.0736 49.1226C40.2895 49.5405 38.9593 50.6442 38.2316 52.2998C37.8404 53.1907 37.6995 53.9869 37.7073 55.2799C37.7152 56.6911 37.856 57.3376 38.3959 58.4492C39.5383 60.7907 42.1362 61.8313 45.0861 61.1454C45.8216 60.972 46.8858 60.4911 46.8858 60.3334C46.8858 60.2152 46.7137 59.3085 46.6824 59.277C46.6745 59.2612 46.4398 59.3716 46.1659 59.5214C45.5008 59.8919 44.8044 60.1127 43.9515 60.2152C42.0423 60.4517 40.3052 59.5687 39.5305 57.9683C39.0454 56.9828 38.9437 56.4861 38.9437 55.1616C38.9437 54.3181 38.9828 53.8844 39.0845 53.506C39.4444 52.1421 40.2582 51.0857 41.3302 50.5654C42.1127 50.1869 42.7074 50.0844 43.7402 50.1396C44.687 50.1869 45.4148 50.384 46.1581 50.7861L46.6432 51.0542L46.8076 50.5417C46.9406 50.1554 46.9562 50.0056 46.8936 49.9268C46.7684 49.777 46.1738 49.5326 45.3522 49.2803C44.4836 49.028 42.8404 48.9492 42.0736 49.1226Z" fill="#7186A0"/>
<path d="M53.0283 49.1298C51.0956 49.5555 49.6089 50.88 48.9203 52.7721C48.6074 53.663 48.4978 54.4356 48.5526 55.5709C48.6074 56.714 48.7325 57.2344 49.1942 58.1962C50.3679 60.6481 53.1457 61.8779 55.8687 61.1447C57.8171 60.6244 59.2099 59.2053 59.8437 57.0767C60.0315 56.4617 60.055 56.2489 60.055 55.2003C60.055 54.2227 60.0237 53.9074 59.8829 53.387C59.6168 52.4016 59.1551 51.5422 58.5213 50.8563C57.6684 49.9339 56.8547 49.4451 55.7201 49.1692C54.9532 48.9879 53.7561 48.9642 53.0283 49.1298ZM55.9079 50.3518C57.6684 51.014 58.7404 52.6538 58.8343 54.8534C58.9204 56.6115 58.4587 57.9518 57.418 58.9846C56.7686 59.631 56.2835 59.9149 55.4462 60.1277C52.911 60.7821 50.5088 59.2605 49.8906 56.6194C49.5933 55.3107 49.7732 53.6866 50.3523 52.4883C50.8218 51.5265 51.8703 50.6198 52.9345 50.2808C53.7091 50.0206 55.1332 50.0601 55.9079 50.3518Z" fill="#7186A0"/>
<path d="M25.6797 50.5101V51.7716H27.5576H29.4356V56.4624V61.1533H30.9223H32.409V56.4624V51.7716H34.2869H36.1649V50.5101V49.2487H30.9223H25.6797V50.5101Z" fill="#7186A0"/>
<path d="M62.8516 55.1931V61.1533H63.4384H64.0253L64.0409 59.0483L64.0644 56.9512L65.2303 56.6832C65.8719 56.5334 66.4353 56.4309 66.4823 56.4467C66.537 56.4703 67.2178 57.5346 68.0081 58.8197L69.44 61.1533H70.0973C70.4573 61.1533 70.7546 61.1218 70.7546 61.0824C70.7546 61.0429 70.066 59.9156 69.2288 58.5832C68.3915 57.2508 67.7029 56.1392 67.7108 56.1156C67.7108 56.0919 67.9533 55.95 68.2507 55.8081C69.4635 55.2247 70.1834 54.1919 70.2616 52.9384C70.3555 51.4562 69.6826 50.2657 68.4385 49.7139C67.6012 49.3355 67.3743 49.3039 65.066 49.2724L62.8516 49.233V55.1931ZM67.523 50.5417C68.1333 50.7388 68.5637 51.1014 68.8297 51.6454C69.0253 52.0396 69.0645 52.1973 69.0566 52.7097C69.0566 53.4114 68.9393 53.7425 68.5167 54.2077C68.1959 54.5782 67.7577 54.8541 67.2334 55.0433C66.85 55.1853 64.3304 55.7923 64.1427 55.7923C64.0409 55.7923 64.0253 55.4139 64.0253 53.0645V50.3367L65.5746 50.3682C66.7405 50.3998 67.2178 50.4392 67.523 50.5417Z" fill="#7186A0"/>
<path d="M73.5899 55.1775L73.6133 61.114H74.2002H74.7871L74.8262 59.1904L74.8653 57.2667L76.1173 56.975C77.8778 56.565 78.2065 56.4626 79.0437 56.0526C80.4052 55.3982 81.086 54.4443 81.1486 53.1119C81.2112 51.8426 80.7965 50.8571 79.9279 50.1791C78.9576 49.4302 78.1126 49.2567 75.4678 49.2488H73.5742L73.5899 55.1775ZM78.3551 50.5733C79.2941 50.8887 79.8418 51.5667 79.9592 52.5916C80.0844 53.6559 79.5132 54.6335 78.4882 55.1381C77.8935 55.4298 77.5101 55.548 75.9842 55.9028L74.8262 56.163V53.2538V50.3368L76.3364 50.3683C77.6118 50.3999 77.917 50.4314 78.3551 50.5733Z" fill="#7186A0"/>
</svg>
