<svg width="79" height="70" viewBox="0 0 79 70" fill="none" xmlns="http://www.w3.org/2000/svg">
<path fill-rule="evenodd" clip-rule="evenodd" d="M38.7945 0.823623C38.1339 0.887009 36.9039 1.2451 36.6444 1.44976C36.6306 1.46052 36.5295 1.5197 36.4194 1.58121C36.1341 1.74073 35.3616 2.36968 35.2848 2.50487C35.2491 2.56756 35.2074 2.61901 35.1921 2.61901C35.1375 2.61901 34.74 3.27603 34.6494 3.51554C34.6212 3.59062 34.5624 3.73961 34.5186 3.84697C34.173 4.69672 34.5657 6.18149 35.364 7.0434C35.4633 7.15053 35.5443 7.25742 35.5443 7.28128C35.5443 7.35028 36.3735 7.95303 36.5676 8.0253C36.6648 8.06132 36.7443 8.10179 36.7443 8.11512C36.7443 8.13757 37.3935 8.39907 37.6194 8.46783C39.7575 9.11783 42.4158 8.50222 43.632 7.07545C43.7613 6.92365 43.8249 6.87991 43.8876 6.90002C44.1459 6.98212 62.2533 14.0594 62.2749 14.0867C62.289 14.1047 62.2599 14.13 62.2101 14.1429C62.1603 14.1557 62.007 14.2072 61.8693 14.2572C61.7319 14.3071 61.5633 14.3667 61.4943 14.3894C61.4256 14.4121 61.3356 14.4467 61.2945 14.4663C61.2531 14.486 61.1406 14.5281 61.0443 14.5599C60.7527 14.6558 60.3903 14.783 59.9694 14.9369C59.5593 15.0871 59.1294 15.2427 58.6443 15.4167C58.4931 15.4712 58.1703 15.5872 57.927 15.6749C57.6837 15.7624 57.4779 15.8342 57.4695 15.8342C57.4614 15.8342 57.1923 15.9305 56.8716 16.0484C56.5509 16.1663 56.2791 16.2629 56.2677 16.2629C56.256 16.2629 55.941 16.3768 55.5675 16.5162C55.194 16.6556 54.8802 16.7698 54.8706 16.7698C54.8607 16.7698 54.519 16.8902 54.111 17.0376C53.703 17.1847 53.2569 17.3449 53.1195 17.3931C52.9818 17.4413 52.7118 17.5383 52.5195 17.6085C52.3269 17.6787 52.0569 17.7748 51.9195 17.8223C51.7818 17.8698 51.4668 17.9835 51.2193 18.0751C50.9718 18.1666 50.6568 18.2805 50.5194 18.328C50.382 18.3755 50.1006 18.4758 49.8945 18.5511C49.5084 18.6919 49.1196 18.8306 48.7695 18.9527C48.6594 18.9911 48.3894 19.0879 48.1695 19.1677C47.9493 19.2477 47.6793 19.344 47.5695 19.3819C47.4594 19.4198 47.178 19.5213 46.9443 19.6074C46.5441 19.7545 46.2327 19.8642 45.8568 19.9898C45.6378 20.063 45.3858 20.1559 45.2943 20.197C45.2238 20.2286 45.1065 20.2705 44.5323 20.4691C44.4021 20.5142 44.2704 20.5509 44.2395 20.5509C44.2065 20.5509 44.1978 20.579 44.2182 20.6192C44.5113 21.2007 44.6208 21.8912 44.5224 22.5391C44.4414 23.074 44.4141 23.0389 44.8023 22.8962C45.1017 22.7863 45.6735 22.5807 46.1193 22.423C46.2294 22.384 46.5105 22.2815 46.7445 22.1952C46.9782 22.1092 47.2818 22.0004 47.4195 21.9538C47.5569 21.9071 47.8383 21.8074 48.0444 21.7323C48.4551 21.5824 48.8463 21.443 49.1943 21.3223C49.3182 21.2793 49.4532 21.2285 49.4943 21.2091C49.5357 21.1899 49.6032 21.164 49.6443 21.1513C49.6857 21.1387 49.815 21.095 49.932 21.0543C50.0487 21.0133 50.2401 20.9465 50.3568 20.9058C50.4738 20.8651 50.7606 20.7612 50.9943 20.6749C51.228 20.5888 51.5319 20.4803 51.6693 20.434C51.807 20.3877 52.1106 20.2794 52.3443 20.1931C52.578 20.107 52.8594 20.0055 52.9695 19.9676C53.0793 19.9299 53.3493 19.8336 53.5695 19.7538C53.7894 19.6738 54.0594 19.5768 54.1695 19.5382C54.3681 19.4682 54.5529 19.4023 55.3194 19.127C55.5393 19.0481 55.7982 18.9565 55.8945 18.9232C55.9905 18.8903 56.2719 18.7897 56.5194 18.6996C57.0903 18.4924 57.4044 18.3794 57.7194 18.2688C57.8568 18.2206 58.2129 18.0915 58.5108 17.982C58.8084 17.8728 59.0598 17.7832 59.0691 17.7832C59.0787 17.7832 59.3478 17.6866 59.6673 17.5688C59.9865 17.4509 60.2577 17.3545 60.2694 17.3545C60.2814 17.3545 60.5223 17.2689 60.8052 17.1643C61.3089 16.9779 62.7651 16.4554 63.4323 16.2215C63.6177 16.1565 63.8733 16.0622 64.0005 16.0122L64.2318 15.9209L64.2756 23.7619C64.3434 35.8768 64.3362 39.4615 64.2444 39.5012C64.203 39.519 64.0569 39.5712 63.9195 39.6168C63.7818 39.6626 63.5343 39.7487 63.3693 39.8083C63.0999 39.9056 62.8626 39.987 62.5695 40.0832C62.5143 40.1012 62.2782 40.1849 62.0445 40.2694C61.8105 40.3538 61.4538 40.4792 61.2516 40.5477C61.0494 40.6165 60.723 40.7304 60.5265 40.8008C60.117 40.9479 59.7363 41.081 59.5194 41.153C59.3139 41.2213 58.9395 41.353 58.5066 41.5095C58.3071 41.5817 58.1346 41.6407 58.1232 41.6407C58.1118 41.6407 57.78 41.756 57.3861 41.897C56.6247 42.1695 56.424 42.2395 56.1444 42.3307C56.0481 42.3623 55.9356 42.4041 55.8945 42.4238C55.8531 42.4437 55.7856 42.4703 55.7445 42.4832C55.7031 42.4961 55.5963 42.5311 55.5069 42.5611C55.4175 42.5908 55.2657 42.6415 55.1694 42.6738C54.8265 42.7882 54.6633 42.8457 54.18 43.0219C53.9109 43.1199 53.6811 43.2001 53.6694 43.2001C53.6577 43.2001 53.4279 43.2803 53.1588 43.3783C52.6677 43.557 52.5051 43.6143 52.1568 43.7303C52.0539 43.7647 51.8343 43.8412 51.6693 43.9004C51.5043 43.9595 51.2907 44.0349 51.1944 44.0676C50.856 44.1829 50.5137 44.3029 49.9194 44.5136C49.5894 44.6308 49.2519 44.7494 49.1694 44.7772C49.0869 44.8053 48.9294 44.8584 48.8193 44.8956C48.7095 44.9328 48.4845 45.0118 48.3195 45.0713C48.1545 45.1309 47.9295 45.21 47.8194 45.2469C47.7093 45.2841 47.5518 45.3372 47.4693 45.365C47.3868 45.3929 47.0982 45.496 46.8279 45.5942C46.5576 45.6925 46.3275 45.7729 46.3167 45.7729C46.2954 45.7729 45.9417 45.8964 45.2943 46.1306C44.8713 46.2835 44.7459 46.3266 44.532 46.3921C44.4699 46.411 44.2506 46.4882 44.0445 46.5637C43.5402 46.7481 43.1067 46.9001 42.8943 46.9668C42.798 46.9969 42.5619 47.0804 42.3693 47.1522L42.0195 47.283L41.9943 38.5657C41.973 31.0735 41.9592 29.832 41.8971 29.7314C41.3547 28.8533 39.7752 28.8491 39.2262 29.7244L39.0945 29.9342V39.6261V49.3181L39.2217 49.5277C39.5919 50.1372 40.5003 50.3484 41.3694 50.0268C41.562 49.9557 41.7645 49.8837 41.8194 49.8668C41.8743 49.85 42.0882 49.7744 42.2943 49.6989C42.5007 49.6236 42.7482 49.5356 42.8445 49.5036C43.1547 49.4004 43.5099 49.276 43.935 49.1209C44.1633 49.0377 44.3592 48.9694 44.37 48.9694C44.3811 48.9694 44.5428 48.9144 44.7297 48.847C45.4068 48.6029 45.6726 48.5086 45.8445 48.4518C45.9405 48.4202 46.1544 48.3463 46.3194 48.2878C46.6839 48.1585 47.0184 48.042 47.2194 47.9744C47.3019 47.9465 47.673 47.8158 48.0444 47.6836C48.7401 47.4359 48.9108 47.3765 49.2318 47.2699C49.335 47.2357 49.5768 47.1499 49.7694 47.0795C49.962 47.0089 50.1981 46.9247 50.2944 46.8924C50.5989 46.7902 50.9562 46.6646 51.387 46.5088C51.6165 46.4255 51.8127 46.3577 51.8229 46.3577C51.8436 46.3577 52.2045 46.2311 52.8444 45.9998C53.0781 45.9154 53.3145 45.8317 53.3694 45.8136C53.6625 45.7175 53.8998 45.6361 54.1695 45.5388C54.3345 45.4792 54.582 45.3912 54.7194 45.3435C54.9681 45.257 56.2152 44.8217 56.6445 44.6718C56.7681 44.6283 57.0045 44.5445 57.1695 44.4851C57.3345 44.4259 57.5538 44.3495 57.657 44.3151C58.035 44.189 58.1772 44.1399 58.5444 44.0073C59.1651 43.7834 59.4963 43.6679 59.5167 43.6679C59.5275 43.6679 59.7576 43.5876 60.0279 43.4899C60.774 43.2197 60.9603 43.1538 61.0695 43.1217C61.1244 43.1054 61.3383 43.0303 61.5444 42.955C61.7508 42.8794 61.998 42.7915 62.0943 42.7597C62.3214 42.6841 62.688 42.5562 63.0945 42.4104C63.273 42.3464 63.5094 42.2631 63.6195 42.2259C63.8496 42.1475 64.1904 42.0276 64.6194 41.8734C64.7844 41.814 64.998 41.7396 65.0943 41.7078C65.1906 41.676 65.4045 41.6021 65.5695 41.5436C65.7345 41.4852 65.9706 41.4024 66.0945 41.3598C66.2181 41.317 66.3747 41.262 66.4425 41.2372C66.51 41.2127 66.6687 41.1135 66.7947 41.0169C67.0113 40.8511 67.0518 40.8017 67.1883 40.5376C67.2501 40.4176 67.2558 30.2214 67.2 19.6153L67.1694 13.7876L67.0509 13.6122C66.8256 13.2791 66.9303 13.3221 55.5714 8.89446L44.5518 4.59918L44.5332 4.32038C44.5164 4.068 44.3613 3.53706 44.2467 3.34012C43.9596 2.84636 43.8384 2.67398 43.6032 2.42394C42.4965 1.24838 40.6779 0.643289 38.7945 0.823623ZM40.0539 3.14364C40.9809 3.33193 41.616 3.98146 41.6181 4.7435C41.6193 5.11656 41.5971 5.20217 41.4159 5.52541C40.9947 6.27552 39.6453 6.66356 38.6574 6.31832C38.541 6.27763 38.433 6.24441 38.4177 6.24441C38.3094 6.24441 37.7517 5.78691 37.5861 5.56214C36.6519 4.29371 38.208 2.76871 40.0539 3.14364ZM63.8601 53.3725C63.7725 53.4141 63.6768 53.4831 63.6477 53.5257C63.5697 53.6391 63.573 68.5376 63.651 68.6707C63.7701 68.8747 63.6549 68.8702 68.8443 68.8702C73.7025 68.8702 73.917 68.8651 74.4444 68.7346C74.5131 68.7177 74.6706 68.6803 74.7945 68.6515C75.6135 68.4612 76.6404 67.8914 77.3082 67.2568C78.5097 66.1156 78.9357 64.3537 78.3513 62.9447C78.2382 62.6722 78.0534 62.3314 78.003 62.3024C77.9838 62.2912 77.9148 62.1995 77.8494 62.0987C77.7843 61.9977 77.6946 61.8837 77.6502 61.8451C77.6058 61.8068 77.5023 61.705 77.4204 61.6194C77.2305 61.4206 76.7265 61.0282 76.4685 60.878C76.359 60.8144 76.2582 60.7514 76.2444 60.7384C76.2306 60.7253 76.1565 60.6892 76.0797 60.6581L75.9399 60.6018L76.1046 60.4656C76.3539 60.2596 76.5444 60.083 76.5444 60.0577C76.5444 60.0451 76.5726 60.0105 76.6068 59.9808C76.7664 59.8418 76.8102 59.7878 76.9911 59.5048C77.7792 58.2714 77.7936 56.8489 77.0301 55.6015C76.7295 55.1101 76.1238 54.5349 75.5652 54.2101C75.4575 54.1474 75.3582 54.087 75.3444 54.076C75.2106 53.9687 74.2881 53.6029 73.9695 53.5308C72.939 53.2976 72.9117 53.2965 68.2488 53.2967C64.149 53.2969 64.0146 53.2993 63.8601 53.3725ZM0.695431 53.5203C0.598831 53.5498 0.523831 53.6094 0.452431 53.7137C0.408931 53.7769 0.394531 55.6892 0.394531 61.2915V68.7849L0.522032 68.9151L0.649531 69.0457H1.69413C2.72643 69.0457 2.74053 69.0445 2.87913 68.9516L3.01953 68.8574L3.04443 66.5925L3.06933 64.3275L3.44433 64.0103C3.65073 63.8358 3.94323 63.5935 4.09443 63.4719C4.24563 63.35 4.58313 63.071 4.84443 62.8514C5.10573 62.6317 5.53743 62.2741 5.80383 62.0566L6.28833 61.6611L6.39513 61.7673C6.45393 61.8255 6.52863 61.895 6.56133 61.9216C6.59403 61.9483 6.73293 62.0755 6.87003 62.2042C7.00713 62.3328 7.13133 62.4467 7.14603 62.4575C7.16073 62.4683 7.26183 62.5646 7.37103 62.672C7.47993 62.7791 7.60353 62.893 7.64613 62.9253C7.68843 62.9573 7.81203 63.0715 7.92093 63.1786C8.02983 63.286 8.15403 63.3999 8.19693 63.4321C8.23983 63.4642 8.36373 63.58 8.47203 63.6894C8.68743 63.9067 9.12573 64.3191 9.33813 64.5041C9.41163 64.5684 9.54963 64.6999 9.64443 64.7965C9.73923 64.8928 9.85113 64.9981 9.89313 65.0304C9.93543 65.0624 10.059 65.1765 10.1679 65.2837C10.2768 65.391 10.4004 65.5049 10.4427 65.5372C10.4853 65.5693 10.6089 65.6834 10.7178 65.7905C10.827 65.8976 10.9284 65.9942 10.9434 66.005C10.9584 66.0155 11.0706 66.1208 11.1927 66.2389C11.3148 66.3568 11.4531 66.4829 11.4996 66.5193C11.5461 66.5556 11.6931 66.6959 11.826 66.8311C11.9586 66.9663 12.1032 67.1031 12.147 67.1354C12.1911 67.1675 12.315 67.2816 12.4227 67.3887C12.5304 67.4961 12.6543 67.61 12.6978 67.6423C12.7413 67.6743 12.8643 67.7885 12.9714 67.8956C13.0785 68.0027 13.1784 68.0993 13.1937 68.1101C13.233 68.1374 13.704 68.5786 13.7943 68.6726C13.8357 68.7154 13.9512 68.8169 14.0511 68.8981L14.2326 69.0457H15.84C17.2314 69.0457 17.4516 69.0377 17.4768 68.9865C17.5077 68.9236 17.4159 68.7184 17.3229 68.6427C17.2923 68.6176 17.1795 68.5096 17.0721 68.4024C16.9647 68.2951 16.8408 68.1812 16.797 68.1489C16.7532 68.1169 16.6053 67.9838 16.4682 67.8533C16.0029 67.4098 15.6864 67.1162 15.5265 66.9794C15.4389 66.9043 15.2784 66.7553 15.1701 66.6482C15.0615 66.5409 14.9376 66.427 14.8944 66.3947C14.8512 66.3626 14.7267 66.2485 14.6178 66.1414C14.5089 66.0342 14.3859 65.9201 14.3445 65.8881C14.3031 65.8558 14.1573 65.7243 14.0205 65.5957C13.8837 65.467 13.7598 65.3529 13.7454 65.3421C13.7313 65.3314 13.6071 65.2175 13.47 65.0888C13.3329 64.9602 13.1979 64.8351 13.17 64.8107C13.1421 64.7864 13.0476 64.6987 12.9597 64.6159C12.8718 64.5329 12.7482 64.4185 12.6846 64.3614C12.6213 64.3043 12.4986 64.1904 12.4122 64.1081C12.3258 64.0258 12.1851 63.9016 12.0996 63.8321C12.0144 63.7624 11.9445 63.6974 11.9445 63.6871C11.9445 63.6686 11.7219 63.4656 11.5068 63.2876C11.445 63.2366 11.3943 63.1842 11.3943 63.1718C11.3943 63.1592 11.3541 63.1204 11.3052 63.0857C11.256 63.0511 11.1267 62.9351 11.0178 62.8278C10.9089 62.7206 10.7856 62.6065 10.7436 62.5744C10.7019 62.5422 10.5684 62.4194 10.4469 62.3015C10.3254 62.1836 10.2021 62.0697 10.1724 62.0482C10.143 62.0267 10.0188 61.9127 9.89643 61.7949C9.77403 61.6767 9.59403 61.5102 9.49653 61.4241C9.39903 61.3383 9.24063 61.1923 9.14433 61.0995C9.04833 61.0069 8.91333 60.8836 8.84433 60.8261C8.77563 60.7683 8.65203 60.6527 8.56953 60.569C8.48703 60.4855 8.35743 60.37 8.28183 60.3124C8.20623 60.2547 8.14443 60.1941 8.14443 60.1775C8.14443 60.1454 8.90763 59.4994 9.60513 58.9406C9.83283 58.7579 10.3233 58.3573 10.6944 58.0502C11.0655 57.7431 11.5212 57.373 11.7069 57.2278C11.8926 57.0825 12.0444 56.9572 12.0444 56.9492C12.0444 56.9413 12.1854 56.8225 12.3573 56.6847C12.6225 56.473 13.4811 55.7613 14.0193 55.3073C14.9085 54.5574 15.2187 54.2975 15.507 54.0608C15.8424 53.7855 15.9315 53.662 15.8763 53.55C15.8517 53.4997 15.6297 53.4915 14.2935 53.4915C12.5211 53.4915 12.6072 53.4775 12.2103 53.8288C12.0687 53.9542 11.7243 54.2409 11.445 54.4659C11.166 54.6912 10.641 55.1197 10.2783 55.4181C9.91593 55.7168 9.48453 56.0693 9.31953 56.2015C9.15453 56.3336 8.69313 56.7109 8.29443 57.0402C7.89573 57.3693 7.47933 57.712 7.36953 57.8018C7.25943 57.8914 6.79533 58.2696 6.33813 58.6419C5.88093 59.0145 5.43393 59.3808 5.34483 59.4559C5.25573 59.5307 4.81743 59.8905 4.37043 60.2549C3.92373 60.6195 3.44343 61.0141 3.30273 61.132L3.04743 61.3465L3.04593 57.5969C3.04443 53.6015 3.05043 53.6967 2.78313 53.5697C2.62053 53.4922 0.918331 53.452 0.695431 53.5203ZM18.507 53.5163C18.3852 53.5566 18.4506 53.9348 18.5973 54.0372C18.6126 54.048 18.891 54.4075 19.2162 54.8364C19.5411 55.2652 19.8657 55.6862 19.9371 55.772C20.0088 55.8576 20.0973 55.9718 20.1339 56.0253C20.1894 56.1067 20.4471 56.4471 20.709 56.7855C20.7423 56.8283 20.7825 56.8723 20.7984 56.883C20.8143 56.8936 20.8593 56.9595 20.898 57.0292C20.937 57.0989 20.9832 57.1558 21.0009 57.1558C21.0183 57.1558 21.0456 57.1866 21.0615 57.2241C21.0771 57.2615 21.1416 57.3557 21.2049 57.4332C21.2679 57.5106 21.4185 57.7035 21.5397 57.8619C21.6609 58.0202 21.9141 58.3489 22.1022 58.5919C22.2903 58.8349 22.4445 59.0414 22.4445 59.0508C22.4445 59.0695 22.7034 59.3857 22.7439 59.4168C22.758 59.4276 22.8033 59.4889 22.8444 59.5532C22.8855 59.6175 22.9305 59.679 22.9443 59.6898C22.9581 59.7003 22.9995 59.7511 23.0367 59.8023C23.0736 59.8535 23.1471 59.9555 23.2002 60.0292C23.2533 60.1029 23.3388 60.2102 23.3898 60.2675C23.4411 60.3251 23.7486 60.7227 24.0732 61.1516C24.3981 61.5804 24.678 61.9399 24.6954 61.9506C24.7131 61.9614 24.7593 62.0271 24.798 62.0968C24.837 62.1665 24.8859 62.2236 24.9066 62.2236C24.9273 62.2236 24.945 62.2456 24.9456 62.2722C24.9462 62.2991 24.9906 62.3649 25.0443 62.4184C25.1394 62.5134 25.1421 62.5992 25.1433 65.5994C25.1445 68.8394 25.1466 68.8695 25.3713 68.9846C25.5888 69.0955 27.4938 69.073 27.6327 68.9579C27.8319 68.7923 27.8418 68.63 27.8433 65.4974L27.8445 62.4755L27.9693 62.3321C28.038 62.2533 28.0944 62.1717 28.0944 62.1509C28.0944 62.1303 28.1112 62.1073 28.1319 62.1001C28.1526 62.0931 28.2459 61.9906 28.3392 61.8728C28.9989 61.0396 29.1444 60.849 29.1444 60.8172C29.1444 60.7975 29.1615 60.7812 29.1825 60.7812C29.2035 60.7812 29.2428 60.7461 29.2701 60.703C29.2971 60.6602 29.499 60.3927 29.7183 60.1087C29.9379 59.8245 30.1422 59.5572 30.1722 59.5144C30.2025 59.4713 30.3957 59.2171 30.6015 58.949C30.8073 58.681 30.9909 58.4354 31.0092 58.4034C31.0272 58.3711 31.0995 58.2747 31.1691 58.1889C31.239 58.103 31.3095 58.0022 31.326 57.9648C31.3425 57.9271 31.3758 57.8965 31.4001 57.8965C31.4244 57.8965 31.4445 57.8804 31.4445 57.8607C31.4445 57.8413 31.5552 57.679 31.6905 57.5003C31.9758 57.123 32.3673 56.6031 32.4927 56.4347C32.5404 56.3703 32.7438 56.1072 32.9448 55.8499C33.1458 55.5926 33.3348 55.3428 33.3648 55.2946C33.3948 55.2467 33.4362 55.2072 33.4569 55.2069C33.4776 55.2069 33.4944 55.1913 33.4944 55.1725C33.4944 55.1377 33.7932 54.7375 33.8844 54.65C33.9114 54.6238 33.9783 54.541 34.0329 54.4659C34.0875 54.3909 34.2249 54.2115 34.3383 54.0672C34.7727 53.5142 34.725 53.4915 33.1377 53.4915C31.5612 53.4915 31.6185 53.4761 31.221 54.004C31.1172 54.142 30.8277 54.5359 30.7095 54.6998C30.6708 54.7536 30.5844 54.8675 30.5175 54.9534C30.4506 55.039 30.3 55.2408 30.183 55.4015C30.0657 55.5625 29.9418 55.729 29.9079 55.772C29.874 55.8148 29.8317 55.8806 29.8143 55.9182C29.7969 55.9556 29.763 55.9863 29.7387 55.9863C29.7144 55.9863 29.6943 56.0024 29.6943 56.0221C29.6943 56.0417 29.5824 56.2038 29.4456 56.3827C29.3088 56.5614 29.157 56.7689 29.1081 56.844C29.0592 56.9191 29.0025 56.9862 28.9818 56.9934C28.9614 57.0005 28.9443 57.0227 28.9443 57.0423C28.9443 57.0622 28.7799 57.2931 28.5786 57.5557C28.3776 57.8182 28.1979 58.0593 28.1796 58.0913C28.1616 58.1236 28.0893 58.22 28.0197 58.3058C27.9498 58.3917 27.8793 58.4925 27.8628 58.5299C27.8463 58.5676 27.813 58.5982 27.7887 58.5982C27.7644 58.5982 27.7443 58.6143 27.7443 58.634C27.7443 58.6534 27.6324 58.8157 27.4956 58.9944C27.3588 59.1731 27.207 59.3808 27.1581 59.4559C27.1092 59.5307 27.0525 59.5981 27.0318 59.6054C27.0114 59.6124 26.9943 59.6339 26.9943 59.6528C26.9943 59.6718 26.8797 59.8386 26.7396 60.0236L26.4849 60.3597L26.3646 60.2217C26.2986 60.1459 26.2443 60.0722 26.2443 60.0584C26.2443 60.0444 26.2026 59.9866 26.1516 59.9295C26.1006 59.8727 26.0025 59.7471 25.9335 59.6507C25.74 59.3789 25.6278 59.2274 25.3767 58.8971C25.2489 58.7292 25.1445 58.5842 25.1445 58.5748C25.1445 58.5655 25.0545 58.4422 24.9444 58.3012C24.8343 58.1599 24.7443 58.0345 24.7443 58.0223C24.7443 58.0102 24.7137 57.9725 24.6762 57.9386C24.6387 57.9047 24.5115 57.7368 24.3939 57.5651C24.276 57.3936 24.141 57.2096 24.0936 57.1558C24.0465 57.1022 23.922 56.9357 23.817 56.7855C23.712 56.6353 23.5629 56.4337 23.4861 56.3371C23.409 56.2408 23.3061 56.1004 23.2578 56.0253C23.2092 55.9503 23.1525 55.8831 23.1318 55.8759C23.1114 55.8689 23.0943 55.8473 23.0943 55.8284C23.0943 55.8092 22.9902 55.6572 22.863 55.4904C22.5606 55.0942 22.4607 54.9588 22.2801 54.6998C22.1976 54.582 22.1043 54.4592 22.0728 54.4271C22.041 54.3948 21.9822 54.316 21.9423 54.2517C21.9024 54.1874 21.8577 54.1259 21.8433 54.1151C21.8289 54.1043 21.7614 54.0117 21.6933 53.9093C21.6252 53.8068 21.5208 53.6751 21.4617 53.6169L21.354 53.5109L19.9617 53.5035C19.1958 53.4993 18.5412 53.5051 18.507 53.5163ZM72.9597 55.4614C73.8666 55.6923 74.373 56.0691 74.7282 56.7775C74.8926 57.1052 74.9337 57.9019 74.8002 58.1695C74.6451 58.4798 74.3757 58.91 74.3364 58.91C74.3133 58.91 74.2944 58.9296 74.2944 58.9537C74.2944 59.0127 73.8747 59.3228 73.6227 59.4498C73.5108 59.5064 73.4082 59.5628 73.3944 59.5752C73.3425 59.622 72.9069 59.7398 72.5943 59.7918C72.3381 59.8343 71.6274 59.8456 69.2319 59.8456H66.1944V57.6041V55.3627H69.3834H72.5721L72.9597 55.4614ZM49.5168 59.9564C49.4907 59.9744 49.1319 60.0989 48.7194 60.2329C47.9928 60.4691 47.8356 60.5218 47.3325 60.6981C47.202 60.744 47.0838 60.7812 47.0694 60.7812C47.055 60.7812 46.9479 60.8144 46.8315 60.8546C46.2864 61.0434 46.1286 61.0962 45.5445 61.2868C45.2007 61.3989 44.7786 61.5413 44.6067 61.6038C44.4348 61.666 44.2827 61.7167 44.2686 61.7167C44.2398 61.7167 43.8141 61.8608 43.6827 61.9149C43.6347 61.9345 43.5648 61.9506 43.527 61.9506C43.4895 61.9506 43.3596 62.0187 43.239 62.1015C41.9964 62.9552 43.4106 64.3637 44.8443 63.7002C44.8857 63.681 44.9532 63.6553 44.9943 63.6426C45.1617 63.5919 45.2805 63.5528 45.5064 63.4749C45.6366 63.4298 45.7551 63.3931 45.7695 63.3931C45.7836 63.3931 45.9021 63.3557 46.0323 63.31C46.5063 63.144 46.6776 63.0864 47.1195 62.9454C47.367 62.8666 47.6931 62.7576 47.8443 62.7036C47.9958 62.6493 48.1644 62.5913 48.2193 62.5742C48.2745 62.5574 48.4038 62.5153 48.507 62.4809C48.6099 62.4465 48.7674 62.3943 48.8568 62.3646C48.9462 62.3352 49.143 62.2683 49.2945 62.2161C49.4457 62.1639 49.815 62.0435 50.1153 61.9483C51.2985 61.5734 51.6492 60.7849 50.8944 60.1964C50.5881 59.9576 49.7313 59.8084 49.5168 59.9564ZM73.3545 61.913C73.8492 61.9881 74.2815 62.12 74.5164 62.2676C74.5455 62.286 74.682 62.3681 74.8194 62.4505C74.9568 62.5328 75.1368 62.6776 75.2193 62.7725C75.3018 62.8673 75.3825 62.9536 75.3993 62.9643C75.7488 63.191 76.0341 64.3885 75.8502 64.8589C75.8259 64.9211 75.7758 65.0507 75.7389 65.1473C75.6354 65.4168 75.3771 65.7821 75.171 65.9493C75.1425 65.9725 75.0489 66.0541 74.9625 66.1308C74.7252 66.3423 74.301 66.5589 73.8693 66.6896C73.3773 66.8384 73.4232 66.8367 69.7569 66.8512L66.1944 66.8655V64.3691V61.8728H69.642C71.8083 61.8728 73.188 61.8877 73.3545 61.913Z" fill="#7186A0"/>
<path fill-rule="evenodd" clip-rule="evenodd" d="M39.331 23.7754C39.3931 23.7845 39.4942 23.7845 39.556 23.7754C39.6181 23.766 39.5674 23.7583 39.4435 23.7583C39.3199 23.7583 39.2692 23.766 39.331 23.7754Z" fill="#7186A0"/>
<path fill-rule="evenodd" clip-rule="evenodd" d="M44.5547 22.071C44.5547 22.146 44.5649 22.1767 44.5775 22.1393C44.5901 22.1018 44.5901 22.0403 44.5775 22.0029C44.5649 21.9652 44.5547 21.9961 44.5547 22.071Z" fill="#7186A0"/>
<path fill-rule="evenodd" clip-rule="evenodd" d="M33.6184 5.44516C33.2059 5.60117 32.6209 5.8208 32.3182 5.93284C32.0158 6.04487 31.4872 6.24181 31.1434 6.37046C30.7996 6.49887 30.4732 6.61956 30.4183 6.6385C30.3634 6.65745 30.2845 6.68879 30.2434 6.70797C30.1657 6.74446 29.7787 6.88947 28.6684 7.29809C28.3108 7.42977 27.7483 7.63935 27.4183 7.76401C27.0883 7.88868 26.5144 8.1041 26.1433 8.24303C25.7719 8.38173 25.1872 8.60089 24.8434 8.72954C24.4996 8.85841 23.9482 9.06471 23.6182 9.18774C22.5055 9.60267 21.5707 9.95212 21.1684 10.1039C20.9482 10.1867 20.3857 10.397 19.9183 10.5715C19.4509 10.7457 18.8884 10.9565 18.6682 11.04C18.4483 11.1232 17.9308 11.3171 17.5183 11.4703C16.0027 12.034 15.5095 12.219 15.1183 12.3706L14.7184 12.5257L14.6932 10.3694C14.6686 8.22689 14.6677 8.21169 14.5552 8.0358C13.9444 7.07987 12.1324 7.22769 11.8162 8.25941C11.725 8.55716 11.7073 41.2917 11.7982 41.5941C12.121 42.6682 13.9306 42.8543 14.5543 41.8778L14.6683 41.6991L14.6812 28.8641C14.6884 21.8048 14.7013 16.029 14.71 16.029C14.7184 16.029 14.8648 16.0816 15.0352 16.1459C15.2056 16.2103 15.3547 16.2629 15.367 16.2629C15.379 16.2629 15.5416 16.3183 15.7285 16.3861C16.1065 16.5234 16.7122 16.7393 17.0182 16.8455C17.1283 16.8839 17.3983 16.9809 17.6182 17.0614C17.8384 17.1416 18.0634 17.2207 18.1183 17.2371C18.2614 17.2794 18.6103 17.4006 19.0432 17.5589C19.6606 17.7844 20.0968 17.9392 20.1154 17.9392C20.125 17.9392 20.3953 18.0356 20.716 18.1535C21.0367 18.2713 21.3067 18.3679 21.3163 18.3679C21.3256 18.3679 21.5212 18.436 21.7507 18.519C22.144 18.6615 22.3033 18.7176 22.8808 18.9183C23.0113 18.9634 23.3095 19.0699 23.5432 19.1543C23.7769 19.239 24.0133 19.3225 24.0682 19.3398C24.247 19.3966 24.6103 19.5241 24.9934 19.6642C25.1995 19.7398 25.447 19.8279 25.5433 19.8602C25.777 19.9386 26.1742 20.0794 26.7088 20.274C26.9509 20.3619 27.1585 20.434 27.1699 20.434C27.1813 20.434 27.3994 20.5109 27.6544 20.6047C28.0993 20.7684 28.2664 20.8276 28.8184 21.0182C28.9558 21.0657 29.2144 21.1574 29.3932 21.2222C29.7856 21.3642 30.2188 21.5148 30.5941 21.6399C30.6625 21.6626 30.7519 21.6975 30.7933 21.7171C30.8344 21.7368 30.9469 21.7789 31.0432 21.8107C31.4152 21.933 31.9417 22.1182 32.6587 22.379C32.9011 22.467 33.1078 22.539 33.1183 22.539C33.1288 22.539 33.3469 22.6157 33.6028 22.7095C33.8587 22.8031 34.1764 22.9179 34.3084 22.9647C34.4404 23.0115 34.5556 23.0707 34.5649 23.0964C35.0305 24.4095 36.1192 25.3367 37.7683 25.8241C38.8504 26.1441 40.3603 26.1202 41.3932 25.7668C41.7004 25.6618 42.2128 25.4569 42.2434 25.4269C42.2572 25.4136 42.3319 25.371 42.4096 25.3325C42.9139 25.0819 43.6147 24.4827 43.9216 24.0399C44.0797 23.8117 44.1283 23.7298 44.2456 23.4943C44.3404 23.3034 44.3602 23.2342 44.4469 22.7926C44.5915 22.056 44.5492 21.5223 44.2975 20.9017C44.2408 20.7623 44.1943 20.6192 44.194 20.5834C44.1931 20.4838 43.7323 19.8286 43.5955 19.7323C43.5802 19.7215 43.5088 19.6513 43.4365 19.5765C42.2779 18.3712 39.9982 17.8272 37.9933 18.277C37.0459 18.4896 35.92 19.0968 35.4391 19.6544C35.3746 19.7295 35.2984 19.812 35.2699 19.8382C35.1397 19.9577 35.104 20.0041 34.9255 20.2871L34.7356 20.5886L34.5769 20.5362C34.4896 20.5074 34.3057 20.4445 34.1683 20.3965C34.0309 20.3486 33.8284 20.2777 33.7183 20.2394C33.6082 20.2008 33.3496 20.1079 33.1432 20.0331C32.9371 19.958 32.6782 19.8663 32.5684 19.8291C32.4583 19.7917 32.1769 19.6923 31.9432 19.6081C31.7095 19.5239 31.4734 19.4401 31.4182 19.4221C31.1128 19.3222 30.9163 19.253 30.4264 19.0734C30.1285 18.9642 29.8771 18.8748 29.8681 18.8748C29.8591 18.8748 29.5066 18.7504 29.0848 18.5983C28.6633 18.4463 28.2394 18.2952 28.1434 18.2627C28.0471 18.2302 27.8332 18.1544 27.6682 18.0948C27.3721 17.9874 27.0346 17.8697 26.6932 17.7551C26.5969 17.7229 26.3497 17.6347 26.1433 17.5591C25.9372 17.4836 25.6783 17.3917 25.5682 17.3545C25.4584 17.3175 25.1995 17.2258 24.9934 17.151C24.1378 16.8406 23.9377 16.7697 23.9179 16.7697C23.9062 16.7697 23.6356 16.6731 23.3161 16.5552C22.9966 16.4374 22.7245 16.3408 22.711 16.3408C22.6888 16.3408 22.552 16.2924 21.7183 15.9897C21.4087 15.8774 21.0487 15.7523 20.7433 15.6508C20.647 15.6187 20.4109 15.535 20.2183 15.4644C20.0257 15.3937 19.7896 15.3098 19.6933 15.2772C19.3879 15.1748 19.0837 15.0667 18.5269 14.8628C18.2293 14.7538 17.9773 14.6647 17.9674 14.6647C17.9575 14.6647 17.7577 14.5943 17.5234 14.5084C17.2894 14.4223 17.0359 14.3337 16.9603 14.3115L16.8229 14.2708L17.0707 14.1772C17.5618 13.9922 18.8206 13.5244 18.9184 13.4907C18.9733 13.4718 19.0519 13.4404 19.0933 13.4213C19.1344 13.4019 19.3594 13.3155 19.5934 13.2292C20.3314 12.9572 21.2956 12.598 21.9682 12.3449C22.3258 12.2104 22.8658 12.0083 23.1682 11.896C23.4709 11.7838 24.067 11.5609 24.4933 11.4006C24.9196 11.2407 25.4257 11.0514 25.6183 10.9803C26.0245 10.8304 27.5848 10.2459 28.1683 10.0251C28.3882 9.94182 28.8832 9.75822 29.2684 9.61694C29.6533 9.4759 30.0019 9.34328 30.0433 9.32247C30.0844 9.30188 30.1747 9.2661 30.2434 9.24317C30.3121 9.22049 30.5707 9.12599 30.8182 9.03314C31.0657 8.94028 31.5382 8.76439 31.8682 8.64229C32.1982 8.5202 32.7607 8.30993 33.1183 8.17497C34.1635 7.78039 34.8958 7.50743 35.2297 7.38837L35.5408 7.27727L35.3128 7.02396C34.8859 6.54939 34.5454 5.90103 34.4674 5.41382C34.4206 5.12239 34.4767 5.12028 33.6184 5.44516ZM40.1476 20.477C41.2312 20.7539 41.9335 21.8058 41.5507 22.5781C41.2591 23.1659 40.8475 23.477 40.0507 23.7111C38.5657 24.1475 36.9073 22.8082 37.417 21.584C37.5754 21.2032 38.1547 20.629 38.3806 20.629C38.4151 20.629 38.4433 20.6115 38.4433 20.59C38.4433 20.5684 38.4844 20.5509 38.5351 20.5509C38.5855 20.5509 38.6434 20.5378 38.6641 20.5217C38.8411 20.3834 39.6817 20.3579 40.1476 20.477ZM53.3932 54.0374C52.9192 54.0723 52.2781 54.1707 51.9184 54.2636C51.2284 54.4418 49.8295 55.0305 49.7515 55.1756C49.7425 55.1926 49.7152 55.2067 49.6909 55.2067C49.6144 55.2067 48.8941 55.7608 48.6268 56.0253C48.4858 56.1647 48.3559 56.2875 48.3376 56.2983C47.935 56.5364 47.2327 57.9968 47.0911 58.8905C46.9501 59.781 47.0287 59.9375 47.5297 59.7644C47.6608 59.719 47.8246 59.6643 47.8933 59.6427C47.962 59.6212 48.0859 59.581 48.1684 59.5534C48.2509 59.5258 48.4027 59.475 48.5059 59.4404C48.6088 59.406 48.7777 59.3501 48.8809 59.316C48.9838 59.2821 49.1074 59.2383 49.1551 59.2187C49.2028 59.199 49.2844 59.1829 49.3366 59.1829C49.4683 59.1829 49.5265 59.1137 49.5661 58.9099C49.5997 58.7366 49.7116 58.4178 49.7917 58.2667C49.8145 58.2239 49.8619 58.1273 49.897 58.0525C49.9321 57.9774 50.0017 57.8693 50.0521 57.8125C50.1022 57.7557 50.1433 57.6963 50.1433 57.6808C50.1433 57.639 50.4811 57.2797 50.671 57.1192C50.7616 57.043 50.8792 56.941 50.9329 56.8926C50.9863 56.8444 51.0472 56.8049 51.0682 56.8049C51.0892 56.8049 51.1429 56.7731 51.1873 56.7342C51.4519 56.5032 52.3075 56.1565 52.9183 56.033C55.2493 55.5617 57.4261 56.4407 58.4494 58.2667C58.6894 58.6948 58.7797 59.7906 58.6141 60.2628C58.5703 60.387 58.5172 60.543 58.4959 60.6092C58.3249 61.1434 57.5269 62.0107 56.8933 62.351C56.7694 62.4175 56.6569 62.4841 56.6434 62.4993C56.5825 62.566 55.9333 62.8125 55.5688 62.9075C54.4561 63.197 53.2282 63.1428 52.1434 62.7561C51.9511 62.6876 51.4702 62.4483 51.4516 62.4118C51.4243 62.3585 51.2932 62.3749 51.1 62.4553C50.8729 62.5501 49.9732 62.8616 49.5184 63.0034C49.2568 63.0848 48.9433 63.2003 48.9433 63.2153C48.9433 63.2946 49.8466 63.895 50.371 64.1642C50.5606 64.2615 51.5431 64.6189 51.7183 64.6542C51.7732 64.6652 51.919 64.7031 52.042 64.7382C52.9585 64.9999 54.541 65.0516 55.5934 64.854C55.6621 64.8411 55.8196 64.8114 55.9432 64.788C56.7619 64.6327 58.0018 64.127 58.6402 63.6878C59.1328 63.3488 59.6488 62.91 59.812 62.6914C59.8681 62.6163 59.9269 62.5461 59.9425 62.5353C60.0562 62.4584 60.6433 61.5689 60.6433 61.4737C60.6433 61.4444 60.6619 61.4037 60.6847 61.3834C60.7435 61.3305 60.9412 60.7828 61.0399 60.3982C61.1089 60.13 61.1092 58.8611 61.0405 58.5914C60.2893 55.645 57.1267 53.7619 53.3932 54.0374ZM38.4934 58.0908C37.8919 58.1517 37.0612 58.3034 36.9709 58.3689C36.9448 58.3877 36.8935 58.4033 36.8575 58.4033C36.7069 58.4033 35.5588 58.8695 35.3458 59.0173C35.2762 59.0655 35.1928 59.105 35.1604 59.105C35.128 59.105 35.0941 59.1181 35.0851 59.1342C35.0758 59.1502 34.9456 59.2423 34.7956 59.3389C34.4356 59.5705 34.2109 59.7452 33.9682 59.9821C33.8581 60.0892 33.7555 60.1856 33.7396 60.1964C33.715 60.213 33.4831 60.4843 33.2551 60.7626C32.4055 61.8007 32.0845 63.4241 32.4691 64.7379C32.6557 65.3751 33.421 66.6751 33.6472 66.7392C33.6727 66.7462 33.6934 66.7693 33.6934 66.7906C33.6934 66.8117 33.7213 66.8519 33.7558 66.88C33.7903 66.908 33.9307 67.0322 34.0684 67.1564C34.3675 67.4261 34.4581 67.4965 34.7692 67.7007C34.8997 67.7863 35.0359 67.8785 35.0713 67.9054C35.107 67.932 35.1604 67.954 35.1898 67.954C35.2192 67.954 35.2432 67.9683 35.2432 67.9856C35.2432 68.0305 35.9761 68.3645 36.379 68.5035C36.5656 68.5678 36.7633 68.6361 36.8182 68.655C36.9151 68.6887 37.27 68.7706 37.9432 68.9146C38.206 68.9708 38.4697 68.9843 39.3184 68.9855C40.4134 68.9871 40.6429 68.9631 41.3965 68.7671C41.5498 68.7273 41.701 68.6948 41.7328 68.6948C41.7646 68.6948 41.9383 68.6421 42.1183 68.5778C42.2983 68.5135 42.4552 68.4609 42.4666 68.4609C42.4963 68.4609 43.4131 68.0251 43.4434 67.9966C43.4572 67.9837 43.5583 67.9222 43.6684 67.8602C44.6293 67.3178 45.7582 66.0574 46.0453 65.2057C46.0669 65.1414 46.1176 64.9922 46.1578 64.8743C46.198 64.7564 46.2445 64.5766 46.261 64.4748C46.2778 64.3731 46.3054 64.2458 46.3228 64.1923C46.3615 64.0718 46.3144 64.0697 46.0054 64.1773C45.7678 64.2599 45.5707 64.3265 45.2434 64.4346C44.6692 64.6245 44.5726 64.6444 44.1637 64.6575C43.7182 64.6718 43.7776 64.6308 43.4848 65.1279C43.3963 65.2778 43.3093 65.4095 43.2913 65.4202C43.273 65.4307 43.2331 65.4771 43.2022 65.5229C42.8416 66.0569 41.7511 66.7015 40.7761 66.9567C38.9485 67.435 36.511 66.8056 35.6176 65.6249C35.5648 65.5552 35.5042 65.4981 35.4826 65.4981C35.461 65.4981 35.4433 65.4822 35.4433 65.4628C35.4433 65.4434 35.3695 65.325 35.2792 65.1997C34.7026 64.3995 34.5982 63.0537 35.0515 62.2626C35.1979 62.007 35.2705 61.8905 35.2945 61.8727C35.3089 61.862 35.3764 61.7691 35.4445 61.6666C36.1591 60.5889 38.1979 59.7943 39.8284 59.9585C40.7308 60.0493 41.8834 60.4375 42.2992 60.7905C42.3436 60.8284 42.4 60.8595 42.4243 60.8599C42.4483 60.8604 42.5296 60.9175 42.6043 60.9867C42.9691 61.3245 42.9343 61.3043 43.0687 61.2555C43.1374 61.2304 43.2553 61.1904 43.3309 61.1666C43.4065 61.1425 43.5022 61.11 43.5436 61.0941C43.6162 61.0665 44.62 60.735 45.0058 60.6113C45.109 60.5783 45.1933 60.5315 45.1933 60.5075C45.1933 60.3573 44.146 59.4517 43.6933 59.2105C43.5697 59.1445 43.4572 59.0802 43.4434 59.0676C43.2901 58.9275 42.1954 58.4882 41.6182 58.3355C41.3341 58.2604 41.209 58.2347 40.6204 58.1301C40.3018 58.0735 38.9158 58.048 38.4934 58.0908Z" fill="#7186A0"/>
<path fill-rule="evenodd" clip-rule="evenodd" d="M38.7945 0.823623C38.1339 0.887009 36.9039 1.2451 36.6444 1.44976C36.6306 1.46052 36.5295 1.5197 36.4194 1.58121C36.1341 1.74073 35.3616 2.36968 35.2848 2.50487C35.2491 2.56756 35.2074 2.61901 35.1921 2.61901C35.1375 2.61901 34.74 3.27603 34.6494 3.51554C34.6212 3.59062 34.5624 3.73961 34.5186 3.84697C34.173 4.69672 34.5657 6.18149 35.364 7.0434C35.4633 7.15053 35.5443 7.25742 35.5443 7.28128C35.5443 7.35028 36.3735 7.95303 36.5676 8.0253C36.6648 8.06132 36.7443 8.10179 36.7443 8.11512C36.7443 8.13757 37.3935 8.39907 37.6194 8.46783C39.7575 9.11783 42.4158 8.50222 43.632 7.07545C43.7613 6.92365 43.8249 6.87991 43.8876 6.90002C44.1459 6.98212 62.2533 14.0594 62.2749 14.0867C62.289 14.1047 62.2599 14.13 62.2101 14.1429C62.1603 14.1557 62.007 14.2072 61.8693 14.2572C61.7319 14.3071 61.5633 14.3667 61.4943 14.3894C61.4256 14.4121 61.3356 14.4467 61.2945 14.4663C61.2531 14.486 61.1406 14.5281 61.0443 14.5599C60.7527 14.6558 60.3903 14.783 59.9694 14.9369C59.5593 15.0871 59.1294 15.2427 58.6443 15.4167C58.4931 15.4712 58.1703 15.5872 57.927 15.6749C57.6837 15.7624 57.4779 15.8342 57.4695 15.8342C57.4614 15.8342 57.1923 15.9305 56.8716 16.0484C56.5509 16.1663 56.2791 16.2629 56.2677 16.2629C56.256 16.2629 55.941 16.3768 55.5675 16.5162C55.194 16.6556 54.8802 16.7698 54.8706 16.7698C54.8607 16.7698 54.519 16.8902 54.111 17.0376C53.703 17.1847 53.2569 17.3449 53.1195 17.3931C52.9818 17.4413 52.7118 17.5383 52.5195 17.6085C52.3269 17.6787 52.0569 17.7748 51.9195 17.8223C51.7818 17.8698 51.4668 17.9835 51.2193 18.0751C50.9718 18.1666 50.6568 18.2805 50.5194 18.328C50.382 18.3755 50.1006 18.4758 49.8945 18.5511C49.5084 18.6919 49.1196 18.8306 48.7695 18.9527C48.6594 18.9911 48.3894 19.0879 48.1695 19.1677C47.9493 19.2477 47.6793 19.344 47.5695 19.3819C47.4594 19.4198 47.178 19.5213 46.9443 19.6074C46.5441 19.7545 46.2327 19.8642 45.8568 19.9898C45.6378 20.063 45.3858 20.1559 45.2943 20.197C45.2238 20.2286 45.1065 20.2705 44.5323 20.4691C44.4021 20.5142 44.2704 20.5509 44.2395 20.5509C44.2065 20.5509 44.1978 20.579 44.2182 20.6192C44.5113 21.2007 44.6208 21.8912 44.5224 22.5391C44.4414 23.074 44.4141 23.0389 44.8023 22.8962C45.1017 22.7863 45.6735 22.5807 46.1193 22.423C46.2294 22.384 46.5105 22.2815 46.7445 22.1952C46.9782 22.1092 47.2818 22.0004 47.4195 21.9538C47.5569 21.9071 47.8383 21.8074 48.0444 21.7323C48.4551 21.5824 48.8463 21.443 49.1943 21.3223C49.3182 21.2793 49.4532 21.2285 49.4943 21.2091C49.5357 21.1899 49.6032 21.164 49.6443 21.1513C49.6857 21.1387 49.815 21.095 49.932 21.0543C50.0487 21.0133 50.2401 20.9465 50.3568 20.9058C50.4738 20.8651 50.7606 20.7612 50.9943 20.6749C51.228 20.5888 51.5319 20.4803 51.6693 20.434C51.807 20.3877 52.1106 20.2794 52.3443 20.1931C52.578 20.107 52.8594 20.0055 52.9695 19.9676C53.0793 19.9299 53.3493 19.8336 53.5695 19.7538C53.7894 19.6738 54.0594 19.5768 54.1695 19.5382C54.3681 19.4682 54.5529 19.4023 55.3194 19.127C55.5393 19.0481 55.7982 18.9565 55.8945 18.9232C55.9905 18.8903 56.2719 18.7897 56.5194 18.6996C57.0903 18.4924 57.4044 18.3794 57.7194 18.2688C57.8568 18.2206 58.2129 18.0915 58.5108 17.982C58.8084 17.8728 59.0598 17.7832 59.0691 17.7832C59.0787 17.7832 59.3478 17.6866 59.6673 17.5688C59.9865 17.4509 60.2577 17.3545 60.2694 17.3545C60.2814 17.3545 60.5223 17.2689 60.8052 17.1643C61.3089 16.9779 62.7651 16.4554 63.4323 16.2215C63.6177 16.1565 63.8733 16.0622 64.0005 16.0122L64.2318 15.9209L64.2756 23.7619C64.3434 35.8768 64.3362 39.4615 64.2444 39.5012C64.203 39.519 64.0569 39.5712 63.9195 39.6168C63.7818 39.6626 63.5343 39.7487 63.3693 39.8083C63.0999 39.9056 62.8626 39.987 62.5695 40.0832C62.5143 40.1012 62.2782 40.1849 62.0445 40.2694C61.8105 40.3538 61.4538 40.4792 61.2516 40.5477C61.0494 40.6165 60.723 40.7304 60.5265 40.8008C60.117 40.9479 59.7363 41.081 59.5194 41.153C59.3139 41.2213 58.9395 41.353 58.5066 41.5095C58.3071 41.5817 58.1346 41.6407 58.1232 41.6407C58.1118 41.6407 57.78 41.756 57.3861 41.897C56.6247 42.1695 56.424 42.2395 56.1444 42.3307C56.0481 42.3623 55.9356 42.4041 55.8945 42.4238C55.8531 42.4437 55.7856 42.4703 55.7445 42.4832C55.7031 42.4961 55.5963 42.5311 55.5069 42.5611C55.4175 42.5908 55.2657 42.6415 55.1694 42.6738C54.8265 42.7882 54.6633 42.8457 54.18 43.0219C53.9109 43.1199 53.6811 43.2001 53.6694 43.2001C53.6577 43.2001 53.4279 43.2803 53.1588 43.3783C52.6677 43.557 52.5051 43.6143 52.1568 43.7303C52.0539 43.7647 51.8343 43.8412 51.6693 43.9004C51.5043 43.9595 51.2907 44.0349 51.1944 44.0676C50.856 44.1829 50.5137 44.3029 49.9194 44.5136C49.5894 44.6308 49.2519 44.7494 49.1694 44.7772C49.0869 44.8053 48.9294 44.8584 48.8193 44.8956C48.7095 44.9328 48.4845 45.0118 48.3195 45.0713C48.1545 45.1309 47.9295 45.21 47.8194 45.2469C47.7093 45.2841 47.5518 45.3372 47.4693 45.365C47.3868 45.3929 47.0982 45.496 46.8279 45.5942C46.5576 45.6925 46.3275 45.7729 46.3167 45.7729C46.2954 45.7729 45.9417 45.8964 45.2943 46.1306C44.8713 46.2835 44.7459 46.3266 44.532 46.3921C44.4699 46.411 44.2506 46.4882 44.0445 46.5637C43.5402 46.7481 43.1067 46.9001 42.8943 46.9668C42.798 46.9969 42.5619 47.0804 42.3693 47.1522L42.0195 47.283L41.9943 38.5657C41.973 31.0735 41.9592 29.832 41.8971 29.7314C41.3547 28.8533 39.7752 28.8491 39.2262 29.7244L39.0945 29.9342V39.6261V49.3181L39.2217 49.5277C39.5919 50.1372 40.5003 50.3484 41.3694 50.0268C41.562 49.9557 41.7645 49.8837 41.8194 49.8668C41.8743 49.85 42.0882 49.7744 42.2943 49.6989C42.5007 49.6236 42.7482 49.5356 42.8445 49.5036C43.1547 49.4004 43.5099 49.276 43.935 49.1209C44.1633 49.0377 44.3592 48.9694 44.37 48.9694C44.3811 48.9694 44.5428 48.9144 44.7297 48.847C45.4068 48.6029 45.6726 48.5086 45.8445 48.4518C45.9405 48.4202 46.1544 48.3463 46.3194 48.2878C46.6839 48.1585 47.0184 48.042 47.2194 47.9744C47.3019 47.9465 47.673 47.8158 48.0444 47.6836C48.7401 47.4359 48.9108 47.3765 49.2318 47.2699C49.335 47.2357 49.5768 47.1499 49.7694 47.0795C49.962 47.0089 50.1981 46.9247 50.2944 46.8924C50.5989 46.7902 50.9562 46.6646 51.387 46.5088C51.6165 46.4255 51.8127 46.3577 51.8229 46.3577C51.8436 46.3577 52.2045 46.2311 52.8444 45.9998C53.0781 45.9154 53.3145 45.8317 53.3694 45.8136C53.6625 45.7175 53.8998 45.6361 54.1695 45.5388C54.3345 45.4792 54.582 45.3912 54.7194 45.3435C54.9681 45.257 56.2152 44.8217 56.6445 44.6718C56.7681 44.6283 57.0045 44.5445 57.1695 44.4851C57.3345 44.4259 57.5538 44.3495 57.657 44.3151C58.035 44.189 58.1772 44.1399 58.5444 44.0073C59.1651 43.7834 59.4963 43.6679 59.5167 43.6679C59.5275 43.6679 59.7576 43.5876 60.0279 43.4899C60.774 43.2197 60.9603 43.1538 61.0695 43.1217C61.1244 43.1054 61.3383 43.0303 61.5444 42.955C61.7508 42.8794 61.998 42.7915 62.0943 42.7597C62.3214 42.6841 62.688 42.5562 63.0945 42.4104C63.273 42.3464 63.5094 42.2631 63.6195 42.2259C63.8496 42.1475 64.1904 42.0276 64.6194 41.8734C64.7844 41.814 64.998 41.7396 65.0943 41.7078C65.1906 41.676 65.4045 41.6021 65.5695 41.5436C65.7345 41.4852 65.9706 41.4024 66.0945 41.3598C66.2181 41.317 66.3747 41.262 66.4425 41.2372C66.51 41.2127 66.6687 41.1135 66.7947 41.0169C67.0113 40.8511 67.0518 40.8017 67.1883 40.5376C67.2501 40.4176 67.2558 30.2214 67.2 19.6153L67.1694 13.7876L67.0509 13.6122C66.8256 13.2791 66.9303 13.3221 55.5714 8.89446L44.5518 4.59918L44.5332 4.32038C44.5164 4.068 44.3613 3.53706 44.2467 3.34012C43.9596 2.84636 43.8384 2.67398 43.6032 2.42394C42.4965 1.24838 40.6779 0.643289 38.7945 0.823623ZM40.0539 3.14364C40.9809 3.33193 41.616 3.98146 41.6181 4.7435C41.6193 5.11656 41.5971 5.20217 41.4159 5.52541C40.9947 6.27552 39.6453 6.66356 38.6574 6.31832C38.541 6.27763 38.433 6.24441 38.4177 6.24441C38.3094 6.24441 37.7517 5.78691 37.5861 5.56214C36.6519 4.29371 38.208 2.76871 40.0539 3.14364ZM63.8601 53.3725C63.7725 53.4141 63.6768 53.4831 63.6477 53.5257C63.5697 53.6391 63.573 68.5376 63.651 68.6707C63.7701 68.8747 63.6549 68.8702 68.8443 68.8702C73.7025 68.8702 73.917 68.8651 74.4444 68.7346C74.5131 68.7177 74.6706 68.6803 74.7945 68.6515C75.6135 68.4612 76.6404 67.8914 77.3082 67.2568C78.5097 66.1156 78.9357 64.3537 78.3513 62.9447C78.2382 62.6722 78.0534 62.3314 78.003 62.3024C77.9838 62.2912 77.9148 62.1995 77.8494 62.0987C77.7843 61.9977 77.6946 61.8837 77.6502 61.8451C77.6058 61.8068 77.5023 61.705 77.4204 61.6194C77.2305 61.4206 76.7265 61.0282 76.4685 60.878C76.359 60.8144 76.2582 60.7514 76.2444 60.7384C76.2306 60.7253 76.1565 60.6892 76.0797 60.6581L75.9399 60.6018L76.1046 60.4656C76.3539 60.2596 76.5444 60.083 76.5444 60.0577C76.5444 60.0451 76.5726 60.0105 76.6068 59.9808C76.7664 59.8418 76.8102 59.7878 76.9911 59.5048C77.7792 58.2714 77.7936 56.8489 77.0301 55.6015C76.7295 55.1101 76.1238 54.5349 75.5652 54.2101C75.4575 54.1474 75.3582 54.087 75.3444 54.076C75.2106 53.9687 74.2881 53.6029 73.9695 53.5308C72.939 53.2976 72.9117 53.2965 68.2488 53.2967C64.149 53.2969 64.0146 53.2993 63.8601 53.3725ZM0.695431 53.5203C0.598831 53.5498 0.523831 53.6094 0.452431 53.7137C0.408931 53.7769 0.394531 55.6892 0.394531 61.2915V68.7849L0.522032 68.9151L0.649531 69.0457H1.69413C2.72643 69.0457 2.74053 69.0445 2.87913 68.9516L3.01953 68.8574L3.04443 66.5925L3.06933 64.3275L3.44433 64.0103C3.65073 63.8358 3.94323 63.5935 4.09443 63.4719C4.24563 63.35 4.58313 63.071 4.84443 62.8514C5.10573 62.6317 5.53743 62.2741 5.80383 62.0566L6.28833 61.6611L6.39513 61.7673C6.45393 61.8255 6.52863 61.895 6.56133 61.9216C6.59403 61.9483 6.73293 62.0755 6.87003 62.2042C7.00713 62.3328 7.13133 62.4467 7.14603 62.4575C7.16073 62.4683 7.26183 62.5646 7.37103 62.672C7.47993 62.7791 7.60353 62.893 7.64613 62.9253C7.68843 62.9573 7.81203 63.0715 7.92093 63.1786C8.02983 63.286 8.15403 63.3999 8.19693 63.4321C8.23983 63.4642 8.36373 63.58 8.47203 63.6894C8.68743 63.9067 9.12573 64.3191 9.33813 64.5041C9.41163 64.5684 9.54963 64.6999 9.64443 64.7965C9.73923 64.8928 9.85113 64.9981 9.89313 65.0304C9.93543 65.0624 10.059 65.1765 10.1679 65.2837C10.2768 65.391 10.4004 65.5049 10.4427 65.5372C10.4853 65.5693 10.6089 65.6834 10.7178 65.7905C10.827 65.8976 10.9284 65.9942 10.9434 66.005C10.9584 66.0155 11.0706 66.1208 11.1927 66.2389C11.3148 66.3568 11.4531 66.4829 11.4996 66.5193C11.5461 66.5556 11.6931 66.6959 11.826 66.8311C11.9586 66.9663 12.1032 67.1031 12.147 67.1354C12.1911 67.1675 12.315 67.2816 12.4227 67.3887C12.5304 67.4961 12.6543 67.61 12.6978 67.6423C12.7413 67.6743 12.8643 67.7885 12.9714 67.8956C13.0785 68.0027 13.1784 68.0993 13.1937 68.1101C13.233 68.1374 13.704 68.5786 13.7943 68.6726C13.8357 68.7154 13.9512 68.8169 14.0511 68.8981L14.2326 69.0457H15.84C17.2314 69.0457 17.4516 69.0377 17.4768 68.9865C17.5077 68.9236 17.4159 68.7184 17.3229 68.6427C17.2923 68.6176 17.1795 68.5096 17.0721 68.4024C16.9647 68.2951 16.8408 68.1812 16.797 68.1489C16.7532 68.1169 16.6053 67.9838 16.4682 67.8533C16.0029 67.4098 15.6864 67.1162 15.5265 66.9794C15.4389 66.9043 15.2784 66.7553 15.1701 66.6482C15.0615 66.5409 14.9376 66.427 14.8944 66.3947C14.8512 66.3626 14.7267 66.2485 14.6178 66.1414C14.5089 66.0342 14.3859 65.9201 14.3445 65.8881C14.3031 65.8558 14.1573 65.7243 14.0205 65.5957C13.8837 65.467 13.7598 65.3529 13.7454 65.3421C13.7313 65.3314 13.6071 65.2175 13.47 65.0888C13.3329 64.9602 13.1979 64.8351 13.17 64.8107C13.1421 64.7864 13.0476 64.6987 12.9597 64.6159C12.8718 64.5329 12.7482 64.4185 12.6846 64.3614C12.6213 64.3043 12.4986 64.1904 12.4122 64.1081C12.3258 64.0258 12.1851 63.9016 12.0996 63.8321C12.0144 63.7624 11.9445 63.6974 11.9445 63.6871C11.9445 63.6686 11.7219 63.4656 11.5068 63.2876C11.445 63.2366 11.3943 63.1842 11.3943 63.1718C11.3943 63.1592 11.3541 63.1204 11.3052 63.0857C11.256 63.0511 11.1267 62.9351 11.0178 62.8278C10.9089 62.7206 10.7856 62.6065 10.7436 62.5744C10.7019 62.5422 10.5684 62.4194 10.4469 62.3015C10.3254 62.1836 10.2021 62.0697 10.1724 62.0482C10.143 62.0267 10.0188 61.9127 9.89643 61.7949C9.77403 61.6767 9.59403 61.5102 9.49653 61.4241C9.39903 61.3383 9.24063 61.1923 9.14433 61.0995C9.04833 61.0069 8.91333 60.8836 8.84433 60.8261C8.77563 60.7683 8.65203 60.6527 8.56953 60.569C8.48703 60.4855 8.35743 60.37 8.28183 60.3124C8.20623 60.2547 8.14443 60.1941 8.14443 60.1775C8.14443 60.1454 8.90763 59.4994 9.60513 58.9406C9.83283 58.7579 10.3233 58.3573 10.6944 58.0502C11.0655 57.7431 11.5212 57.373 11.7069 57.2278C11.8926 57.0825 12.0444 56.9572 12.0444 56.9492C12.0444 56.9413 12.1854 56.8225 12.3573 56.6847C12.6225 56.473 13.4811 55.7613 14.0193 55.3073C14.9085 54.5574 15.2187 54.2975 15.507 54.0608C15.8424 53.7855 15.9315 53.662 15.8763 53.55C15.8517 53.4997 15.6297 53.4915 14.2935 53.4915C12.5211 53.4915 12.6072 53.4775 12.2103 53.8288C12.0687 53.9542 11.7243 54.2409 11.445 54.4659C11.166 54.6912 10.641 55.1197 10.2783 55.4181C9.91593 55.7168 9.48453 56.0693 9.31953 56.2015C9.15453 56.3336 8.69313 56.7109 8.29443 57.0402C7.89573 57.3693 7.47933 57.712 7.36953 57.8018C7.25943 57.8914 6.79533 58.2696 6.33813 58.6419C5.88093 59.0145 5.43393 59.3808 5.34483 59.4559C5.25573 59.5307 4.81743 59.8905 4.37043 60.2549C3.92373 60.6195 3.44343 61.0141 3.30273 61.132L3.04743 61.3465L3.04593 57.5969C3.04443 53.6015 3.05043 53.6967 2.78313 53.5697C2.62053 53.4922 0.918331 53.452 0.695431 53.5203ZM18.507 53.5163C18.3852 53.5566 18.4506 53.9348 18.5973 54.0372C18.6126 54.048 18.891 54.4075 19.2162 54.8364C19.5411 55.2652 19.8657 55.6862 19.9371 55.772C20.0088 55.8576 20.0973 55.9718 20.1339 56.0253C20.1894 56.1067 20.4471 56.4471 20.709 56.7855C20.7423 56.8283 20.7825 56.8723 20.7984 56.883C20.8143 56.8936 20.8593 56.9595 20.898 57.0292C20.937 57.0989 20.9832 57.1558 21.0009 57.1558C21.0183 57.1558 21.0456 57.1866 21.0615 57.2241C21.0771 57.2615 21.1416 57.3557 21.2049 57.4332C21.2679 57.5106 21.4185 57.7035 21.5397 57.8619C21.6609 58.0202 21.9141 58.3489 22.1022 58.5919C22.2903 58.8349 22.4445 59.0414 22.4445 59.0508C22.4445 59.0695 22.7034 59.3857 22.7439 59.4168C22.758 59.4276 22.8033 59.4889 22.8444 59.5532C22.8855 59.6175 22.9305 59.679 22.9443 59.6898C22.9581 59.7003 22.9995 59.7511 23.0367 59.8023C23.0736 59.8535 23.1471 59.9555 23.2002 60.0292C23.2533 60.1029 23.3388 60.2102 23.3898 60.2675C23.4411 60.3251 23.7486 60.7227 24.0732 61.1516C24.3981 61.5804 24.678 61.9399 24.6954 61.9506C24.7131 61.9614 24.7593 62.0271 24.798 62.0968C24.837 62.1665 24.8859 62.2236 24.9066 62.2236C24.9273 62.2236 24.945 62.2456 24.9456 62.2722C24.9462 62.2991 24.9906 62.3649 25.0443 62.4184C25.1394 62.5134 25.1421 62.5992 25.1433 65.5994C25.1445 68.8394 25.1466 68.8695 25.3713 68.9846C25.5888 69.0955 27.4938 69.073 27.6327 68.9579C27.8319 68.7923 27.8418 68.63 27.8433 65.4974L27.8445 62.4755L27.9693 62.3321C28.038 62.2533 28.0944 62.1717 28.0944 62.1509C28.0944 62.1303 28.1112 62.1073 28.1319 62.1001C28.1526 62.0931 28.2459 61.9906 28.3392 61.8728C28.9989 61.0396 29.1444 60.849 29.1444 60.8172C29.1444 60.7975 29.1615 60.7812 29.1825 60.7812C29.2035 60.7812 29.2428 60.7461 29.2701 60.703C29.2971 60.6602 29.499 60.3927 29.7183 60.1087C29.9379 59.8245 30.1422 59.5572 30.1722 59.5144C30.2025 59.4713 30.3957 59.2171 30.6015 58.949C30.8073 58.681 30.9909 58.4354 31.0092 58.4034C31.0272 58.3711 31.0995 58.2747 31.1691 58.1889C31.239 58.103 31.3095 58.0022 31.326 57.9648C31.3425 57.9271 31.3758 57.8965 31.4001 57.8965C31.4244 57.8965 31.4445 57.8804 31.4445 57.8607C31.4445 57.8413 31.5552 57.679 31.6905 57.5003C31.9758 57.123 32.3673 56.6031 32.4927 56.4347C32.5404 56.3703 32.7438 56.1072 32.9448 55.8499C33.1458 55.5926 33.3348 55.3428 33.3648 55.2946C33.3948 55.2467 33.4362 55.2072 33.4569 55.2069C33.4776 55.2069 33.4944 55.1913 33.4944 55.1725C33.4944 55.1377 33.7932 54.7375 33.8844 54.65C33.9114 54.6238 33.9783 54.541 34.0329 54.4659C34.0875 54.3909 34.2249 54.2115 34.3383 54.0672C34.7727 53.5142 34.725 53.4915 33.1377 53.4915C31.5612 53.4915 31.6185 53.4761 31.221 54.004C31.1172 54.142 30.8277 54.5359 30.7095 54.6998C30.6708 54.7536 30.5844 54.8675 30.5175 54.9534C30.4506 55.039 30.3 55.2408 30.183 55.4015C30.0657 55.5625 29.9418 55.729 29.9079 55.772C29.874 55.8148 29.8317 55.8806 29.8143 55.9182C29.7969 55.9556 29.763 55.9863 29.7387 55.9863C29.7144 55.9863 29.6943 56.0024 29.6943 56.0221C29.6943 56.0417 29.5824 56.2038 29.4456 56.3827C29.3088 56.5614 29.157 56.7689 29.1081 56.844C29.0592 56.9191 29.0025 56.9862 28.9818 56.9934C28.9614 57.0005 28.9443 57.0227 28.9443 57.0423C28.9443 57.0622 28.7799 57.2931 28.5786 57.5557C28.3776 57.8182 28.1979 58.0593 28.1796 58.0913C28.1616 58.1236 28.0893 58.22 28.0197 58.3058C27.9498 58.3917 27.8793 58.4925 27.8628 58.5299C27.8463 58.5676 27.813 58.5982 27.7887 58.5982C27.7644 58.5982 27.7443 58.6143 27.7443 58.634C27.7443 58.6534 27.6324 58.8157 27.4956 58.9944C27.3588 59.1731 27.207 59.3808 27.1581 59.4559C27.1092 59.5307 27.0525 59.5981 27.0318 59.6054C27.0114 59.6124 26.9943 59.6339 26.9943 59.6528C26.9943 59.6718 26.8797 59.8386 26.7396 60.0236L26.4849 60.3597L26.3646 60.2217C26.2986 60.1459 26.2443 60.0722 26.2443 60.0584C26.2443 60.0444 26.2026 59.9866 26.1516 59.9295C26.1006 59.8727 26.0025 59.7471 25.9335 59.6507C25.74 59.3789 25.6278 59.2274 25.3767 58.8971C25.2489 58.7292 25.1445 58.5842 25.1445 58.5748C25.1445 58.5655 25.0545 58.4422 24.9444 58.3012C24.8343 58.1599 24.7443 58.0345 24.7443 58.0223C24.7443 58.0102 24.7137 57.9725 24.6762 57.9386C24.6387 57.9047 24.5115 57.7368 24.3939 57.5651C24.276 57.3936 24.141 57.2096 24.0936 57.1558C24.0465 57.1022 23.922 56.9357 23.817 56.7855C23.712 56.6353 23.5629 56.4337 23.4861 56.3371C23.409 56.2408 23.3061 56.1004 23.2578 56.0253C23.2092 55.9503 23.1525 55.8831 23.1318 55.8759C23.1114 55.8689 23.0943 55.8473 23.0943 55.8284C23.0943 55.8092 22.9902 55.6572 22.863 55.4904C22.5606 55.0942 22.4607 54.9588 22.2801 54.6998C22.1976 54.582 22.1043 54.4592 22.0728 54.4271C22.041 54.3948 21.9822 54.316 21.9423 54.2517C21.9024 54.1874 21.8577 54.1259 21.8433 54.1151C21.8289 54.1043 21.7614 54.0117 21.6933 53.9093C21.6252 53.8068 21.5208 53.6751 21.4617 53.6169L21.354 53.5109L19.9617 53.5035C19.1958 53.4993 18.5412 53.5051 18.507 53.5163ZM72.9597 55.4614C73.8666 55.6923 74.373 56.0691 74.7282 56.7775C74.8926 57.1052 74.9337 57.9019 74.8002 58.1695C74.6451 58.4798 74.3757 58.91 74.3364 58.91C74.3133 58.91 74.2944 58.9296 74.2944 58.9537C74.2944 59.0127 73.8747 59.3228 73.6227 59.4498C73.5108 59.5064 73.4082 59.5628 73.3944 59.5752C73.3425 59.622 72.9069 59.7398 72.5943 59.7918C72.3381 59.8343 71.6274 59.8456 69.2319 59.8456H66.1944V57.6041V55.3627H69.3834H72.5721L72.9597 55.4614ZM49.5168 59.9564C49.4907 59.9744 49.1319 60.0989 48.7194 60.2329C47.9928 60.4691 47.8356 60.5218 47.3325 60.6981C47.202 60.744 47.0838 60.7812 47.0694 60.7812C47.055 60.7812 46.9479 60.8144 46.8315 60.8546C46.2864 61.0434 46.1286 61.0962 45.5445 61.2868C45.2007 61.3989 44.7786 61.5413 44.6067 61.6038C44.4348 61.666 44.2827 61.7167 44.2686 61.7167C44.2398 61.7167 43.8141 61.8608 43.6827 61.9149C43.6347 61.9345 43.5648 61.9506 43.527 61.9506C43.4895 61.9506 43.3596 62.0187 43.239 62.1015C41.9964 62.9552 43.4106 64.3637 44.8443 63.7002C44.8857 63.681 44.9532 63.6553 44.9943 63.6426C45.1617 63.5919 45.2805 63.5528 45.5064 63.4749C45.6366 63.4298 45.7551 63.3931 45.7695 63.3931C45.7836 63.3931 45.9021 63.3557 46.0323 63.31C46.5063 63.144 46.6776 63.0864 47.1195 62.9454C47.367 62.8666 47.6931 62.7576 47.8443 62.7036C47.9958 62.6493 48.1644 62.5913 48.2193 62.5742C48.2745 62.5574 48.4038 62.5153 48.507 62.4809C48.6099 62.4465 48.7674 62.3943 48.8568 62.3646C48.9462 62.3352 49.143 62.2683 49.2945 62.2161C49.4457 62.1639 49.815 62.0435 50.1153 61.9483C51.2985 61.5734 51.6492 60.7849 50.8944 60.1964C50.5881 59.9576 49.7313 59.8084 49.5168 59.9564ZM73.3545 61.913C73.8492 61.9881 74.2815 62.12 74.5164 62.2676C74.5455 62.286 74.682 62.3681 74.8194 62.4505C74.9568 62.5328 75.1368 62.6776 75.2193 62.7725C75.3018 62.8673 75.3825 62.9536 75.3993 62.9643C75.7488 63.191 76.0341 64.3885 75.8502 64.8589C75.8259 64.9211 75.7758 65.0507 75.7389 65.1473C75.6354 65.4168 75.3771 65.7821 75.171 65.9493C75.1425 65.9725 75.0489 66.0541 74.9625 66.1308C74.7252 66.3423 74.301 66.5589 73.8693 66.6896C73.3773 66.8384 73.4232 66.8367 69.7569 66.8512L66.1944 66.8655V64.3691V61.8728H69.642C71.8083 61.8728 73.188 61.8877 73.3545 61.913Z" fill="#7186A0"/>
<path fill-rule="evenodd" clip-rule="evenodd" d="M39.331 23.7754C39.3931 23.7845 39.4942 23.7845 39.556 23.7754C39.6181 23.766 39.5674 23.7583 39.4435 23.7583C39.3199 23.7583 39.2692 23.766 39.331 23.7754Z" fill="#7186A0"/>
<path fill-rule="evenodd" clip-rule="evenodd" d="M44.5547 22.071C44.5547 22.146 44.5649 22.1767 44.5775 22.1393C44.5901 22.1018 44.5901 22.0403 44.5775 22.0029C44.5649 21.9652 44.5547 21.9961 44.5547 22.071Z" fill="#7186A0"/>
</svg>
