<svg width="71" height="71" viewBox="0 0 71 71" fill="none" xmlns="http://www.w3.org/2000/svg">
<path fill-rule="evenodd" clip-rule="evenodd" d="M21.5698 24.4342C20.0154 27.7255 18.7343 30.4579 18.7229 30.5062C18.6965 30.6176 21.1981 34.8297 21.2542 34.7686C21.286 34.7341 28.598 18.9163 28.7613 18.5289C28.7883 18.4649 28.3308 18.4479 26.5959 18.4488L24.3961 18.4498L21.5698 24.4342ZM28.8127 24.4702C27.247 27.7824 25.9673 30.5234 25.9687 30.5613C25.9784 30.8356 28.4847 34.8223 28.5585 34.6806C28.6022 34.5967 30.2815 30.9612 32.2907 26.6016C34.2998 22.242 35.9705 18.6239 36.0033 18.5614C36.0596 18.4542 35.9377 18.4477 33.861 18.4477H31.659L28.8127 24.4702ZM38.8955 18.4965C38.4198 19.2827 33.2139 30.5681 33.2741 30.6825C33.4483 31.0138 35.6284 34.6649 35.6942 34.7351C35.7509 34.7958 42.881 19.5161 43.2413 18.5614C43.2867 18.4412 38.968 18.3765 38.8955 18.4965ZM46.1691 18.6589C46.1186 18.7751 45.7641 19.5278 45.3809 20.332C44.9978 21.1359 44.615 21.9474 44.5303 22.1355L44.3759 22.4772L47.529 22.4604L50.6821 22.4435L51.5892 20.4774C52.0881 19.3961 52.4963 18.497 52.4963 18.4795C52.4963 18.4619 51.0934 18.4477 49.3785 18.4477H46.2609L46.1691 18.6589ZM43.6632 24.5063C43.5264 24.801 43.1043 25.6971 42.7252 26.4972C42.3461 27.2975 42.036 27.9625 42.036 27.9753C42.036 27.9881 43.4499 27.9985 45.178 27.9985H48.32L49.2225 26.0409C49.7188 24.9642 50.1346 24.0579 50.1465 24.0267C50.1586 23.9953 48.7866 23.9702 47.0399 23.9702H43.9118L43.6632 24.5063Z" fill="white"/>
<path fill-rule="evenodd" clip-rule="evenodd" d="M14.2266 3.4643C13.5119 3.62271 12.876 4.14109 12.5616 4.82155L12.375 5.22573V26.6014C12.375 46.8101 12.3811 47.9949 12.4888 48.3021C12.7257 48.9771 13.3702 49.5939 14.0496 49.7956C14.552 49.9449 56.6526 49.9449 57.155 49.7956C57.8345 49.5939 58.479 48.9771 58.7158 48.3021C58.8235 47.9949 58.8296 46.8101 58.8296 26.6014V5.22573L58.643 4.82155C58.3155 4.11232 57.6413 3.58517 56.8828 3.445C56.3006 3.33729 14.7141 3.35606 14.2266 3.4643ZM28.7627 18.5613C28.7173 18.7193 21.3069 34.7776 21.2539 34.8325C21.2304 34.8569 20.6338 33.9054 19.928 32.7178L18.6448 30.5585L21.3474 24.8442C22.8338 21.7012 24.1186 18.9763 24.2024 18.7886L24.355 18.4476H26.5752C28.6589 18.4476 28.7934 18.4546 28.7627 18.5613ZM36.0393 18.5288C35.9811 18.6784 28.7019 34.4603 28.5899 34.6795L28.4796 34.8962L27.2006 32.7485C26.4971 31.5672 25.9216 30.5813 25.9216 30.5574C25.9216 30.5139 31.1006 19.5275 31.4539 18.8211L31.6409 18.4476H33.856C35.6016 18.4476 36.0644 18.4648 36.0393 18.5288ZM43.2496 18.6302C42.3454 20.7458 35.7491 34.862 35.6932 34.8009C35.5657 34.6618 33.1653 30.5737 33.1813 30.5225C33.1897 30.495 34.4749 27.767 36.0372 24.4601L38.8778 18.4476H41.1027H43.3276L43.2496 18.6302ZM52.4298 18.7237C52.3623 18.8756 51.9422 19.7892 51.4964 20.7541L50.6859 22.5083L47.5297 22.5251C45.1168 22.5381 44.3735 22.5237 44.3735 22.4644C44.3735 22.4216 44.7901 21.5012 45.2994 20.419L46.2253 18.4511L49.3889 18.4493L52.5526 18.4476L52.4298 18.7237ZM50.1698 23.9408C50.1895 23.9603 49.7802 24.8958 49.2606 26.0197L48.3158 28.0634L45.224 28.0624C43.5234 28.0618 42.1 28.0399 42.0609 28.0136C42.0137 27.982 42.1674 27.5922 42.5156 26.8605C42.8049 26.2525 43.2383 25.3388 43.4787 24.8302L43.9156 23.9052H47.025C48.7351 23.9052 50.1504 23.9212 50.1698 23.9408Z" fill="#7186A0"/>
<path fill-rule="evenodd" clip-rule="evenodd" d="M12.4688 61.0041V66.9166H14.19H15.9113L15.9279 63.2623L15.9448 59.6079L16.7244 63.262L17.5041 66.916L19.625 66.9164C21.2631 66.9166 21.7523 66.8982 21.7748 66.8354C21.7908 66.7908 22.152 65.123 22.5777 63.1295L23.3515 59.5047L23.3684 63.2107L23.385 66.9166H25.1063H26.8275V61.0041V55.0918H23.8459H20.8642L20.7665 55.5304C20.7126 55.7716 20.4395 57.0427 20.1593 58.3552C19.8792 59.6677 19.6324 60.691 19.6108 60.6292C19.589 60.5675 19.3112 59.2962 18.9933 57.8044L18.4151 55.0918H15.4418H12.4688V61.0041ZM27.6071 60.1768V65.2616L28.4365 66.0891L29.2657 66.9166H31.7997H34.3336L35.1935 66.0549L36.0536 65.193V60.1424V55.0918H34.3318H32.61V59.7047V64.3177H31.7978H30.9858V59.7047V55.0918H29.2964H27.6071V60.1768ZM37.6606 55.921L36.8332 56.7502V61.8335V66.9166H38.555H40.2767V64.6101V62.3036H42.7781H45.2795V61.0041V59.7047H42.7781H40.2767V58.6652V57.6256H42.7781H45.2795V56.3587V55.0918H41.8838H38.4881L37.6606 55.921ZM46.0592 61.0041V66.9166H47.7808H49.5026V61.0041V55.0918H47.7808H46.0592V61.0041ZM50.2824 56.3587V57.6256H51.5493H52.8162V62.2712V66.9166H54.5055H56.1947V62.2712V57.6256H57.4618H58.7287V56.3587V55.0918H54.5055H50.2824V56.3587Z" fill="#7186A0"/>
<path fill-rule="evenodd" clip-rule="evenodd" d="M47.5253 22.4762L44.3417 22.5106L47.5053 22.5259C49.5609 22.5359 50.6828 22.5183 50.7089 22.4762C50.731 22.4404 50.7401 22.4182 50.7291 22.4266C50.718 22.435 49.2762 22.4573 47.5253 22.4762ZM44.9915 23.9524C47.816 23.9977 50.2065 23.9986 50.1791 23.9543C50.1627 23.9275 48.74 23.9121 47.018 23.9201C45.2959 23.9282 44.384 23.9428 44.9915 23.9524ZM43.6432 28.0475C44.5098 28.0577 45.9277 28.0577 46.7943 28.0475C47.6609 28.0372 46.9519 28.0289 45.2189 28.0289C43.4857 28.0289 42.7768 28.0372 43.6432 28.0475Z" fill="white"/>
</svg>
