<svg width="86" height="83" viewBox="0 0 86 83" fill="none" xmlns="http://www.w3.org/2000/svg">
<path fill-rule="evenodd" clip-rule="evenodd" d="M39.0331 0.21032C39.0007 0.261204 38.5223 0.298814 37.9077 0.298814C37.3198 0.298814 36.7999 0.335981 36.7523 0.381334C36.7047 0.426908 36.3995 0.48642 36.0742 0.513853C35.7487 0.541065 35.4688 0.603453 35.4519 0.652346C35.4353 0.701238 35.161 0.741282 34.8426 0.741282C34.5244 0.741282 34.2385 0.781104 34.2075 0.829776C34.1766 0.878447 34.0184 0.918269 33.8561 0.918269C33.6938 0.918269 33.5212 0.956985 33.4725 1.00433C33.4236 1.05189 33.1659 1.09813 32.8996 1.1072C32.6335 1.1165 32.3608 1.17711 32.2937 1.24238C32.2268 1.30742 32.069 1.36074 31.9431 1.36074C31.8173 1.36074 31.6891 1.40056 31.6582 1.44923C31.6272 1.4979 31.4838 1.53773 31.3395 1.53773C31.1952 1.53773 31.0518 1.57755 31.0208 1.62622C30.9899 1.67489 30.8679 1.71471 30.7497 1.71471C30.5212 1.71471 29.9754 1.97953 29.9745 2.09081C29.974 2.12731 29.8304 2.15718 29.6551 2.15718C29.4798 2.15718 29.3364 2.197 29.3364 2.24567C29.3364 2.29435 29.193 2.33417 29.0178 2.33417C28.8425 2.33417 28.6991 2.37399 28.6991 2.42266C28.6991 2.47133 28.5748 2.51116 28.423 2.51116C28.2619 2.51116 28.1253 2.56624 28.0948 2.6439C28.0659 2.7169 27.9671 2.77664 27.8754 2.77664C27.7834 2.77664 27.683 2.81646 27.6521 2.86513C27.6211 2.9138 27.4752 2.95362 27.3279 2.95362C27.1807 2.95362 27.0602 2.99345 27.0602 3.04212C27.0602 3.09079 26.9608 3.13061 26.8392 3.13061C26.7175 3.13061 26.5565 3.19034 26.4814 3.26335C26.4063 3.33636 26.2599 3.39609 26.1564 3.39609C26.0526 3.39609 25.9677 3.43591 25.9677 3.48459C25.9677 3.53326 25.8857 3.57308 25.7856 3.57308C25.6854 3.57308 25.6035 3.6129 25.6035 3.66157C25.6035 3.71024 25.501 3.75007 25.3759 3.75007C25.2507 3.75007 25.1482 3.78546 25.1482 3.82905C25.1482 3.87241 25.0458 3.93281 24.9206 3.96334C24.7954 3.99387 24.693 4.05802 24.693 4.10581C24.693 4.15338 24.6111 4.19253 24.5109 4.19253C24.4108 4.19253 24.3288 4.23236 24.3288 4.28103C24.3288 4.3297 24.2708 4.36952 24.1997 4.36952C24.129 4.36952 24.0573 4.4089 24.0404 4.45735C24.0238 4.50558 23.8975 4.55403 23.7598 4.56509C23.622 4.57616 23.5094 4.63611 23.5094 4.6985C23.5094 4.76089 23.4069 4.81199 23.2818 4.81199C23.1566 4.81199 23.0541 4.85181 23.0541 4.90048C23.0541 4.94916 22.9747 4.98898 22.8775 4.98898C22.7803 4.98898 22.6754 5.0288 22.6444 5.07747C22.6135 5.12614 22.5131 5.16597 22.4211 5.16597C22.3294 5.16597 22.2306 5.2257 22.2017 5.29871C22.173 5.37171 22.0865 5.43145 22.01 5.43145C21.9333 5.43145 21.8705 5.47127 21.8705 5.51994C21.8705 5.56861 21.8091 5.60843 21.7339 5.60843C21.6588 5.60843 21.5974 5.64826 21.5974 5.69693C21.5974 5.7456 21.5125 5.78542 21.4087 5.78542C21.3051 5.78542 21.1583 5.8456 21.0827 5.91905C21.0071 5.9925 20.9077 6.02989 20.8617 6.00223C20.8155 5.97458 20.7779 5.9998 20.7779 6.05798C20.7779 6.19847 20.5 6.39846 20.2999 6.402C20.2123 6.40355 20.1406 6.4447 20.1406 6.49337C20.1406 6.54204 20.0778 6.58187 20.0011 6.58187C19.9246 6.58187 19.8381 6.6416 19.8094 6.71461C19.7805 6.78761 19.6999 6.84735 19.63 6.84735C19.5604 6.84735 19.5033 6.88717 19.5033 6.93584C19.5033 6.98451 19.44 7.02433 19.3628 7.02433C19.2854 7.02433 19.1118 7.12389 18.9768 7.24557C18.8416 7.36725 18.6795 7.4668 18.6165 7.4668C18.5534 7.4668 18.5017 7.50662 18.5017 7.5553C18.5017 7.60397 18.4494 7.64379 18.3852 7.64379C18.3212 7.64379 18.2097 7.72343 18.1375 7.82078C18.0654 7.91812 17.9557 7.99776 17.894 7.99776C17.8321 7.99776 17.6791 8.09732 17.5539 8.219C17.4287 8.34068 17.2819 8.44023 17.2277 8.44023C17.1736 8.44023 16.9501 8.61943 16.7311 8.83845C16.5121 9.05748 16.3057 9.23668 16.2727 9.23668C16.1768 9.23668 15.9524 9.48025 15.9524 9.58423C15.9524 9.63645 15.8752 9.67914 15.7812 9.67914C15.687 9.67914 15.4448 9.85834 15.2431 10.0774C15.0415 10.2964 14.8468 10.4756 14.8104 10.4756C14.7287 10.4756 14.3138 10.9375 14.3135 11.0287C14.3135 11.0652 14.2707 11.095 14.2184 11.095C14.0948 11.095 13.6762 11.5019 13.6762 11.622C13.6762 11.6729 13.5924 11.7145 13.49 11.7145C13.2963 11.7145 12.8568 12.0802 12.8568 12.2415C12.8568 12.2924 12.8144 12.334 12.7628 12.334C12.7113 12.334 12.6419 12.4036 12.6087 12.4888C12.532 12.6857 12.351 12.8649 12.2292 12.8649C12.1773 12.8649 12.086 12.9545 12.0262 13.064C11.9665 13.1735 11.8423 13.3275 11.7498 13.4063C11.6577 13.485 11.5821 13.5775 11.5821 13.6116C11.5821 13.6897 11.3422 13.9268 11.2634 13.9268C11.1667 13.9268 10.9448 14.1724 10.9448 14.2797C10.9448 14.3348 10.9038 14.3552 10.8537 14.3251C10.802 14.2941 10.7627 14.3684 10.7627 14.4967C10.7627 14.6795 10.7185 14.7233 10.535 14.7233C10.3634 14.7233 10.3074 14.7697 10.3074 14.912C10.3074 15.0848 9.90021 15.5193 9.73837 15.5197C9.70081 15.5197 9.67008 15.5795 9.67008 15.6525C9.67008 15.7255 9.62911 15.7852 9.57904 15.7852C9.52896 15.7852 9.48799 15.8359 9.48799 15.8978C9.48799 15.9598 9.30362 16.2056 9.07827 16.444C8.85293 16.6825 8.66856 16.9504 8.66856 17.0394C8.66856 17.1283 8.6046 17.2011 8.52652 17.2011C8.44845 17.2011 8.40998 17.2409 8.44094 17.2896C8.47189 17.3383 8.43343 17.3781 8.35535 17.3781C8.27409 17.3781 8.21332 17.4538 8.21332 17.5551C8.21332 17.6524 8.17235 17.7321 8.12227 17.7321C8.07219 17.7321 8.03122 17.7918 8.03122 17.8648C8.03122 17.9378 7.99025 17.9976 7.94017 17.9976C7.8901 17.9976 7.84913 18.0772 7.84913 18.1745C7.84913 18.2728 7.78835 18.3515 7.71255 18.3515C7.63744 18.3515 7.57598 18.4113 7.57598 18.4843C7.57598 18.5573 7.53501 18.617 7.48493 18.617C7.43486 18.617 7.39389 18.6867 7.39389 18.7719C7.39366 18.857 7.29214 19.0462 7.16786 19.1922C7.04381 19.3382 6.90837 19.4975 6.86717 19.5462C6.82575 19.5949 6.73311 19.7641 6.66095 19.9223C6.58902 20.0805 6.49911 20.2099 6.4611 20.2099C6.42331 20.2099 6.39236 20.2667 6.39236 20.3362C6.39236 20.4059 6.33864 20.5154 6.27286 20.5796C6.2073 20.644 6.09486 20.826 6.02316 20.9842C5.95146 21.1424 5.86178 21.2718 5.82376 21.2718C5.78598 21.2718 5.75502 21.3473 5.75502 21.4393C5.75502 21.5315 5.69106 21.6307 5.61276 21.6599C5.53446 21.6891 5.49372 21.7499 5.5224 21.795C5.55108 21.8402 5.51284 21.9371 5.43727 22.0105C5.3617 22.084 5.29978 22.2043 5.29978 22.278C5.29978 22.3517 5.25881 22.4364 5.20874 22.4665C5.15866 22.4966 5.11769 22.5941 5.11769 22.6835C5.11769 22.7727 5.05373 22.8696 4.97542 22.8988C4.89712 22.928 4.85638 22.9888 4.88506 23.0339C4.91374 23.0791 4.8755 23.176 4.79993 23.2494C4.72436 23.3229 4.66245 23.4457 4.66245 23.522C4.66245 23.5985 4.62148 23.6611 4.5714 23.6611C4.52132 23.6611 4.48035 23.7607 4.48035 23.8824C4.48035 24.0041 4.43938 24.1036 4.3893 24.1036C4.33923 24.1036 4.29826 24.1784 4.29826 24.2698C4.29826 24.3611 4.2368 24.4855 4.16168 24.5461C4.08657 24.6067 4.02511 24.7908 4.02511 24.9551C4.02511 25.1195 3.98414 25.254 3.93406 25.254C3.88399 25.254 3.84302 25.3536 3.84302 25.4753C3.84302 25.5969 3.80204 25.6965 3.75197 25.6965C3.70189 25.6965 3.66092 25.7775 3.66092 25.8764C3.66092 25.975 3.60834 26.0757 3.54392 26.0996C3.47973 26.1237 3.41805 26.25 3.4069 26.3806C3.39574 26.5111 3.34589 26.6575 3.29627 26.7058C3.24642 26.7542 3.20568 26.8655 3.20568 26.9531C3.20568 27.0407 3.16471 27.1124 3.11463 27.1124C3.06456 27.1124 3.02358 27.2518 3.02358 27.4221C3.02358 27.5925 2.98261 27.7319 2.93254 27.7319C2.88246 27.7319 2.84149 27.8285 2.84149 27.9467C2.84149 28.065 2.78003 28.2214 2.70492 28.2945C2.62821 28.369 2.56834 28.5852 2.56834 28.7874C2.56834 28.9856 2.52737 29.1478 2.4773 29.1478C2.42722 29.1478 2.38625 29.2473 2.38625 29.369C2.38625 29.4907 2.34528 29.5902 2.2952 29.5902C2.24512 29.5902 2.20415 29.7652 2.20415 29.9789C2.20415 30.2429 2.16022 30.384 2.06758 30.4187C1.97744 30.4524 1.93101 30.5909 1.93101 30.8263C1.93101 31.0225 1.89004 31.1831 1.83996 31.1831C1.78988 31.1831 1.74891 31.3599 1.74891 31.576C1.74891 31.7922 1.70794 31.9937 1.65786 32.0238C1.60779 32.0539 1.56682 32.2576 1.56682 32.4767C1.56682 32.7196 1.53131 32.8536 1.47577 32.8202C1.42569 32.7902 1.38108 32.8176 1.37675 32.8813C1.32463 33.6284 1.26886 33.9757 1.19762 34.0001C1.15027 34.0165 1.11158 34.2653 1.11158 34.5532C1.11158 34.8432 1.07106 35.0768 1.02053 35.0768C0.967494 35.0768 0.929481 35.37 0.929481 35.7795C0.929481 36.166 0.88851 36.5069 0.838433 36.537C0.783804 36.5697 0.747385 37.1675 0.747385 38.033C0.747385 39.0931 0.71347 39.5422 0.619008 39.7314C0.446699 40.0761 0.459218 42.7857 0.633575 42.8422C0.718705 42.8698 0.747385 43.2561 0.747385 44.3709C0.747385 45.27 0.783577 45.8843 0.838433 45.9173C0.88851 45.9474 0.929481 46.3281 0.929481 46.7633C0.929481 47.2317 0.966583 47.5544 1.02053 47.5544C1.07061 47.5544 1.11158 47.7655 1.11158 48.0235C1.11158 48.2814 1.15027 48.5303 1.19784 48.5765C1.24519 48.6228 1.29208 48.8398 1.30187 49.0588C1.31166 49.2779 1.37539 49.5453 1.44322 49.6531C1.51128 49.7608 1.56682 50.0075 1.56682 50.2008C1.56682 50.3944 1.60779 50.5774 1.65786 50.6075C1.70794 50.6376 1.74891 50.8168 1.74891 51.0057C1.74891 51.1946 1.78988 51.3738 1.83996 51.4039C1.89004 51.434 1.93124 51.5459 1.93146 51.6526C1.93192 51.7592 1.99338 51.9605 2.06804 52.0999C2.14292 52.2393 2.20415 52.4857 2.20415 52.6477C2.20415 52.8096 2.24512 52.9667 2.2952 52.9968C2.34528 53.0269 2.38625 53.1488 2.38625 53.2676C2.38625 53.3864 2.42722 53.4835 2.4773 53.4835C2.52737 53.4835 2.56834 53.6441 2.56834 53.8404C2.56834 54.0758 2.61478 54.2143 2.70492 54.2479C2.78003 54.276 2.84149 54.3919 2.84149 54.5054C2.84149 54.6191 2.88246 54.7366 2.93254 54.7667C2.98261 54.7968 3.02358 54.9386 3.02358 55.0817C3.02358 55.2248 3.06456 55.3419 3.11463 55.3419C3.16471 55.3419 3.20568 55.4589 3.20568 55.6021C3.20568 55.7452 3.24665 55.887 3.29673 55.9171C3.3468 55.9472 3.38778 56.0702 3.38778 56.1905C3.38778 56.3109 3.44923 56.4323 3.52435 56.4602C3.59946 56.4883 3.66092 56.6065 3.66092 56.723C3.66092 56.8394 3.70189 56.9348 3.75197 56.9348C3.80204 56.9348 3.84302 57.012 3.84302 57.1064C3.84302 57.2009 3.88399 57.3029 3.93406 57.333C3.98414 57.3631 4.02511 57.5049 4.02511 57.648C4.02511 57.8204 4.07132 57.9082 4.16168 57.9082C4.24659 57.9082 4.29826 57.9918 4.29826 58.1294C4.29826 58.2511 4.33923 58.3507 4.3893 58.3507C4.43938 58.3507 4.48035 58.4502 4.48035 58.5719C4.48035 58.6936 4.52132 58.7931 4.5714 58.7931C4.62148 58.7931 4.66245 58.8557 4.66245 58.9323C4.66245 59.0086 4.72436 59.1314 4.79993 59.2048C4.8755 59.2783 4.91374 59.3752 4.88506 59.4203C4.85638 59.4655 4.89712 59.5263 4.97542 59.5555C5.05373 59.5847 5.11769 59.6838 5.11769 59.7761C5.11769 59.8681 5.15866 59.9436 5.20874 59.9436C5.25881 59.9436 5.29978 60.0431 5.29978 60.1648C5.29978 60.2865 5.34075 60.386 5.39083 60.386C5.44091 60.386 5.48188 60.467 5.48188 60.5659C5.48188 60.6646 5.54334 60.7685 5.61845 60.7964C5.69357 60.8245 5.75502 60.9227 5.75502 61.015C5.75502 61.107 5.79599 61.1825 5.84607 61.1825C5.89615 61.1825 5.93712 61.2639 5.93712 61.3634C5.93712 61.463 6.03955 61.644 6.16474 61.7656C6.28993 61.8873 6.39236 62.0448 6.39236 62.1156C6.39236 62.1864 6.43333 62.2444 6.48341 62.2444C6.53348 62.2444 6.57445 62.324 6.57445 62.4214C6.57445 62.5187 6.60655 62.5984 6.64593 62.5984C6.68508 62.5984 6.79502 62.7278 6.88971 62.886C6.98463 63.0441 7.1369 63.2379 7.22818 63.3167C7.31923 63.3955 7.39389 63.5448 7.39389 63.6486C7.39389 63.7523 7.43486 63.8373 7.48493 63.8373C7.53501 63.8373 7.57598 63.8983 7.57598 63.9729C7.57598 64.0472 7.63744 64.1313 7.71255 64.1592C7.78767 64.1873 7.84913 64.257 7.84913 64.3138C7.84913 64.3709 7.93107 64.4751 8.03122 64.5452C8.13137 64.6154 8.21332 64.745 8.21332 64.833C8.21332 64.9211 8.27455 65.016 8.34943 65.0439C8.42409 65.072 8.46279 65.1304 8.43502 65.174C8.40725 65.2176 8.44845 65.2532 8.52652 65.2532C8.6046 65.2532 8.66856 65.3229 8.66856 65.408C8.66879 65.589 9.0521 66.0496 9.20278 66.0496C9.25946 66.0496 9.30589 66.131 9.30589 66.2306C9.30589 66.4189 9.68215 66.8461 9.84808 66.8461C9.90044 66.8461 9.93845 66.8759 9.93253 66.9124C9.90271 67.0949 9.97601 67.2151 10.3529 67.6031C10.5783 67.835 10.7627 68.0781 10.7627 68.1434C10.7627 68.2086 10.8234 68.262 10.8974 68.262C10.9716 68.262 11.0581 68.3615 11.0895 68.4832C11.1209 68.6049 11.186 68.7044 11.2343 68.7044C11.3326 68.7044 11.5821 68.9265 11.5821 69.0142C11.5821 69.1082 11.8348 69.3239 11.9451 69.3239C12.0018 69.3239 12.0228 69.3637 11.9918 69.4124C11.9609 69.461 11.9993 69.5009 12.0774 69.5009C12.1555 69.5009 12.2194 69.5307 12.2194 69.5672C12.2197 69.6573 12.6342 70.1203 12.7145 70.1203C12.7978 70.1203 13.0389 70.3546 13.0389 70.4356C13.0389 70.5137 13.5153 70.9165 13.6079 70.9168C13.6455 70.9168 13.6762 70.9584 13.6762 71.0092C13.6762 71.1079 14.085 71.5362 14.1792 71.5362C14.2719 71.5362 14.4956 71.782 14.4956 71.8838C14.4956 71.936 14.5384 71.9787 14.5905 71.9787C14.6427 71.9787 14.7733 72.0583 14.8808 72.1557C14.9882 72.253 15.13 72.3327 15.1956 72.3327C15.2613 72.3327 15.3151 72.3924 15.3151 72.4654C15.3151 72.5384 15.3588 72.5981 15.4123 72.5981C15.4657 72.5981 15.6863 72.7773 15.9021 72.9964C16.1181 73.2154 16.3441 73.3946 16.4042 73.3946C16.4645 73.3946 16.6532 73.534 16.8233 73.7043C16.9935 73.8747 17.195 74.014 17.271 74.014C17.3484 74.014 17.4092 74.0917 17.4092 74.191C17.4092 74.3209 17.4699 74.368 17.6368 74.368C17.762 74.368 17.8644 74.4107 17.8644 74.4629C17.8644 74.6127 18.1084 74.8105 18.293 74.8105C18.3857 74.8105 18.5206 74.8901 18.5928 74.9875C18.6649 75.0848 18.7735 75.1645 18.8341 75.1645C18.8946 75.1645 19.0961 75.3038 19.2818 75.4742C19.4678 75.6445 19.6961 75.7839 19.7892 75.7839C19.8823 75.7839 19.9585 75.8437 19.9585 75.9167C19.9585 75.9903 20.0395 76.0494 20.1406 76.0494C20.2408 76.0494 20.3227 76.0892 20.3227 76.1379C20.3227 76.1866 20.4153 76.2264 20.5287 76.2264C20.642 76.2264 20.8089 76.3222 20.8993 76.4394C20.9899 76.5567 21.184 76.7009 21.3306 76.76C21.4774 76.8191 21.5974 76.9023 21.5974 76.9452C21.5974 76.9879 21.6998 77.0228 21.825 77.0228C21.9502 77.0228 22.0526 77.0627 22.0526 77.1113C22.0526 77.16 22.1302 77.1998 22.2249 77.1998C22.3198 77.1998 22.4209 77.2596 22.4498 77.3326C22.4785 77.4056 22.5855 77.4653 22.687 77.4653C22.7887 77.4653 22.872 77.5051 22.872 77.5538C22.872 77.6025 22.954 77.6423 23.0541 77.6423C23.1543 77.6423 23.2362 77.6821 23.2362 77.7308C23.2362 77.7795 23.3387 77.8193 23.4639 77.8193C23.6054 77.8193 23.6915 77.8695 23.6915 77.952C23.6915 78.025 23.7518 78.0848 23.8253 78.0848C23.8988 78.0848 24.1051 78.1644 24.2833 78.2617C24.4615 78.3591 24.6882 78.4387 24.7868 78.4387C24.8853 78.4387 24.9661 78.4786 24.9661 78.5272C24.9661 78.5759 25.0481 78.6157 25.1482 78.6157C25.2493 78.6157 25.3303 78.6748 25.3303 78.7485C25.3303 78.831 25.4164 78.8812 25.558 78.8812C25.6831 78.8812 25.7856 78.921 25.7856 78.9697C25.7856 79.0184 25.865 79.0582 25.9622 79.0582C26.0594 79.0582 26.1643 79.098 26.1953 79.1467C26.2262 79.1954 26.3134 79.2352 26.3892 79.2352C26.465 79.2352 26.5884 79.2949 26.6635 79.3679C26.7386 79.4409 26.9178 79.5007 27.0614 79.5007C27.205 79.5007 27.348 79.5405 27.3789 79.5891C27.4099 79.6378 27.5353 79.6776 27.6575 79.6776C27.7798 79.6776 27.8797 79.7175 27.8797 79.7661C27.8797 79.8148 27.9377 79.8546 28.009 79.8546C28.08 79.8546 28.2746 79.921 28.4414 80.0024C29.0105 80.2796 29.061 80.2971 29.2898 80.2971C29.4157 80.2971 29.5185 80.3369 29.5185 80.3856C29.5185 80.4343 29.6619 80.4741 29.8372 80.4741C30.0125 80.4741 30.1559 80.5139 30.1559 80.5626C30.1559 80.6112 30.2583 80.6511 30.3835 80.6511C30.5251 80.6511 30.6111 80.7013 30.6111 80.7838C30.6111 80.8765 30.7072 80.9166 30.9298 80.9166C31.1051 80.9166 31.2485 80.9564 31.2485 81.005C31.2485 81.0537 31.4328 81.0935 31.6582 81.0935C31.8835 81.0935 32.0679 81.1334 32.0679 81.182C32.0679 81.2307 32.227 81.2705 32.4216 81.2705C32.6162 81.2705 32.8928 81.33 33.0362 81.4028C33.1796 81.4754 33.4916 81.5351 33.7295 81.5356C33.9674 81.5358 34.162 81.5758 34.162 81.6245C34.162 81.6732 34.2619 81.713 34.3841 81.713C34.5064 81.713 34.6318 81.7528 34.6627 81.8015C34.6937 81.8502 35.0445 81.89 35.4421 81.89C35.8634 81.89 36.165 81.9269 36.165 81.9785C36.165 82.0302 36.4707 82.067 36.9 82.067C37.4317 82.067 37.6726 82.1037 37.7714 82.1997C37.8786 82.3039 38.1594 82.3325 39.0797 82.3325C39.7626 82.3325 40.2749 82.3694 40.3077 82.4209C40.3822 82.538 45.8377 82.5415 45.9579 82.4247C46.0057 82.3783 46.484 82.334 47.0205 82.3263C47.7272 82.3163 48.0249 82.2785 48.101 82.1898C48.1702 82.1086 48.4023 82.067 48.7863 82.067C49.1127 82.067 49.367 82.0283 49.367 81.9785C49.367 81.9269 49.6704 81.89 50.0954 81.89C50.5203 81.89 50.8238 81.853 50.8238 81.8015C50.8238 81.7528 51.0491 81.713 51.3245 81.713C51.5999 81.713 51.8253 81.6732 51.8253 81.6245C51.8253 81.5758 51.9862 81.536 52.1829 81.536C52.3798 81.536 52.6022 81.4763 52.6773 81.4033C52.7626 81.3201 52.9866 81.2705 53.2755 81.2705C53.5295 81.2705 53.7373 81.2307 53.7373 81.182C53.7373 81.1334 53.8782 81.0935 54.0505 81.0935C54.2228 81.0935 54.3892 81.0537 54.4202 81.005C54.4511 80.9564 54.6186 80.9166 54.7925 80.9166C54.9897 80.9166 55.1285 80.8666 55.1611 80.7838C55.1968 80.6938 55.342 80.6511 55.6136 80.6511C55.8334 80.6511 56.0135 80.6112 56.0135 80.5626C56.0135 80.5139 56.1339 80.4741 56.2812 80.4741C56.4284 80.4741 56.5743 80.4343 56.6053 80.3856C56.6363 80.3369 56.7478 80.2971 56.8532 80.2971C57.0888 80.2971 57.7434 80.0243 57.7434 79.9261C57.7434 79.8867 57.8663 79.8546 58.0166 79.8546C58.1668 79.8546 58.2897 79.8148 58.2897 79.7661C58.2897 79.7175 58.3921 79.6776 58.5173 79.6776C58.6425 79.6776 58.7449 79.6378 58.7449 79.5891C58.7449 79.5405 58.8692 79.5007 59.021 79.5007C59.1822 79.5007 59.3188 79.4456 59.3493 79.3679C59.3782 79.2949 59.4997 79.2352 59.6197 79.2352C59.7394 79.2352 59.8375 79.1954 59.8375 79.1467C59.8375 79.098 59.9195 79.0582 60.0196 79.0582C60.1198 79.0582 60.2017 79.0184 60.2017 78.9697C60.2017 78.921 60.3189 78.8812 60.4621 78.8812C60.6335 78.8812 60.7808 78.8058 60.8934 78.66C60.9881 78.5374 61.1568 78.4387 61.2715 78.4387C61.3856 78.4387 61.5499 78.4022 61.6368 78.3578C61.7238 78.3131 61.9487 78.2117 62.1365 78.1323C62.3243 78.0529 62.4779 77.95 62.4779 77.9036C62.4779 77.8573 62.5803 77.8193 62.7055 77.8193C62.8307 77.8193 62.9331 77.7795 62.9331 77.7308C62.9331 77.6821 63.0151 77.6423 63.1152 77.6423C63.2154 77.6423 63.2973 77.6069 63.2973 77.5633C63.2973 77.5199 63.3998 77.4595 63.525 77.429C63.6502 77.3985 63.7526 77.3343 63.7526 77.2865C63.7526 77.239 63.8268 77.1998 63.9176 77.1998C64.0082 77.1998 64.1705 77.1202 64.2779 77.0228C64.3854 76.9255 64.5335 76.8458 64.6071 76.8458C64.6806 76.8458 64.8215 76.7463 64.92 76.6246C65.0184 76.5029 65.1647 76.4034 65.2453 76.4034C65.3257 76.4034 65.3914 76.3636 65.3914 76.3149C65.3914 76.2662 65.4763 76.2264 65.5801 76.2264C65.7816 76.2264 66.0288 76.0348 66.0288 75.8788C66.0288 75.8266 66.1221 75.7839 66.2364 75.7839C66.3504 75.7839 66.5029 75.7043 66.5751 75.6069C66.6472 75.5096 66.7501 75.4299 66.8038 75.4299C66.8575 75.4299 67.0533 75.2906 67.2393 75.1202C67.425 74.9499 67.6178 74.8105 67.6679 74.8105C67.7177 74.8105 67.7587 74.7707 67.7587 74.722C67.7587 74.6733 67.8406 74.6335 67.9408 74.6335C68.0418 74.6335 68.1229 74.5744 68.1229 74.5008C68.1229 74.4278 68.201 74.368 68.2966 74.368C68.3922 74.368 68.6601 74.1888 68.892 73.9698C69.1237 73.7508 69.36 73.5716 69.4167 73.5716C69.4734 73.5716 69.6964 73.3924 69.9124 73.1734C70.1282 72.9543 70.3467 72.7751 70.3975 72.7751C70.4485 72.7751 70.4901 72.7353 70.4901 72.6866C70.4901 72.638 70.5425 72.5981 70.6064 72.5981C70.7567 72.5981 71.0364 72.2809 71.0364 72.1103C71.0364 72.0289 71.1231 71.9787 71.264 71.9787C71.3892 71.9787 71.4917 71.936 71.4917 71.8838C71.4917 71.782 71.7154 71.5362 71.808 71.5362C71.9023 71.5362 72.3111 71.1079 72.3111 71.0092C72.3111 70.9584 72.3539 70.9168 72.4062 70.9168C72.5077 70.9168 72.9484 70.5194 72.9484 70.4278C72.9484 70.3568 73.1917 70.1203 73.2648 70.1203C73.359 70.1203 73.7679 69.692 73.7679 69.5933C73.7679 69.5425 73.8106 69.5009 73.863 69.5009C74.0071 69.5009 74.3822 69.1071 74.4195 68.9166C74.4377 68.8241 74.5386 68.7367 74.6435 68.7221C74.7487 68.7073 74.8884 68.5978 74.954 68.4788C75.0195 68.3595 75.1074 68.262 75.1491 68.262C75.1905 68.262 75.2246 68.1823 75.2246 68.085C75.2246 67.9876 75.2685 67.908 75.3223 67.908C75.4281 67.908 75.6799 67.6903 75.6799 67.5985C75.6799 67.5673 75.8642 67.3702 76.0896 67.1604C76.3149 66.9505 76.4993 66.7142 76.4993 66.6354C76.4993 66.5567 76.5403 66.4921 76.5903 66.4921C76.6404 66.4921 76.6814 66.4366 76.6814 66.3689C76.6814 66.3009 76.7428 66.2226 76.818 66.1945C76.8931 66.1667 76.9545 66.0914 76.9545 66.0277C76.9545 65.964 77.0365 65.8543 77.1366 65.7841C77.2368 65.714 77.3187 65.6098 77.3187 65.5527C77.3187 65.4959 77.3802 65.4262 77.4553 65.3981C77.5304 65.3702 77.5919 65.2861 77.5919 65.2118C77.5919 65.1372 77.6328 65.0762 77.6829 65.0762C77.733 65.0762 77.774 65.0165 77.774 64.9434C77.774 64.8704 77.8149 64.8107 77.865 64.8107C77.9151 64.8107 77.9561 64.7406 77.9561 64.6547C77.9561 64.5689 78.0585 64.424 78.1837 64.3326C78.3089 64.2412 78.4113 64.1012 78.4113 64.0213C78.4113 63.9417 78.4932 63.8189 78.5934 63.7488C78.6935 63.6786 78.7755 63.5304 78.7755 63.4196C78.7755 63.2992 78.8306 63.2178 78.9121 63.2178C78.9872 63.2178 79.0486 63.1457 79.0486 63.0574C79.0486 62.9694 79.1306 62.8116 79.2307 62.7072C79.3309 62.6028 79.4128 62.4738 79.4128 62.4209C79.4128 62.3678 79.5153 62.2322 79.6404 62.1194C79.7656 62.0066 79.8681 61.8493 79.8681 61.7696C79.8681 61.69 79.909 61.6249 79.9591 61.6249C80.0092 61.6249 80.0502 61.5254 80.0502 61.4037C80.0502 61.282 80.0911 61.1825 80.1412 61.1825C80.1913 61.1825 80.2323 61.107 80.2323 61.015C80.2323 60.9227 80.2937 60.8245 80.3688 60.7964C80.4439 60.7685 80.5063 60.6944 80.5074 60.6323C80.5086 60.5699 80.5896 60.4192 80.6875 60.2975C80.7854 60.1759 80.8664 60.0236 80.8675 59.9593C80.8687 59.8951 80.9311 59.7827 81.0062 59.7097C81.0813 59.6367 81.1427 59.4803 81.1427 59.3619C81.1427 59.2438 81.1837 59.1471 81.2338 59.1471C81.2839 59.1471 81.3248 59.0675 81.3248 58.9701C81.3248 58.8728 81.3658 58.7931 81.4159 58.7931C81.466 58.7931 81.5069 58.6936 81.5069 58.5719C81.5069 58.4502 81.5479 58.3507 81.598 58.3507C81.6481 58.3507 81.689 58.2697 81.689 58.1708C81.689 58.0721 81.7505 57.9682 81.8256 57.9403C81.9007 57.9122 81.9622 57.8162 81.9622 57.727C81.9622 57.6376 82.0031 57.5401 82.0532 57.51C82.1033 57.4799 82.1443 57.3381 82.1443 57.1949C82.1443 57.0518 82.1852 56.9348 82.2353 56.9348C82.2854 56.9348 82.3264 56.8352 82.3264 56.7135C82.3264 56.5759 82.378 56.4923 82.4629 56.4923C82.538 56.4923 82.5995 56.4151 82.5995 56.3206C82.5995 56.2262 82.6405 56.1242 82.6906 56.0941C82.7406 56.064 82.7816 55.9222 82.7816 55.779C82.7816 55.6359 82.8226 55.5189 82.8727 55.5189C82.9227 55.5189 82.9637 55.3965 82.9637 55.247C82.9637 55.0976 83.0252 54.9156 83.1003 54.8426C83.1754 54.7696 83.2368 54.6131 83.2368 54.4948C83.2368 54.3766 83.2778 54.28 83.3279 54.28C83.378 54.28 83.4189 54.1406 83.4189 53.9702C83.4189 53.7999 83.4599 53.6605 83.51 53.6605C83.5601 53.6605 83.601 53.5211 83.601 53.3508C83.601 53.1804 83.642 53.041 83.6921 53.041C83.7422 53.041 83.7831 52.8661 83.7831 52.6523C83.7831 52.3884 83.8271 52.2473 83.9197 52.2125C84.0098 52.1789 84.0563 52.0404 84.0563 51.805C84.0563 51.6088 84.0972 51.4482 84.1473 51.4482C84.1974 51.4482 84.2384 51.2913 84.2384 51.0995C84.2384 50.9077 84.2793 50.7261 84.3294 50.696C84.3795 50.6659 84.4205 50.4292 84.4205 50.1699C84.4205 49.9106 84.4817 49.5845 84.5566 49.4451C84.6312 49.3057 84.6927 49.0248 84.6932 48.8208C84.6934 48.6168 84.7346 48.4252 84.7847 48.3951C84.8347 48.365 84.8757 48.0839 84.8757 47.7704C84.8757 47.4494 84.9155 47.2005 84.9668 47.2005C85.0207 47.2005 85.0578 46.8777 85.0578 46.4093C85.0578 45.9742 85.0988 45.5934 85.1489 45.5633C85.2026 45.531 85.2399 45.0021 85.2399 44.2749C85.2399 43.5114 85.2745 43.0413 85.3309 43.0413C85.381 43.0413 85.422 42.8422 85.422 42.5988C85.422 42.3554 85.381 42.1563 85.3309 42.1563C85.2058 42.1563 85.2155 41.9134 85.3426 41.8723C85.5203 41.8147 85.5551 40.971 85.3865 40.807C85.2606 40.6847 85.2399 40.3891 85.2399 38.7166C85.2399 37.5135 85.2051 36.7478 85.1489 36.714C85.0988 36.6839 85.0578 36.343 85.0578 35.9565C85.0578 35.547 85.0198 35.2538 84.9668 35.2538C84.9146 35.2538 84.8757 34.9883 84.8757 34.6344C84.8757 34.2937 84.8397 34.0149 84.7956 34.0149C84.7517 34.0149 84.6973 33.7682 84.6747 33.4669C84.6517 33.1594 84.5871 32.9036 84.5272 32.8844C84.4617 32.8632 84.4205 32.6479 84.4205 32.3262C84.4205 32.0362 84.3799 31.8026 84.3294 31.8026C84.2793 31.8026 84.2384 31.6632 84.2384 31.4928C84.2384 31.3225 84.1974 31.1831 84.1473 31.1831C84.0972 31.1831 84.0563 31.0039 84.0563 30.7849C84.0563 30.49 84.0208 30.3867 83.9197 30.3867C83.8248 30.3867 83.7831 30.2937 83.7831 30.0822C83.7831 29.9148 83.7422 29.7531 83.6921 29.723C83.642 29.6929 83.601 29.5511 83.601 29.4079C83.601 29.2648 83.5601 29.1478 83.51 29.1478C83.4599 29.1478 83.4189 28.9909 83.4189 28.7991C83.4189 28.6073 83.378 28.4256 83.3279 28.3956C83.2778 28.3655 83.2368 28.2464 83.2368 28.1312C83.2368 28.0159 83.1754 27.8617 83.1003 27.7887C83.0252 27.7157 82.9637 27.5336 82.9637 27.3843C82.9637 27.2347 82.9227 27.1124 82.8727 27.1124C82.8226 27.1124 82.7809 27.0427 82.7802 26.9575C82.778 26.6912 82.5237 26.0936 82.4226 26.1168C82.3689 26.1292 82.3264 26.002 82.3264 25.8292C82.3264 25.6589 82.2854 25.5195 82.2353 25.5195C82.1852 25.5195 82.1443 25.42 82.1443 25.2983C82.1443 25.1766 82.1033 25.077 82.0532 25.077C82.0031 25.077 81.9622 25.0016 81.9622 24.9096C81.9622 24.8173 81.9007 24.7191 81.8256 24.691C81.7457 24.6613 81.689 24.5286 81.689 24.372C81.689 24.2244 81.6481 24.1036 81.598 24.1036C81.5479 24.1036 81.5069 24.0041 81.5069 23.8824C81.5069 23.7607 81.466 23.6611 81.4159 23.6611C81.3658 23.6611 81.3248 23.6076 81.3248 23.5419C81.3248 23.3645 81.0512 22.8647 80.954 22.8647C80.9076 22.8647 80.8696 22.7651 80.8696 22.6435C80.8696 22.5218 80.8382 22.4222 80.7999 22.4222C80.7617 22.4222 80.6631 22.2729 80.5805 22.0904C80.4981 21.9079 80.3452 21.6707 80.2404 21.5632C80.1357 21.4557 80.0502 21.2864 80.0502 21.1871C80.0502 21.0877 80.0092 21.0063 79.9591 21.0063C79.909 21.0063 79.8681 20.9413 79.8681 20.8616C79.8681 20.782 79.7656 20.6247 79.6404 20.5119C79.5153 20.399 79.4128 20.2475 79.4128 20.1752C79.4128 20.1026 79.3719 20.0187 79.3218 19.9887C79.2717 19.9586 79.2307 19.8738 79.2307 19.8002C79.2307 19.6455 79.0161 19.4134 78.8731 19.4134C78.8194 19.4134 78.7755 19.3139 78.7755 19.1922C78.7755 19.0705 78.7345 18.971 78.6844 18.971C78.6344 18.971 78.5934 18.9059 78.5934 18.8263C78.5934 18.7466 78.491 18.5894 78.3658 18.4765C78.2406 18.3637 78.1382 18.2099 78.1382 18.1345C78.1382 18.0593 78.0972 17.9976 78.0471 17.9976C77.997 17.9976 77.9561 17.9354 77.9561 17.8595C77.9561 17.7836 77.9151 17.7462 77.865 17.7763C77.814 17.8068 77.774 17.738 77.774 17.6195C77.774 17.4845 77.6916 17.3653 77.5463 17.2896C77.4211 17.2246 77.3187 17.1181 77.3187 17.0533C77.3187 16.9887 77.2825 16.9356 77.2381 16.9356C77.1938 16.9356 77.0938 16.8062 77.0162 16.648C76.9384 16.4898 76.7904 16.3018 76.6871 16.2303C76.5837 16.1587 76.4993 16.0423 76.4993 15.9717C76.4993 15.9011 76.3149 15.6717 76.0896 15.4618C75.8642 15.252 75.6799 15.0171 75.6799 14.9397C75.6799 14.7795 75.4677 14.5463 75.3223 14.5463C75.2685 14.5463 75.2246 14.4841 75.2246 14.4082C75.2246 14.3324 75.1837 14.295 75.1336 14.3251C75.0835 14.3552 75.0425 14.3348 75.0425 14.2797C75.0425 14.1724 74.8206 13.9268 74.7239 13.9268C74.6132 13.9268 74.4052 13.674 74.4052 13.5397C74.4052 13.3678 72.9049 11.8915 72.7304 11.8915C72.2822 11.8915 72.3111 10.9546 72.3111 25.5237C72.3111 33.8733 72.2783 39.0683 72.2255 39.1C72.1784 39.1283 72.0621 39.0703 71.9669 38.971C71.7887 38.7852 71.7124 38.6491 71.4461 38.0414C71.2203 37.5261 70.4808 36.102 70.4123 36.0503C70.38 36.0259 70.2534 35.8268 70.1312 35.6078C69.675 34.7917 68.1085 32.776 67.9301 32.776C67.8238 32.776 67.847 33.4479 68.0318 35.7361C68.1627 37.356 68.122 37.2299 68.9123 38.4597C69.029 38.6414 69.1244 38.823 69.1244 38.8637C69.1244 38.9042 69.2268 39.1438 69.352 39.396C69.4772 39.6482 69.5796 39.8951 69.5796 39.9446C69.5796 39.9944 69.6156 40.1039 69.6595 40.1884C70.3048 41.4291 70.1125 41.6333 69.0634 40.8218L68.3505 40.2705L68.3182 40.6603C68.3004 40.8747 68.3314 41.6077 68.3869 42.2891C68.4425 42.9705 68.5494 44.7226 68.6248 46.1828C68.7001 47.6429 68.8023 49.4011 68.8519 50.0896C68.9018 50.7783 68.9421 51.6544 68.9416 52.0364C68.9412 52.4187 68.9819 53.2092 69.032 53.7932C69.0821 54.3773 69.1856 56.1494 69.2619 57.7312C69.3384 59.313 69.4403 61.2046 69.4884 61.9347C69.6204 63.9373 69.6641 65.5629 69.589 65.6808C69.5387 65.76 68.5679 65.7804 65.6587 65.7629L61.795 65.7399L61.74 64.501C61.7097 63.8196 61.6396 62.0475 61.5843 60.563C61.5287 59.0785 61.4591 57.4657 61.4293 56.979C61.3994 56.4923 61.333 55.0189 61.2818 53.7047C61.2305 52.3906 61.1509 50.3597 61.1047 49.1916C61.0585 48.0235 60.9963 45.0049 60.9665 42.4838C60.9048 37.2684 60.8413 36.9396 60.3815 39.4573C60.3369 39.7006 60.2338 40.1785 60.1519 40.5192C59.909 41.5302 59.8409 41.8256 59.7531 42.2448C59.7071 42.4638 59.5625 43.0612 59.4319 43.5722C59.3012 44.0833 59.1567 44.6806 59.1107 44.8996C59.065 45.1187 58.9864 45.4571 58.9366 45.6518C58.6992 46.579 58.546 47.1867 58.4684 47.5102C58.4217 47.7049 58.3391 48.0235 58.2849 48.2181C58.2307 48.4128 58.154 48.7115 58.1142 48.8818C57.9621 49.5312 57.626 50.792 57.5593 50.9614C57.521 51.0588 57.4229 51.4172 57.3414 51.7579C57.2597 52.0986 57.1282 52.5964 57.0489 52.8641C56.9697 53.1318 56.8725 53.5101 56.8329 53.7047C56.7628 54.0499 56.6103 54.6202 56.324 55.6074C56.1644 56.1578 56.0989 56.402 55.8262 57.4657C55.7199 57.8794 55.5931 58.3573 55.5441 58.5277C55.4952 58.698 55.4205 58.9768 55.3784 59.1471C55.3363 59.3175 55.1927 59.8551 55.0593 60.3418C54.9262 60.8285 54.7438 61.5254 54.6542 61.8904C54.5096 62.4791 54.2913 63.3171 53.997 64.4125C53.8165 65.0839 54.0949 65.0319 50.6808 65.0319H47.5986L47.4878 64.8107C47.3885 64.612 47.0471 63.3406 46.9415 62.7753C46.9187 62.6537 46.8627 62.4147 46.8172 62.2444C46.7717 62.074 46.5859 61.3174 46.405 60.563C46.2238 59.8086 46.0387 59.052 45.9939 58.8816C45.9488 58.7113 45.8066 58.1139 45.6775 57.5542C45.5484 56.9945 45.4069 56.3972 45.3629 56.2268C44.9892 54.7793 44.8132 54.0348 44.8139 53.9028C44.8144 53.8169 44.7773 53.6775 44.7317 53.593C44.6862 53.5085 44.541 52.9614 44.4092 52.3773C44.2772 51.7933 44.1329 51.176 44.088 51.0057C43.989 50.6285 43.8672 50.113 43.6704 49.2358C43.5884 48.8708 43.488 48.4527 43.4473 48.3066C43.4068 48.1606 43.2249 47.2845 43.0435 46.3598C42.8621 45.435 42.6741 44.5561 42.626 44.4067C42.5778 44.2572 42.5384 44.0211 42.5384 43.882C42.5384 43.7428 42.5002 43.5067 42.4533 43.3572C42.3725 43.0994 42.0543 41.4745 41.8974 40.5192C41.8576 40.2758 41.7756 39.7781 41.7156 39.413C41.6555 39.048 41.5806 38.5787 41.5489 38.3703C41.3734 37.2153 41.197 38.2728 41.1829 40.5634C41.1775 41.4152 41.1331 42.7293 41.0841 43.4837C41.0352 44.2381 40.9501 45.9903 40.8948 47.3775C40.8394 48.7646 40.7552 50.7358 40.7077 51.7579C40.5677 54.7585 40.4486 57.4567 40.3603 59.6338C40.2431 62.5154 40.079 65.5432 40.033 65.6744C40.0023 65.7625 39.2047 65.7813 36.2814 65.7629L32.5686 65.7399L32.5739 65.2532C32.5766 64.9855 32.6139 64.2897 32.6567 63.7072L32.7344 62.6479L32.4717 62.8152C32.3274 62.9072 32.1671 63.0158 32.1157 63.057C31.5068 63.5426 29.7478 64.6337 29.5734 64.6337C29.5436 64.6337 29.2024 64.776 28.815 64.9499C28.4278 65.1238 27.8949 65.3229 27.6311 65.3923C26.46 65.7005 26.1523 65.7731 25.4669 65.9018C23.6753 66.2383 20.3937 66.3527 18.8448 66.1326C17.1428 65.8906 16.3721 65.7529 15.4061 65.5187C15.2308 65.4762 14.8826 65.3943 14.6322 65.3368C14.1815 65.2335 12.5991 64.6457 12.0947 64.3943C11.8113 64.2532 11.807 64.1738 12.0273 63.1293C12.0735 62.9103 12.2203 62.1935 12.3535 61.5364C12.4864 60.8794 12.6321 60.1626 12.6769 59.9436C12.7218 59.7245 12.8008 59.3263 12.852 59.0586C13.2672 56.8978 13.3054 56.8328 13.9787 57.1421C14.1378 57.2151 14.4934 57.3589 14.7688 57.4613C15.0442 57.5637 15.3515 57.6828 15.4516 57.7257C16.1431 58.0219 17.9939 58.4449 19.3667 58.6203C24.4442 59.2694 27.2931 57.9786 27.2854 55.0322C27.2794 52.8669 25.9281 51.542 22.0071 49.8573C21.1169 49.4748 20.5403 49.1938 19.7862 48.7752C19.3658 48.5418 19.008 48.3509 18.9907 48.3509C18.9431 48.3509 18.151 47.8347 17.3047 47.2522C16.3391 46.5876 14.5833 44.872 14.0081 44.0308C13.4902 43.2736 12.8577 42.0882 12.8572 41.874C12.857 41.7917 12.8206 41.7026 12.7762 41.676C12.7318 41.6493 12.6731 41.5176 12.6458 41.3831C12.6182 41.2486 12.5126 40.7802 12.4111 40.3422C12.1582 39.2504 12.1577 37.7443 12.4097 36.4027C12.659 35.0773 13.1033 33.7875 13.5116 33.2047C13.6022 33.0755 13.6762 32.9432 13.6762 32.9105C13.6762 32.8315 14.4278 31.7054 14.593 31.5371C14.6647 31.4641 14.917 31.192 15.1539 30.9322C15.4997 30.553 16.2526 29.9033 17.0006 29.3382C17.7595 28.765 20.4902 27.5549 21.0249 27.5549C21.1335 27.5549 21.245 27.5195 21.2726 27.4761C21.3001 27.433 21.456 27.3777 21.6192 27.3533C21.7824 27.329 22.4282 27.2193 23.0541 27.1093C26.1812 26.5606 30.8979 26.9954 33.6073 28.0823C34.6687 28.5079 34.7401 28.7573 34.2986 30.4924C34.1734 30.984 34.0709 31.4782 34.0709 31.5904C34.0709 31.7026 34.0338 31.8857 33.9885 31.9975C33.9435 32.1094 33.834 32.5393 33.7457 32.953C33.6574 33.3667 33.5565 33.745 33.5217 33.7937C33.4866 33.8423 33.4336 34.0415 33.4033 34.2361C33.1616 35.795 33.0448 35.9332 32.2789 35.5678C31.2658 35.0844 29.9751 34.6959 28.5625 34.4492C27.7165 34.3016 24.4597 34.2948 24.3097 34.4406C24.2501 34.4985 24.1249 34.5459 24.0315 34.5459C23.6448 34.5459 22.5001 35.1613 22.021 35.6268C20.813 36.8011 20.8314 38.8102 22.0608 39.9028C22.4994 40.2927 23.45 41.0059 23.531 41.0059C23.559 41.0059 23.8422 41.1581 24.1601 41.3442C24.4784 41.53 25.1687 41.8831 25.6945 42.1285C30.2501 44.2552 31.51 45.01 32.9328 46.4655C33.6223 47.1708 33.5763 47.1987 33.653 46.0279C33.689 45.4804 33.7582 44.4749 33.8069 43.7935C33.8556 43.1121 33.9341 41.8975 33.9813 41.0944C34.3077 35.5317 34.536 32.4017 34.7174 31.0061C34.765 30.6411 34.8446 29.7451 34.8945 29.015C35.0106 27.3113 34.904 27.4666 35.9572 27.465C36.4471 27.4644 36.9064 27.4277 36.9779 27.3836C37.1254 27.2931 37.1825 13.4333 37.0544 8.83845C36.9517 5.15136 36.9483 4.19209 37.0382 4.10714C37.5863 3.58967 46.5552 3.83502 50.0954 4.46443C53.1794 5.01265 52.978 4.84119 52.9998 6.93584C53.0085 7.78759 53.0572 9.7787 53.1075 11.3605C53.158 12.9423 53.2368 15.7697 53.2823 17.6436C53.3524 20.5105 53.519 25.6319 53.583 26.8841C53.6044 27.3011 53.7846 27.4254 54.8754 27.7754C55.276 27.9042 55.8853 28.1343 56.2297 28.2869L56.8557 28.5646L57.0719 28.3203C57.1907 28.1858 57.2882 27.9865 57.2882 27.8774C57.2882 27.5058 57.4332 27.4664 58.8032 27.4664C60.2003 27.4664 60.4136 27.4016 59.8123 27.1597C58.8622 26.7779 57.4826 26.2556 57.1336 26.1456C56.6331 25.9879 56.6659 26.1766 56.608 23.1105C56.2737 5.38278 56.1712 2.50164 55.8642 2.17953C55.7445 2.05409 55.6671 1.88816 55.6926 1.81095C55.7315 1.69193 55.6621 1.67511 55.2387 1.70077C54.9189 1.72024 54.7388 1.69635 54.7388 1.6344C54.7388 1.58131 54.5954 1.53773 54.4202 1.53773C54.2449 1.53773 54.1015 1.4979 54.1015 1.44923C54.1015 1.40056 53.9756 1.36074 53.8217 1.36074C53.6681 1.36074 53.4808 1.301 53.4057 1.228C53.3253 1.1499 53.1029 1.09526 52.8657 1.09526C52.644 1.09526 52.4626 1.05543 52.4626 1.00676C52.4626 0.958092 52.2783 0.918269 52.0529 0.918269C51.8276 0.918269 51.6432 0.878447 51.6432 0.829776C51.6432 0.781104 51.5032 0.741282 51.332 0.741282C51.1611 0.741282 51.0059 0.696814 50.9872 0.642612C50.9685 0.588409 50.8474 0.532658 50.7177 0.518942C50.5882 0.505004 50.3979 0.449917 50.2948 0.396378C50.1848 0.339078 49.5989 0.298814 48.8776 0.298814C48.1561 0.298814 47.6246 0.26231 47.5916 0.21032C47.5554 0.153463 46.0294 0.121826 43.3123 0.121826C40.5952 0.121826 39.0692 0.153463 39.0331 0.21032ZM50.0499 0.475801C50.0817 0.5258 50.0071 0.564295 49.8785 0.564295C49.7533 0.564295 49.6256 0.524472 49.5946 0.475801C49.5627 0.425802 49.6374 0.387307 49.766 0.387307C49.8912 0.387307 50.0189 0.427129 50.0499 0.475801ZM46.6356 33.0472C46.6356 33.3162 46.9911 34.7939 47.1347 35.1211C47.1987 35.2671 47.2936 35.5458 47.3457 35.7405C47.3979 35.9352 47.4848 36.2584 47.5388 36.4587C47.5929 36.6591 47.6371 36.9084 47.6371 37.0131C47.6371 37.1175 47.6728 37.2721 47.7168 37.3567C47.7907 37.4996 47.9264 38.0436 48.1854 39.236C48.2435 39.5037 48.3265 39.8621 48.3702 40.0325C48.4137 40.2028 48.5569 40.8002 48.6882 41.3599C48.8196 41.9196 48.9614 42.5169 49.003 42.6873C49.0449 42.8576 49.1876 43.5147 49.3206 44.1474C49.4533 44.7802 49.5971 45.4372 49.6399 45.6076C49.6827 45.7779 49.7658 46.1562 49.8245 46.4483C49.8832 46.7403 49.9875 47.2182 50.056 47.5102C50.181 48.0429 50.4152 49.2498 50.5543 50.0765C50.5952 50.3199 50.6952 50.8575 50.7764 51.2712C50.8577 51.6849 50.9542 52.2424 50.9911 52.5101C51.1151 53.4105 51.2084 53.3251 51.432 52.1077C51.5478 51.4774 51.6871 50.7225 51.7418 50.4305C51.7962 50.1385 51.8729 49.7203 51.912 49.5013C51.9512 49.2823 52.0957 48.5854 52.2334 47.9527C52.3711 47.3199 52.5152 46.643 52.5539 46.4483C52.6547 45.9385 52.9195 44.7379 53.0221 44.3244C53.1296 43.891 53.2557 43.3419 53.3624 42.8422C53.4066 42.6353 53.514 42.1674 53.6014 41.8024C53.6886 41.4373 53.7801 41.0287 53.8047 40.8942C53.8293 40.7597 53.8855 40.628 53.9299 40.6013C53.9743 40.5747 54.0104 40.4376 54.0104 40.2962C54.0104 40.0672 54.3368 38.6529 54.5515 37.9529C54.5961 37.8069 54.7211 37.3303 54.8287 36.894C54.9366 36.4576 55.08 35.9996 55.1476 35.8764C55.3356 35.5321 55.5753 34.5609 55.5166 34.3806C55.4779 34.2622 55.268 34.1786 54.7145 34.0618C54.3022 33.9746 53.7396 33.8523 53.4642 33.7897C51.9528 33.4463 49.5625 33.1056 47.2501 32.9041C46.659 32.8525 46.6356 32.8579 46.6356 33.0472Z" fill="#7186A0"/>
</svg>
